<?xml version="1.0" encoding="UTF-8" standalone="no"?>
<!DOCTYPE svg PUBLIC "-//W3C//DTD SVG 1.1//EN"
 "http://www.w3.org/Graphics/SVG/1.1/DTD/svg11.dtd">
<!-- Generated by graphviz version 2.49.3 (20211027.1534)
 -->
<!-- Title: iop/fs/bdm/include/bdm.h Pages: 1 -->
<svg width="2000pt" height="240pt"
 viewBox="0.00 0.00 1999.50 240.00" xmlns="http://www.w3.org/2000/svg" xmlns:xlink="http://www.w3.org/1999/xlink">
<g id="graph0" class="graph" transform="scale(1 1) rotate(0) translate(4 236)">
<title>iop/fs/bdm/include/bdm.h</title>
<polygon fill="white" stroke="transparent" points="-4,4 -4,-236 1995.5,-236 1995.5,4 -4,4"/>
<!-- Node1 -->
<g id="node1" class="node">
<title>Node1</title>
<g id="a_node1"><a xlink:title=" ">
<polygon fill="#bfbfbf" stroke="black" points="848,-201.5 848,-231.5 944,-231.5 944,-201.5 848,-201.5"/>
<text text-anchor="start" x="856" y="-219.5" font-family="Helvetica,sans-Serif" font-size="10.00">iop/fs/bdm/include</text>
<text text-anchor="middle" x="896" y="-208.5" font-family="Helvetica,sans-Serif" font-size="10.00">/bdm.h</text>
</a>
</g>
</g>
<!-- Node2 -->
<g id="node2" class="node">
<title>Node2</title>
<g id="a_node2"><a xlink:href="bdm_8c_source.html" target="_top" xlink:title=" ">
<polygon fill="white" stroke="black" points="0,-140 0,-159 108,-159 108,-140 0,-140"/>
<text text-anchor="middle" x="54" y="-147" font-family="Helvetica,sans-Serif" font-size="10.00">iop/fs/bdm/src/bdm.c</text>
</a>
</g>
</g>
<!-- Node1&#45;&gt;Node2 -->
<g id="edge1" class="edge">
<title>Node1&#45;&gt;Node2</title>
<path fill="none" stroke="midnightblue" d="M837.72,-214.93C707.69,-212.96 384.32,-204.17 117,-165 107.01,-163.54 96.25,-161.31 86.51,-159.04"/>
<polygon fill="midnightblue" stroke="midnightblue" points="837.8,-218.43 847.85,-215.08 837.9,-211.43 837.8,-218.43"/>
</g>
<!-- Node3 -->
<g id="node3" class="node">
<title>Node3</title>
<g id="a_node3"><a xlink:href="iop_2fs_2bdm_2src_2irx__imports_8h_source.html" target="_top" xlink:title=" ">
<polygon fill="white" stroke="black" points="126,-134.5 126,-164.5 218,-164.5 218,-134.5 126,-134.5"/>
<text text-anchor="start" x="134" y="-152.5" font-family="Helvetica,sans-Serif" font-size="10.00">iop/fs/bdm/src/irx</text>
<text text-anchor="middle" x="172" y="-141.5" font-family="Helvetica,sans-Serif" font-size="10.00">_imports.h</text>
</a>
</g>
</g>
<!-- Node1&#45;&gt;Node3 -->
<g id="edge2" class="edge">
<title>Node1&#45;&gt;Node3</title>
<path fill="none" stroke="midnightblue" d="M837.63,-214.66C720.87,-212.21 450.56,-202.58 227,-165 224.08,-164.51 221.09,-163.93 218.08,-163.3"/>
<polygon fill="midnightblue" stroke="midnightblue" points="837.71,-218.17 847.78,-214.87 837.85,-211.17 837.71,-218.17"/>
</g>
<!-- Node4 -->
<g id="node4" class="node">
<title>Node4</title>
<g id="a_node4"><a xlink:href="iop_2fs_2bdm_2src_2main_8c_source.html" target="_top" xlink:title=" ">
<polygon fill="white" stroke="black" points="236,-140 236,-159 346,-159 346,-140 236,-140"/>
<text text-anchor="middle" x="291" y="-147" font-family="Helvetica,sans-Serif" font-size="10.00">iop/fs/bdm/src/main.c</text>
</a>
</g>
</g>
<!-- Node1&#45;&gt;Node4 -->
<g id="edge3" class="edge">
<title>Node1&#45;&gt;Node4</title>
<path fill="none" stroke="midnightblue" d="M837.84,-212.55C738.4,-206.96 529.55,-192.8 355,-165 345.1,-163.42 334.44,-161.22 324.72,-159"/>
<polygon fill="midnightblue" stroke="midnightblue" points="837.8,-216.05 847.97,-213.11 838.18,-209.07 837.8,-216.05"/>
</g>
<!-- Node5 -->
<g id="node5" class="node">
<title>Node5</title>
<g id="a_node5"><a xlink:href="fs_2bdm_2src_2part__driver_8c_source.html" target="_top" xlink:title=" ">
<polygon fill="white" stroke="black" points="364,-134.5 364,-164.5 462,-164.5 462,-134.5 364,-134.5"/>
<text text-anchor="start" x="372" y="-152.5" font-family="Helvetica,sans-Serif" font-size="10.00">iop/fs/bdm/src/part</text>
<text text-anchor="middle" x="413" y="-141.5" font-family="Helvetica,sans-Serif" font-size="10.00">_driver.c</text>
</a>
</g>
</g>
<!-- Node1&#45;&gt;Node5 -->
<g id="edge4" class="edge">
<title>Node1&#45;&gt;Node5</title>
<path fill="none" stroke="midnightblue" d="M837.85,-210.48C756.52,-203.02 604.35,-187.42 476,-165 471.47,-164.21 466.77,-163.3 462.08,-162.33"/>
<polygon fill="midnightblue" stroke="midnightblue" points="837.61,-213.98 847.89,-211.4 838.24,-207.01 837.61,-213.98"/>
</g>
<!-- Node6 -->
<g id="node6" class="node">
<title>Node6</title>
<g id="a_node6"><a xlink:href="diskio_8c_source.html" target="_top" xlink:title=" ">
<polygon fill="white" stroke="black" points="434.5,-67.5 434.5,-97.5 529.5,-97.5 529.5,-67.5 434.5,-67.5"/>
<text text-anchor="start" x="442.5" y="-85.5" font-family="Helvetica,sans-Serif" font-size="10.00">iop/fs/bdmfs_fatfs</text>
<text text-anchor="middle" x="482" y="-74.5" font-family="Helvetica,sans-Serif" font-size="10.00">/src/diskio.c</text>
</a>
</g>
</g>
<!-- Node1&#45;&gt;Node6 -->
<g id="edge5" class="edge">
<title>Node1&#45;&gt;Node6</title>
<path fill="none" stroke="midnightblue" d="M837.69,-213C749.17,-208.28 585.97,-195.6 537,-165 511.52,-149.08 495.08,-116.53 487.29,-97.74"/>
<polygon fill="midnightblue" stroke="midnightblue" points="837.68,-216.51 847.84,-213.53 838.04,-209.52 837.68,-216.51"/>
</g>
<!-- Node7 -->
<g id="node7" class="node">
<title>Node7</title>
<g id="a_node7"><a xlink:href="fs_2bdmfs__fatfs_2src_2fs__driver_8c_source.html" target="_top" xlink:title=" ">
<polygon fill="white" stroke="black" points="547.5,-67.5 547.5,-97.5 642.5,-97.5 642.5,-67.5 547.5,-67.5"/>
<text text-anchor="start" x="555.5" y="-85.5" font-family="Helvetica,sans-Serif" font-size="10.00">iop/fs/bdmfs_fatfs</text>
<text text-anchor="middle" x="595" y="-74.5" font-family="Helvetica,sans-Serif" font-size="10.00">/src/fs_driver.c</text>
</a>
</g>
</g>
<!-- Node1&#45;&gt;Node7 -->
<g id="edge6" class="edge">
<title>Node1&#45;&gt;Node7</title>
<path fill="none" stroke="midnightblue" d="M837.41,-215.87C747.97,-215.04 583.86,-207.58 547,-165 528.73,-143.89 555.89,-114.88 576.2,-97.77"/>
<polygon fill="midnightblue" stroke="midnightblue" points="837.64,-219.37 847.67,-215.94 837.69,-212.37 837.64,-219.37"/>
</g>
<!-- Node8 -->
<g id="node8" class="node">
<title>Node8</title>
<g id="a_node8"><a xlink:href="fs__driver_8h_source.html" target="_top" xlink:title=" ">
<polygon fill="white" stroke="black" points="556.5,-134.5 556.5,-164.5 671.5,-164.5 671.5,-134.5 556.5,-134.5"/>
<text text-anchor="start" x="564.5" y="-152.5" font-family="Helvetica,sans-Serif" font-size="10.00">iop/fs/bdmfs_fatfs</text>
<text text-anchor="middle" x="614" y="-141.5" font-family="Helvetica,sans-Serif" font-size="10.00">/src/include/fs_driver.h</text>
</a>
</g>
</g>
<!-- Node1&#45;&gt;Node8 -->
<g id="edge7" class="edge">
<title>Node1&#45;&gt;Node8</title>
<path fill="none" stroke="midnightblue" d="M838.09,-202.15C789.45,-190.94 720.29,-175 671.7,-163.8"/>
<polygon fill="midnightblue" stroke="midnightblue" points="837.31,-205.56 847.84,-204.4 838.88,-198.74 837.31,-205.56"/>
</g>
<!-- Node9 -->
<g id="node9" class="node">
<title>Node9</title>
<g id="a_node9"><a xlink:href="iop_2fs_2bdmfs__fatfs_2src_2main_8c_source.html" target="_top" xlink:title=" ">
<polygon fill="white" stroke="black" points="660.5,-67.5 660.5,-97.5 755.5,-97.5 755.5,-67.5 660.5,-67.5"/>
<text text-anchor="start" x="668.5" y="-85.5" font-family="Helvetica,sans-Serif" font-size="10.00">iop/fs/bdmfs_fatfs</text>
<text text-anchor="middle" x="708" y="-74.5" font-family="Helvetica,sans-Serif" font-size="10.00">/src/main.c</text>
</a>
</g>
</g>
<!-- Node1&#45;&gt;Node9 -->
<g id="edge12" class="edge">
<title>Node1&#45;&gt;Node9</title>
<path fill="none" stroke="midnightblue" d="M837.8,-214.61C798.35,-210.73 748.24,-198.78 719,-165 702.83,-146.32 703.49,-115.67 705.62,-97.76"/>
<polygon fill="midnightblue" stroke="midnightblue" points="837.58,-218.1 847.84,-215.45 838.17,-211.13 837.58,-218.1"/>
</g>
<!-- Node10 -->
<g id="node10" class="node">
<title>Node10</title>
<g id="a_node10"><a xlink:href="iop_2fs_2bdmfs__fatfs_2src_2irx__imports_8h_source.html" target="_top" xlink:title=" ">
<polygon fill="white" stroke="black" points="728.5,-134.5 728.5,-164.5 823.5,-164.5 823.5,-134.5 728.5,-134.5"/>
<text text-anchor="start" x="736.5" y="-152.5" font-family="Helvetica,sans-Serif" font-size="10.00">iop/fs/bdmfs_fatfs</text>
<text text-anchor="middle" x="776" y="-141.5" font-family="Helvetica,sans-Serif" font-size="10.00">/src/irx_imports.h</text>
</a>
</g>
</g>
<!-- Node1&#45;&gt;Node10 -->
<g id="edge11" class="edge">
<title>Node1&#45;&gt;Node10</title>
<path fill="none" stroke="midnightblue" d="M861.06,-196.57C842.18,-186.35 819.27,-173.94 801.99,-164.58"/>
<polygon fill="midnightblue" stroke="midnightblue" points="859.5,-199.71 869.96,-201.4 862.84,-193.56 859.5,-199.71"/>
</g>
<!-- Node11 -->
<g id="node11" class="node">
<title>Node11</title>
<g id="a_node11"><a xlink:href="fs_2bdmfs__vfat_2src_2include_2fat__driver_8h_source.html" target="_top" xlink:title=" ">
<polygon fill="white" stroke="black" points="882.5,-67.5 882.5,-97.5 991.5,-97.5 991.5,-67.5 882.5,-67.5"/>
<text text-anchor="start" x="890.5" y="-85.5" font-family="Helvetica,sans-Serif" font-size="10.00">iop/fs/bdmfs_vfat/src</text>
<text text-anchor="middle" x="937" y="-74.5" font-family="Helvetica,sans-Serif" font-size="10.00">/include/fat_driver.h</text>
</a>
</g>
</g>
<!-- Node1&#45;&gt;Node11 -->
<g id="edge13" class="edge">
<title>Node1&#45;&gt;Node11</title>
<path fill="none" stroke="midnightblue" d="M932.12,-195.8C943.15,-187.81 953.95,-177.48 960,-165 970.84,-142.64 957.34,-114.29 946.92,-97.59"/>
<polygon fill="midnightblue" stroke="midnightblue" points="930.07,-192.97 923.72,-201.46 933.98,-198.78 930.07,-192.97"/>
</g>
<!-- Node13 -->
<g id="node13" class="node">
<title>Node13</title>
<g id="a_node13"><a xlink:href="fs_2bdmfs__vfat_2src_2include_2scache_8h_source.html" target="_top" xlink:title=" ">
<polygon fill="white" stroke="black" points="841.5,-134.5 841.5,-164.5 950.5,-164.5 950.5,-134.5 841.5,-134.5"/>
<text text-anchor="start" x="849.5" y="-152.5" font-family="Helvetica,sans-Serif" font-size="10.00">iop/fs/bdmfs_vfat/src</text>
<text text-anchor="middle" x="896" y="-141.5" font-family="Helvetica,sans-Serif" font-size="10.00">/include/scache.h</text>
</a>
</g>
</g>
<!-- Node1&#45;&gt;Node13 -->
<g id="edge15" class="edge">
<title>Node1&#45;&gt;Node13</title>
<path fill="none" stroke="midnightblue" d="M896,-191.11C896,-182.15 896,-172.32 896,-164.58"/>
<polygon fill="midnightblue" stroke="midnightblue" points="892.5,-191.4 896,-201.4 899.5,-191.4 892.5,-191.4"/>
</g>
<!-- Node14 -->
<g id="node14" class="node">
<title>Node14</title>
<g id="a_node14"><a xlink:href="iop_2fs_2bdmfs__vfat_2src_2irx__imports_8h_source.html" target="_top" xlink:title=" ">
<polygon fill="white" stroke="black" points="1007.5,-134.5 1007.5,-164.5 1116.5,-164.5 1116.5,-134.5 1007.5,-134.5"/>
<text text-anchor="start" x="1015.5" y="-152.5" font-family="Helvetica,sans-Serif" font-size="10.00">iop/fs/bdmfs_vfat/src</text>
<text text-anchor="middle" x="1062" y="-141.5" font-family="Helvetica,sans-Serif" font-size="10.00">/irx_imports.h</text>
</a>
</g>
</g>
<!-- Node1&#45;&gt;Node14 -->
<g id="edge17" class="edge">
<title>Node1&#45;&gt;Node14</title>
<path fill="none" stroke="midnightblue" d="M941.51,-197.68C968.13,-187.26 1001.27,-174.28 1026.05,-164.58"/>
<polygon fill="midnightblue" stroke="midnightblue" points="940.05,-194.49 932.02,-201.4 942.61,-201.01 940.05,-194.49"/>
</g>
<!-- Node15 -->
<g id="node15" class="node">
<title>Node15</title>
<g id="a_node15"><a xlink:href="iop_2fs_2bdmfs__vfat_2src_2main_8c_source.html" target="_top" xlink:title=" ">
<polygon fill="white" stroke="black" points="1134.5,-134.5 1134.5,-164.5 1243.5,-164.5 1243.5,-134.5 1134.5,-134.5"/>
<text text-anchor="start" x="1142.5" y="-152.5" font-family="Helvetica,sans-Serif" font-size="10.00">iop/fs/bdmfs_vfat/src</text>
<text text-anchor="middle" x="1189" y="-141.5" font-family="Helvetica,sans-Serif" font-size="10.00">/main.c</text>
</a>
</g>
</g>
<!-- Node1&#45;&gt;Node15 -->
<g id="edge18" class="edge">
<title>Node1&#45;&gt;Node15</title>
<path fill="none" stroke="midnightblue" d="M953.95,-202.95C1000.48,-192.82 1067.47,-178.16 1126,-165 1128.74,-164.38 1131.54,-163.75 1134.37,-163.11"/>
<polygon fill="midnightblue" stroke="midnightblue" points="953.08,-199.55 944.05,-205.1 954.56,-206.39 953.08,-199.55"/>
</g>
<!-- Node16 -->
<g id="node16" class="node">
<title>Node16</title>
<g id="a_node16"><a xlink:href="iop_2i_link_2_i_e_e_e1394__bd_2src_2irx__imports_8h_source.html" target="_top" xlink:title=" ">
<polygon fill="white" stroke="black" points="1261.5,-134.5 1261.5,-164.5 1368.5,-164.5 1368.5,-134.5 1261.5,-134.5"/>
<text text-anchor="start" x="1269.5" y="-152.5" font-family="Helvetica,sans-Serif" font-size="10.00">iop/iLink/IEEE1394</text>
<text text-anchor="middle" x="1315" y="-141.5" font-family="Helvetica,sans-Serif" font-size="10.00">_bd/src/irx_imports.h</text>
</a>
</g>
</g>
<!-- Node1&#45;&gt;Node16 -->
<g id="edge19" class="edge">
<title>Node1&#45;&gt;Node16</title>
<path fill="none" stroke="midnightblue" d="M954.22,-208.88C1025.1,-200.46 1148.32,-184.6 1253,-165 1255.72,-164.49 1258.49,-163.94 1261.29,-163.37"/>
<polygon fill="midnightblue" stroke="midnightblue" points="953.67,-205.42 944.15,-210.07 954.49,-212.38 953.67,-205.42"/>
</g>
<!-- Node17 -->
<g id="node17" class="node">
<title>Node17</title>
<g id="a_node17"><a xlink:href="i_link_2_i_e_e_e1394__bd_2src_2scsi_8c_source.html" target="_top" xlink:title=" ">
<polygon fill="white" stroke="black" points="1386,-134.5 1386,-164.5 1484,-164.5 1484,-134.5 1386,-134.5"/>
<text text-anchor="start" x="1394" y="-152.5" font-family="Helvetica,sans-Serif" font-size="10.00">iop/iLink/IEEE1394</text>
<text text-anchor="middle" x="1435" y="-141.5" font-family="Helvetica,sans-Serif" font-size="10.00">_bd/src/scsi.c</text>
</a>
</g>
</g>
<!-- Node1&#45;&gt;Node17 -->
<g id="edge20" class="edge">
<title>Node1&#45;&gt;Node17</title>
<path fill="none" stroke="midnightblue" d="M954.33,-212.12C1045.35,-206.24 1226.47,-192.07 1378,-165 1380.61,-164.53 1383.28,-164.01 1385.97,-163.45"/>
<polygon fill="midnightblue" stroke="midnightblue" points="953.97,-208.64 944.21,-212.77 954.41,-215.62 953.97,-208.64"/>
</g>
<!-- Node18 -->
<g id="node18" class="node">
<title>Node18</title>
<g id="a_node18"><a xlink:href="iop_2sio_2mx4sio__bd_2src_2irx__imports_8h_source.html" target="_top" xlink:title=" ">
<polygon fill="white" stroke="black" points="1501.5,-134.5 1501.5,-164.5 1612.5,-164.5 1612.5,-134.5 1501.5,-134.5"/>
<text text-anchor="start" x="1509.5" y="-152.5" font-family="Helvetica,sans-Serif" font-size="10.00">iop/sio/mx4sio_bd/src</text>
<text text-anchor="middle" x="1557" y="-141.5" font-family="Helvetica,sans-Serif" font-size="10.00">/irx_imports.h</text>
</a>
</g>
</g>
<!-- Node1&#45;&gt;Node18 -->
<g id="edge21" class="edge">
<title>Node1&#45;&gt;Node18</title>
<path fill="none" stroke="midnightblue" d="M954.53,-213.24C1061.84,-208.5 1297.03,-195.34 1493,-165 1495.7,-164.58 1498.46,-164.11 1501.24,-163.61"/>
<polygon fill="midnightblue" stroke="midnightblue" points="954.09,-209.75 944.25,-213.68 954.39,-216.75 954.09,-209.75"/>
</g>
<!-- Node19 -->
<g id="node19" class="node">
<title>Node19</title>
<g id="a_node19"><a xlink:href="mx4sio_8c_source.html" target="_top" xlink:title=" ">
<polygon fill="white" stroke="black" points="1630.5,-134.5 1630.5,-164.5 1741.5,-164.5 1741.5,-134.5 1630.5,-134.5"/>
<text text-anchor="start" x="1638.5" y="-152.5" font-family="Helvetica,sans-Serif" font-size="10.00">iop/sio/mx4sio_bd/src</text>
<text text-anchor="middle" x="1686" y="-141.5" font-family="Helvetica,sans-Serif" font-size="10.00">/mx4sio.c</text>
</a>
</g>
</g>
<!-- Node1&#45;&gt;Node19 -->
<g id="edge22" class="edge">
<title>Node1&#45;&gt;Node19</title>
<path fill="none" stroke="midnightblue" d="M954.28,-214.47C1077.95,-211.63 1375.49,-201.28 1622,-165 1624.71,-164.6 1627.47,-164.15 1630.25,-163.66"/>
<polygon fill="midnightblue" stroke="midnightblue" points="954.19,-210.97 944.27,-214.7 954.35,-217.97 954.19,-210.97"/>
</g>
<!-- Node20 -->
<g id="node20" class="node">
<title>Node20</title>
<g id="a_node20"><a xlink:href="iop_2usb_2usbmass__bd_2src_2irx__imports_8h_source.html" target="_top" xlink:title=" ">
<polygon fill="white" stroke="black" points="1759.5,-134.5 1759.5,-164.5 1866.5,-164.5 1866.5,-134.5 1759.5,-134.5"/>
<text text-anchor="start" x="1767.5" y="-152.5" font-family="Helvetica,sans-Serif" font-size="10.00">iop/usb/usbmass_bd</text>
<text text-anchor="middle" x="1813" y="-141.5" font-family="Helvetica,sans-Serif" font-size="10.00">/src/irx_imports.h</text>
</a>
</g>
</g>
<!-- Node1&#45;&gt;Node20 -->
<g id="edge23" class="edge">
<title>Node1&#45;&gt;Node20</title>
<path fill="none" stroke="midnightblue" d="M954.43,-215.48C1093.3,-214.67 1453.78,-208.21 1751,-165 1753.73,-164.6 1756.53,-164.14 1759.34,-163.64"/>
<polygon fill="midnightblue" stroke="midnightblue" points="954.01,-211.98 944.03,-215.53 954.05,-218.98 954.01,-211.98"/>
</g>
<!-- Node21 -->
<g id="node21" class="node">
<title>Node21</title>
<g id="a_node21"><a xlink:href="usb_2usbmass__bd_2src_2scsi_8c_source.html" target="_top" xlink:title=" ">
<polygon fill="white" stroke="black" points="1884.5,-134.5 1884.5,-164.5 1991.5,-164.5 1991.5,-134.5 1884.5,-134.5"/>
<text text-anchor="start" x="1892.5" y="-152.5" font-family="Helvetica,sans-Serif" font-size="10.00">iop/usb/usbmass_bd</text>
<text text-anchor="middle" x="1938" y="-141.5" font-family="Helvetica,sans-Serif" font-size="10.00">/src/scsi.c</text>
</a>
</g>
</g>
<!-- Node1&#45;&gt;Node21 -->
<g id="edge24" class="edge">
<title>Node1&#45;&gt;Node21</title>
<path fill="none" stroke="midnightblue" d="M954.29,-216.1C1106.63,-216.91 1528.9,-214.13 1876,-165 1878.74,-164.61 1881.53,-164.16 1884.34,-163.67"/>
<polygon fill="midnightblue" stroke="midnightblue" points="954.24,-212.6 944.22,-216.04 954.2,-219.6 954.24,-212.6"/>
</g>
<!-- Node8&#45;&gt;Node6 -->
<g id="edge8" class="edge">
<title>Node8&#45;&gt;Node6</title>
<path fill="none" stroke="midnightblue" d="M576.13,-129.85C555.26,-119.58 529.77,-107.03 510.59,-97.58"/>
<polygon fill="midnightblue" stroke="midnightblue" points="574.84,-133.12 585.36,-134.4 577.93,-126.84 574.84,-133.12"/>
</g>
<!-- Node8&#45;&gt;Node7 -->
<g id="edge9" class="edge">
<title>Node8&#45;&gt;Node7</title>
<path fill="none" stroke="midnightblue" d="M607.04,-124.7C604.38,-115.59 601.43,-105.49 599.11,-97.58"/>
<polygon fill="midnightblue" stroke="midnightblue" points="603.71,-125.78 609.88,-134.4 610.43,-123.82 603.71,-125.78"/>
</g>
<!-- Node8&#45;&gt;Node9 -->
<g id="edge10" class="edge">
<title>Node8&#45;&gt;Node9</title>
<path fill="none" stroke="midnightblue" d="M642.99,-128.45C657.45,-118.45 674.59,-106.6 687.64,-97.58"/>
<polygon fill="midnightblue" stroke="midnightblue" points="640.63,-125.83 634.4,-134.4 644.61,-131.59 640.63,-125.83"/>
</g>
<!-- Node12 -->
<g id="node12" class="node">
<title>Node12</title>
<g id="a_node12"><a xlink:href="fs_2bdmfs__vfat_2src_2include_2fat_8h_source.html" target="_top" xlink:title=" ">
<polygon fill="white" stroke="black" points="882.5,-0.5 882.5,-30.5 991.5,-30.5 991.5,-0.5 882.5,-0.5"/>
<text text-anchor="start" x="890.5" y="-18.5" font-family="Helvetica,sans-Serif" font-size="10.00">iop/fs/bdmfs_vfat/src</text>
<text text-anchor="middle" x="937" y="-7.5" font-family="Helvetica,sans-Serif" font-size="10.00">/include/fat.h</text>
</a>
</g>
</g>
<!-- Node11&#45;&gt;Node12 -->
<g id="edge14" class="edge">
<title>Node11&#45;&gt;Node12</title>
<path fill="none" stroke="midnightblue" d="M937,-57.11C937,-48.15 937,-38.32 937,-30.58"/>
<polygon fill="midnightblue" stroke="midnightblue" points="933.5,-57.4 937,-67.4 940.5,-57.4 933.5,-57.4"/>
</g>
<!-- Node13&#45;&gt;Node11 -->
<g id="edge16" class="edge">
<title>Node13&#45;&gt;Node11</title>
<path fill="none" stroke="midnightblue" d="M910.28,-125.87C916.21,-116.46 922.91,-105.83 928.12,-97.58"/>
<polygon fill="midnightblue" stroke="midnightblue" points="907.27,-124.07 904.9,-134.4 913.19,-127.81 907.27,-124.07"/>
</g>
</g>
</svg>
