<?xml version="1.0" encoding="UTF-8" standalone="no"?>
<!DOCTYPE svg PUBLIC "-//W3C//DTD SVG 1.1//EN"
 "http://www.w3.org/Graphics/SVG/1.1/DTD/svg11.dtd">
<!-- Generated by graphviz version 2.49.3 (20211027.1534)
 -->
<!-- Title: iop/fs Pages: 1 -->
<!--zoomable 319 -->
<svg id="main" version="1.1" xmlns="http://www.w3.org/2000/svg" xmlns:xlink="http://www.w3.org/1999/xlink" xml:space="preserve" onload="init(evt)">
<style type="text/css"><![CDATA[
.edge:hover path { stroke: red; }
.edge:hover polygon { stroke: red; fill: red; }
]]></style>
<script type="text/javascript"><![CDATA[
var edges = document.getElementsByTagName('g');
if (edges && edges.length) {
  for (var i=0;i<edges.length;i++) {
    if (edges[i].id.substr(0,4)=='edge') {
      edges[i].setAttribute('class','edge');
    }
  }
}
]]></script>
        <defs>
                <circle id="rim" cx="0" cy="0" r="7"/>
                <circle id="rim2" cx="0" cy="0" r="3.5"/>
                <g id="zoomPlus">
                        <use xlink:href="#rim" fill="#404040">
                                <set attributeName="fill" to="#808080" begin="zoomplus.mouseover" end="zoomplus.mouseout"/>
                        </use>
                        <path d="M-4,0h8M0,-4v8" fill="none" stroke="white" stroke-width="1.5" pointer-events="none"/>
                </g>
                <g id="zoomMin">
                        <use xlink:href="#rim" fill="#404040">
                                <set attributeName="fill" to="#808080" begin="zoomminus.mouseover" end="zoomminus.mouseout"/>
                        </use>
                        <path d="M-4,0h8" fill="none" stroke="white" stroke-width="1.5" pointer-events="none"/>
                </g>
                <g id="dirArrow">
                        <path fill="none" stroke="white" stroke-width="1.5" d="M0,-3.0v7 M-2.5,-0.5L0,-3.0L2.5,-0.5"/>
                </g>
               <g id="resetDef">
                       <use xlink:href="#rim2" fill="#404040">
                               <set attributeName="fill" to="#808080" begin="reset.mouseover" end="reset.mouseout"/>
                       </use>
               </g>
        </defs>

<script type="text/javascript">
var viewWidth = 694;
var viewHeight = 319;
var sectionId = 'dynsection-0';
</script>
<script xlink:href="svgpan.js"/>
<svg id="graph" class="graph">
<g id="viewport">
<title>iop/fs</title>
<polygon fill="white" stroke="transparent" points="-4,4 -4,-315 690,-315 690,4 -4,4"/>
<g id="clust1" class="cluster">
<title>clusterdir_0981ace215aa2029f526b70c145b9fbe</title>
<g id="a_clust1"><a xlink:href="dir_0981ace215aa2029f526b70c145b9fbe.html" target="_top" xlink:title="iop">
<polygon fill="#ddddee" stroke="black" points="8,-8 8,-303 624,-303 624,-8 8,-8"/>
<text text-anchor="middle" x="316" y="-291" font-family="Helvetica,sans-Serif" font-size="10.00">iop</text>
</a>
</g>
</g>
<g id="clust2" class="cluster">
<title>clusterdir_f24daea2522ffa8b6dc5fa9cdf5b8f5c</title>
<g id="a_clust2"><a xlink:href="dir_f24daea2522ffa8b6dc5fa9cdf5b8f5c.html" target="_top">
<polygon fill="#eeeeff" stroke="black" points="16,-152 16,-276 616,-276 616,-152 16,-152"/>
</a>
</g>
</g>
<!-- dir_9be0baa3d4a3e9f480a9ee70594037fa -->
<g id="node1" class="node">
<title>dir_9be0baa3d4a3e9f480a9ee70594037fa</title>
<g id="a_node1"><a xlink:href="dir_9be0baa3d4a3e9f480a9ee70594037fa.html" target="_top" xlink:title="kernel">
<polygon fill="white" stroke="red" points="366,-124 312,-124 312,-88 366,-88 366,-124"/>
<text text-anchor="middle" x="339" y="-103.5" font-family="Helvetica,sans-Serif" font-size="10.00">kernel</text>
</a>
</g>
</g>
<!-- dir_40ac35421bc63b72c26b6c69b1517fd6 -->
<g id="node2" class="node">
<title>dir_40ac35421bc63b72c26b6c69b1517fd6</title>
<g id="a_node2"><a xlink:href="dir_40ac35421bc63b72c26b6c69b1517fd6.html" target="_top" xlink:title="system">
<polygon fill="white" stroke="red" points="366,-52 312,-52 312,-16 366,-16 366,-52"/>
<text text-anchor="middle" x="339" y="-31.5" font-family="Helvetica,sans-Serif" font-size="10.00">system</text>
</a>
</g>
</g>
<!-- dir_9be0baa3d4a3e9f480a9ee70594037fa&#45;&gt;dir_40ac35421bc63b72c26b6c69b1517fd6 -->
<g id="edge8" class="edge">
<title>dir_9be0baa3d4a3e9f480a9ee70594037fa&#45;&gt;dir_40ac35421bc63b72c26b6c69b1517fd6</title>
<path fill="none" stroke="black" d="M333.08,-87.7C332.29,-79.98 332.06,-70.71 332.4,-62.11"/>
<polygon fill="black" stroke="black" points="335.9,-62.32 333.1,-52.1 328.92,-61.84 335.9,-62.32"/>
<g id="a_edge8&#45;headlabel"><a xlink:href="dir_000231_000106.html" target="_top" xlink:title="2">
<text text-anchor="middle" x="338.48" y="-63.61" font-family="Helvetica,sans-Serif" font-size="10.00">2</text>
</a>
</g>
</g>
<!-- dir_bdd9a5d540de89e9fe90efdfc6973a4f -->
<g id="node12" class="node">
<title>dir_bdd9a5d540de89e9fe90efdfc6973a4f</title>
<g id="a_node12"><a xlink:href="dir_bdd9a5d540de89e9fe90efdfc6973a4f.html" target="_top" xlink:title="common">
<polygon fill="white" stroke="red" points="686,-52 632,-52 632,-16 686,-16 686,-52"/>
<text text-anchor="middle" x="659" y="-31.5" font-family="Helvetica,sans-Serif" font-size="10.00">common</text>
</a>
</g>
</g>
<!-- dir_9be0baa3d4a3e9f480a9ee70594037fa&#45;&gt;dir_bdd9a5d540de89e9fe90efdfc6973a4f -->
<g id="edge9" class="edge">
<title>dir_9be0baa3d4a3e9f480a9ee70594037fa&#45;&gt;dir_bdd9a5d540de89e9fe90efdfc6973a4f</title>
<path fill="none" stroke="black" d="M366.46,-100.39C427.51,-90.92 571.9,-68.74 619,-52 620.2,-51.57 621.42,-51.1 622.63,-50.6"/>
<polygon fill="black" stroke="black" points="624.39,-53.64 631.98,-46.25 621.44,-47.29 624.39,-53.64"/>
<g id="a_edge9&#45;headlabel"><a xlink:href="dir_000231_000000.html" target="_top" xlink:title="12">
<text text-anchor="middle" x="622.32" y="-55.23" font-family="Helvetica,sans-Serif" font-size="10.00">12</text>
</a>
</g>
</g>
<!-- dir_40ac35421bc63b72c26b6c69b1517fd6&#45;&gt;dir_9be0baa3d4a3e9f480a9ee70594037fa -->
<g id="edge5" class="edge">
<title>dir_40ac35421bc63b72c26b6c69b1517fd6&#45;&gt;dir_9be0baa3d4a3e9f480a9ee70594037fa</title>
<path fill="none" stroke="black" d="M344.9,-52.1C345.7,-59.79 345.94,-69.05 345.6,-77.67"/>
<polygon fill="black" stroke="black" points="342.11,-77.48 344.92,-87.7 349.09,-77.96 342.11,-77.48"/>
<g id="a_edge5&#45;headlabel"><a xlink:href="dir_000106_000231.html" target="_top" xlink:title="176">
<text text-anchor="middle" x="339.52" y="-71.2" font-family="Helvetica,sans-Serif" font-size="10.00">176</text>
</a>
</g>
</g>
<!-- dir_40ac35421bc63b72c26b6c69b1517fd6&#45;&gt;dir_bdd9a5d540de89e9fe90efdfc6973a4f -->
<g id="edge6" class="edge">
<title>dir_40ac35421bc63b72c26b6c69b1517fd6&#45;&gt;dir_bdd9a5d540de89e9fe90efdfc6973a4f</title>
<path fill="none" stroke="black" d="M366.19,-34C451.36,-34 536.54,-34 621.72,-34"/>
<polygon fill="black" stroke="black" points="621.83,-37.5 631.83,-34 621.83,-30.5 621.83,-37.5"/>
<g id="a_edge6&#45;headlabel"><a xlink:href="dir_000106_000000.html" target="_top" xlink:title="3">
<text text-anchor="middle" x="618.24" y="-37.84" font-family="Helvetica,sans-Serif" font-size="10.00">3</text>
</a>
</g>
</g>
<!-- dir_f24daea2522ffa8b6dc5fa9cdf5b8f5c -->
<g id="node3" class="node">
<title>dir_f24daea2522ffa8b6dc5fa9cdf5b8f5c</title>
<text text-anchor="middle" x="581" y="-247.5" font-family="Helvetica,sans-Serif" font-size="10.00">fs</text>
</g>
<!-- dir_0134b0376fbe77322088b496fb368f9b -->
<g id="node4" class="node">
<title>dir_0134b0376fbe77322088b496fb368f9b</title>
<g id="a_node4"><a xlink:href="dir_0134b0376fbe77322088b496fb368f9b.html" target="_top" xlink:title="bdm">
<polygon fill="white" stroke="red" points="508,-196 454,-196 454,-160 508,-160 508,-196"/>
<text text-anchor="middle" x="481" y="-175.5" font-family="Helvetica,sans-Serif" font-size="10.00">bdm</text>
</a>
</g>
</g>
<!-- dir_0134b0376fbe77322088b496fb368f9b&#45;&gt;dir_9be0baa3d4a3e9f480a9ee70594037fa -->
<g id="edge1" class="edge">
<title>dir_0134b0376fbe77322088b496fb368f9b&#45;&gt;dir_9be0baa3d4a3e9f480a9ee70594037fa</title>
<path fill="none" stroke="black" d="M461.62,-159.95C457.9,-157.1 453.93,-154.31 450,-152 426.53,-138.19 398.03,-126.73 375.79,-118.84"/>
<polygon fill="black" stroke="black" points="376.64,-115.43 366.04,-115.46 374.35,-122.04 376.64,-115.43"/>
<g id="a_edge1&#45;headlabel"><a xlink:href="dir_000051_000231.html" target="_top" xlink:title="13">
<text text-anchor="middle" x="380.97" y="-111.42" font-family="Helvetica,sans-Serif" font-size="10.00">13</text>
</a>
</g>
</g>
<!-- dir_0134b0376fbe77322088b496fb368f9b&#45;&gt;dir_bdd9a5d540de89e9fe90efdfc6973a4f -->
<g id="edge2" class="edge">
<title>dir_0134b0376fbe77322088b496fb368f9b&#45;&gt;dir_bdd9a5d540de89e9fe90efdfc6973a4f</title>
<path fill="none" stroke="black" d="M485.44,-159.84C491.45,-139.92 504.02,-107.32 526,-88 559.64,-58.43 581.04,-69.74 622.32,-54.16"/>
<polygon fill="black" stroke="black" points="623.83,-57.32 631.74,-50.26 621.16,-50.85 623.83,-57.32"/>
<g id="a_edge2&#45;headlabel"><a xlink:href="dir_000051_000000.html" target="_top" xlink:title="1">
<text text-anchor="middle" x="621.59" y="-58.81" font-family="Helvetica,sans-Serif" font-size="10.00">1</text>
</a>
</g>
</g>
<!-- dir_ca4e6ad4571d2d160c85f86efebac72d -->
<g id="node5" class="node">
<title>dir_ca4e6ad4571d2d160c85f86efebac72d</title>
<g id="a_node5"><a xlink:href="dir_ca4e6ad4571d2d160c85f86efebac72d.html" target="_top" xlink:title="bdmfs_fatfs">
<polygon fill="white" stroke="red" points="536,-268 468,-268 468,-232 536,-232 536,-268"/>
<text text-anchor="middle" x="502" y="-247.5" font-family="Helvetica,sans-Serif" font-size="10.00">bdmfs_fatfs</text>
</a>
</g>
</g>
<!-- dir_ca4e6ad4571d2d160c85f86efebac72d&#45;&gt;dir_9be0baa3d4a3e9f480a9ee70594037fa -->
<g id="edge17" class="edge">
<title>dir_ca4e6ad4571d2d160c85f86efebac72d&#45;&gt;dir_9be0baa3d4a3e9f480a9ee70594037fa</title>
<path fill="none" stroke="black" d="M482.34,-231.87C453.46,-206.71 399.44,-159.65 366.6,-131.04"/>
<polygon fill="black" stroke="black" points="368.57,-128.12 358.73,-124.19 363.97,-133.4 368.57,-128.12"/>
<g id="a_edge17&#45;headlabel"><a xlink:href="dir_000053_000231.html" target="_top" xlink:title="21">
<text text-anchor="middle" x="373.15" y="-125.84" font-family="Helvetica,sans-Serif" font-size="10.00">21</text>
</a>
</g>
</g>
<!-- dir_ca4e6ad4571d2d160c85f86efebac72d&#45;&gt;dir_0134b0376fbe77322088b496fb368f9b -->
<g id="edge16" class="edge">
<title>dir_ca4e6ad4571d2d160c85f86efebac72d&#45;&gt;dir_0134b0376fbe77322088b496fb368f9b</title>
<path fill="none" stroke="black" d="M496.81,-231.7C494.47,-223.9 491.65,-214.51 489.05,-205.83"/>
<polygon fill="black" stroke="black" points="492.36,-204.68 486.13,-196.1 485.65,-206.69 492.36,-204.68"/>
<g id="a_edge16&#45;headlabel"><a xlink:href="dir_000053_000051.html" target="_top" xlink:title="5">
<text text-anchor="middle" x="496.11" y="-204.8" font-family="Helvetica,sans-Serif" font-size="10.00">5</text>
</a>
</g>
</g>
<!-- dir_ca4e6ad4571d2d160c85f86efebac72d&#45;&gt;dir_bdd9a5d540de89e9fe90efdfc6973a4f -->
<g id="edge18" class="edge">
<title>dir_ca4e6ad4571d2d160c85f86efebac72d&#45;&gt;dir_bdd9a5d540de89e9fe90efdfc6973a4f</title>
<path fill="none" stroke="black" d="M536.14,-235.42C574.69,-220.06 632.19,-197.02 633,-196 663.59,-157.65 664.68,-97.47 662.19,-62.57"/>
<polygon fill="black" stroke="black" points="665.64,-61.85 661.29,-52.19 658.67,-62.45 665.64,-61.85"/>
<g id="a_edge18&#45;headlabel"><a xlink:href="dir_000053_000000.html" target="_top" xlink:title="2">
<text text-anchor="middle" x="668.78" y="-62.68" font-family="Helvetica,sans-Serif" font-size="10.00">2</text>
</a>
</g>
</g>
<!-- dir_eabe988c95970cb88382a9440b1d86c2 -->
<g id="node6" class="node">
<title>dir_eabe988c95970cb88382a9440b1d86c2</title>
<g id="a_node6"><a xlink:href="dir_eabe988c95970cb88382a9440b1d86c2.html" target="_top" xlink:title="bdmfs_vfat">
<polygon fill="white" stroke="red" points="449.5,-268 384.5,-268 384.5,-232 449.5,-232 449.5,-268"/>
<text text-anchor="middle" x="417" y="-247.5" font-family="Helvetica,sans-Serif" font-size="10.00">bdmfs_vfat</text>
</a>
</g>
</g>
<!-- dir_eabe988c95970cb88382a9440b1d86c2&#45;&gt;dir_9be0baa3d4a3e9f480a9ee70594037fa -->
<g id="edge21" class="edge">
<title>dir_eabe988c95970cb88382a9440b1d86c2&#45;&gt;dir_9be0baa3d4a3e9f480a9ee70594037fa</title>
<path fill="none" stroke="black" d="M407.59,-231.87C394.12,-207.35 369.23,-162.03 353.42,-133.26"/>
<polygon fill="black" stroke="black" points="356.32,-131.27 348.44,-124.19 350.19,-134.64 356.32,-131.27"/>
<g id="a_edge21&#45;headlabel"><a xlink:href="dir_000055_000231.html" target="_top" xlink:title="29">
<text text-anchor="middle" x="360.54" y="-130.55" font-family="Helvetica,sans-Serif" font-size="10.00">29</text>
</a>
</g>
</g>
<!-- dir_eabe988c95970cb88382a9440b1d86c2&#45;&gt;dir_0134b0376fbe77322088b496fb368f9b -->
<g id="edge19" class="edge">
<title>dir_eabe988c95970cb88382a9440b1d86c2&#45;&gt;dir_0134b0376fbe77322088b496fb368f9b</title>
<path fill="none" stroke="black" d="M432.82,-231.7C440.57,-223.22 450.04,-212.86 458.52,-203.58"/>
<polygon fill="black" stroke="black" points="461.2,-205.85 465.36,-196.1 456.03,-201.12 461.2,-205.85"/>
<g id="a_edge19&#45;headlabel"><a xlink:href="dir_000055_000051.html" target="_top" xlink:title="4">
<text text-anchor="middle" x="460.87" y="-207.92" font-family="Helvetica,sans-Serif" font-size="10.00">4</text>
</a>
</g>
</g>
<!-- dir_eabe988c95970cb88382a9440b1d86c2&#45;&gt;dir_bdd9a5d540de89e9fe90efdfc6973a4f -->
<g id="edge20" class="edge">
<title>dir_eabe988c95970cb88382a9440b1d86c2&#45;&gt;dir_bdd9a5d540de89e9fe90efdfc6973a4f</title>
<path fill="none" stroke="black" d="M449.87,-235.25C452.94,-234.1 456.02,-233 459,-232 517.89,-212.31 547.47,-237.12 594,-196 633.61,-160.99 649.45,-98.4 655.5,-62.44"/>
<polygon fill="black" stroke="black" points="659.02,-62.61 657.08,-52.2 652.1,-61.55 659.02,-62.61"/>
<g id="a_edge20&#45;headlabel"><a xlink:href="dir_000055_000000.html" target="_top" xlink:title="5">
<text text-anchor="middle" x="661.28" y="-64.1" font-family="Helvetica,sans-Serif" font-size="10.00">5</text>
</a>
</g>
</g>
<!-- dir_a0342a6ef9487eda55789d2e07a75ee7 -->
<g id="node7" class="node">
<title>dir_a0342a6ef9487eda55789d2e07a75ee7</title>
<g id="a_node7"><a xlink:href="dir_a0342a6ef9487eda55789d2e07a75ee7.html" target="_top" xlink:title="devfs">
<polygon fill="white" stroke="red" points="78,-268 24,-268 24,-232 78,-232 78,-268"/>
<text text-anchor="middle" x="51" y="-247.5" font-family="Helvetica,sans-Serif" font-size="10.00">devfs</text>
</a>
</g>
</g>
<!-- dir_a0342a6ef9487eda55789d2e07a75ee7&#45;&gt;dir_9be0baa3d4a3e9f480a9ee70594037fa -->
<g id="edge10" class="edge">
<title>dir_a0342a6ef9487eda55789d2e07a75ee7&#45;&gt;dir_9be0baa3d4a3e9f480a9ee70594037fa</title>
<path fill="none" stroke="black" d="M69.54,-231.85C93.7,-210.34 138.09,-173.66 182,-152 220.78,-132.87 269.07,-120.56 301.78,-113.74"/>
<polygon fill="black" stroke="black" points="302.71,-117.12 311.82,-111.71 301.32,-110.26 302.71,-117.12"/>
<g id="a_edge10&#45;headlabel"><a xlink:href="dir_000057_000231.html" target="_top" xlink:title="18">
<text text-anchor="middle" x="299.74" y="-118.12" font-family="Helvetica,sans-Serif" font-size="10.00">18</text>
</a>
</g>
</g>
<!-- dir_6ec8af8771869123149626592b760e4b -->
<g id="node8" class="node">
<title>dir_6ec8af8771869123149626592b760e4b</title>
<g id="a_node8"><a xlink:href="dir_6ec8af8771869123149626592b760e4b.html" target="_top" xlink:title="fakehost">
<polygon fill="white" stroke="red" points="150,-268 96,-268 96,-232 150,-232 150,-268"/>
<text text-anchor="middle" x="123" y="-247.5" font-family="Helvetica,sans-Serif" font-size="10.00">fakehost</text>
</a>
</g>
</g>
<!-- dir_6ec8af8771869123149626592b760e4b&#45;&gt;dir_9be0baa3d4a3e9f480a9ee70594037fa -->
<g id="edge7" class="edge">
<title>dir_6ec8af8771869123149626592b760e4b&#45;&gt;dir_9be0baa3d4a3e9f480a9ee70594037fa</title>
<path fill="none" stroke="black" d="M141.85,-231.78C165,-211.17 206,-176.4 245,-152 263.12,-140.66 284.53,-130.21 302.34,-122.23"/>
<polygon fill="black" stroke="black" points="304.07,-125.3 311.82,-118.07 301.25,-118.89 304.07,-125.3"/>
<g id="a_edge7&#45;headlabel"><a xlink:href="dir_000059_000231.html" target="_top" xlink:title="22">
<text text-anchor="middle" x="301.92" y="-126.84" font-family="Helvetica,sans-Serif" font-size="10.00">22</text>
</a>
</g>
</g>
<!-- dir_3d3c25f590b74dfbd50a8b02c417c665 -->
<g id="node9" class="node">
<title>dir_3d3c25f590b74dfbd50a8b02c417c665</title>
<g id="a_node9"><a xlink:href="dir_3d3c25f590b74dfbd50a8b02c417c665.html" target="_top" xlink:title="filexio">
<polygon fill="white" stroke="red" points="366,-268 312,-268 312,-232 366,-232 366,-268"/>
<text text-anchor="middle" x="339" y="-247.5" font-family="Helvetica,sans-Serif" font-size="10.00">filexio</text>
</a>
</g>
</g>
<!-- dir_3d3c25f590b74dfbd50a8b02c417c665&#45;&gt;dir_9be0baa3d4a3e9f480a9ee70594037fa -->
<g id="edge3" class="edge">
<title>dir_3d3c25f590b74dfbd50a8b02c417c665&#45;&gt;dir_9be0baa3d4a3e9f480a9ee70594037fa</title>
<path fill="none" stroke="black" d="M339,-231.87C339,-207.67 339,-163.21 339,-134.39"/>
<polygon fill="black" stroke="black" points="342.5,-134.19 339,-124.19 335.5,-134.19 342.5,-134.19"/>
<g id="a_edge3&#45;headlabel"><a xlink:href="dir_000061_000231.html" target="_top" xlink:title="16">
<text text-anchor="middle" x="345.34" y="-135.28" font-family="Helvetica,sans-Serif" font-size="10.00">16</text>
</a>
</g>
</g>
<!-- dir_3d3c25f590b74dfbd50a8b02c417c665&#45;&gt;dir_bdd9a5d540de89e9fe90efdfc6973a4f -->
<g id="edge4" class="edge">
<title>dir_3d3c25f590b74dfbd50a8b02c417c665&#45;&gt;dir_bdd9a5d540de89e9fe90efdfc6973a4f</title>
<path fill="none" stroke="black" d="M366.2,-235.65C369.46,-234.31 372.77,-233.05 376,-232 452.74,-206.98 487.21,-241.32 554,-196 579.62,-178.62 623.26,-101.85 645.34,-60.92"/>
<polygon fill="black" stroke="black" points="648.45,-62.52 650.09,-52.05 642.28,-59.22 648.45,-62.52"/>
<g id="a_edge4&#45;headlabel"><a xlink:href="dir_000061_000000.html" target="_top" xlink:title="2">
<text text-anchor="middle" x="649.26" y="-64.53" font-family="Helvetica,sans-Serif" font-size="10.00">2</text>
</a>
</g>
</g>
<!-- dir_bb1a65baea34b53b4bbf06e6d3ddfe57 -->
<g id="node10" class="node">
<title>dir_bb1a65baea34b53b4bbf06e6d3ddfe57</title>
<g id="a_node10"><a xlink:href="dir_bb1a65baea34b53b4bbf06e6d3ddfe57.html" target="_top" xlink:title="http">
<polygon fill="white" stroke="red" points="222,-268 168,-268 168,-232 222,-232 222,-268"/>
<text text-anchor="middle" x="195" y="-247.5" font-family="Helvetica,sans-Serif" font-size="10.00">http</text>
</a>
</g>
</g>
<!-- dir_bb1a65baea34b53b4bbf06e6d3ddfe57&#45;&gt;dir_9be0baa3d4a3e9f480a9ee70594037fa -->
<g id="edge11" class="edge">
<title>dir_bb1a65baea34b53b4bbf06e6d3ddfe57&#45;&gt;dir_9be0baa3d4a3e9f480a9ee70594037fa</title>
<path fill="none" stroke="black" d="M212.37,-231.87C237.78,-206.82 285.2,-160.05 314.25,-131.41"/>
<polygon fill="black" stroke="black" points="316.91,-133.7 321.57,-124.19 311.99,-128.72 316.91,-133.7"/>
<g id="a_edge11&#45;headlabel"><a xlink:href="dir_000063_000231.html" target="_top" xlink:title="15">
<text text-anchor="middle" x="316.34" y="-135.75" font-family="Helvetica,sans-Serif" font-size="10.00">15</text>
</a>
</g>
</g>
<!-- dir_c49d6f7b24cb4247c18d467361672153 -->
<g id="node11" class="node">
<title>dir_c49d6f7b24cb4247c18d467361672153</title>
<g id="a_node11"><a xlink:href="dir_c49d6f7b24cb4247c18d467361672153.html" target="_top" xlink:title="netfs">
<polygon fill="white" stroke="red" points="294,-268 240,-268 240,-232 294,-232 294,-268"/>
<text text-anchor="middle" x="267" y="-247.5" font-family="Helvetica,sans-Serif" font-size="10.00">netfs</text>
</a>
</g>
</g>
<!-- dir_c49d6f7b24cb4247c18d467361672153&#45;&gt;dir_9be0baa3d4a3e9f480a9ee70594037fa -->
<g id="edge13" class="edge">
<title>dir_c49d6f7b24cb4247c18d467361672153&#45;&gt;dir_9be0baa3d4a3e9f480a9ee70594037fa</title>
<path fill="none" stroke="black" d="M278.65,-231.71C285.28,-221.52 293.53,-208.27 300,-196 310.82,-175.47 321.27,-151.32 328.62,-133.35"/>
<polygon fill="black" stroke="black" points="331.87,-134.65 332.37,-124.07 325.38,-132.03 331.87,-134.65"/>
<g id="a_edge13&#45;headlabel"><a xlink:href="dir_000065_000231.html" target="_top" xlink:title="32">
<text text-anchor="middle" x="333.16" y="-136.55" font-family="Helvetica,sans-Serif" font-size="10.00">32</text>
</a>
</g>
</g>
<!-- dir_c49d6f7b24cb4247c18d467361672153&#45;&gt;dir_40ac35421bc63b72c26b6c69b1517fd6 -->
<g id="edge14" class="edge">
<title>dir_c49d6f7b24cb4247c18d467361672153&#45;&gt;dir_40ac35421bc63b72c26b6c69b1517fd6</title>
<path fill="none" stroke="black" d="M268.69,-231.9C272.13,-201.76 281.51,-137.68 303,-88 307.13,-78.45 313.05,-68.81 318.89,-60.41"/>
<polygon fill="black" stroke="black" points="321.84,-62.32 324.88,-52.17 316.17,-58.2 321.84,-62.32"/>
<g id="a_edge14&#45;headlabel"><a xlink:href="dir_000065_000106.html" target="_top" xlink:title="3">
<text text-anchor="middle" x="322.02" y="-64.39" font-family="Helvetica,sans-Serif" font-size="10.00">3</text>
</a>
</g>
</g>
<!-- dir_c49d6f7b24cb4247c18d467361672153&#45;&gt;dir_bdd9a5d540de89e9fe90efdfc6973a4f -->
<g id="edge15" class="edge">
<title>dir_c49d6f7b24cb4247c18d467361672153&#45;&gt;dir_bdd9a5d540de89e9fe90efdfc6973a4f</title>
<path fill="none" stroke="black" d="M294.21,-235.21C297.13,-234.01 300.1,-232.91 303,-232 395.03,-203.14 433.5,-244.27 517,-196 520.37,-194.05 603.39,-90.88 606,-88 614.75,-78.37 624.75,-68.17 633.69,-59.33"/>
<polygon fill="black" stroke="black" points="636.21,-61.75 640.9,-52.25 631.31,-56.76 636.21,-61.75"/>
<g id="a_edge15&#45;headlabel"><a xlink:href="dir_000065_000000.html" target="_top" xlink:title="1">
<text text-anchor="middle" x="635.63" y="-63.8" font-family="Helvetica,sans-Serif" font-size="10.00">1</text>
</a>
</g>
</g>
<!-- dir_bdd9a5d540de89e9fe90efdfc6973a4f&#45;&gt;dir_9be0baa3d4a3e9f480a9ee70594037fa -->
<g id="edge12" class="edge">
<title>dir_bdd9a5d540de89e9fe90efdfc6973a4f&#45;&gt;dir_9be0baa3d4a3e9f480a9ee70594037fa</title>
<path fill="none" stroke="black" d="M636.71,-52.1C589.31,-68.83 445.43,-90.93 376.42,-100.38"/>
<polygon fill="black" stroke="black" points="375.85,-96.93 366.41,-101.74 376.79,-103.87 375.85,-96.93"/>
<g id="a_edge12&#45;headlabel"><a xlink:href="dir_000000_000231.html" target="_top" xlink:title="20">
<text text-anchor="middle" x="379.03" y="-91.13" font-family="Helvetica,sans-Serif" font-size="10.00">20</text>
</a>
</g>
</g>
</g>
</svg>
        <g id="navigator" transform="translate(0 0)" fill="#404254">
                <rect fill="#f2f5e9" fill-opacity="0.5" stroke="#606060" stroke-width=".5" x="0" y="0" width="60" height="60"/>
                <use id="zoomplus" xlink:href="#zoomPlus" x="17" y="9" onmousedown="handleZoom(evt,'in')"/>
                <use id="zoomminus" xlink:href="#zoomMin" x="42" y="9" onmousedown="handleZoom(evt,'out')"/>
                <use id="reset" xlink:href="#resetDef" x="30" y="36" onmousedown="handleReset()"/>
                <g id="arrowUp" xlink:href="#dirArrow" transform="translate(30 24)" onmousedown="handlePan(0,-1)">
                  <use xlink:href="#rim" fill="#404040">
                        <set attributeName="fill" to="#808080" begin="arrowUp.mouseover" end="arrowUp.mouseout"/>
                  </use>
                  <path fill="none" stroke="white" stroke-width="1.5" d="M0,-3.0v7 M-2.5,-0.5L0,-3.0L2.5,-0.5"/>
                </g>
                <g id="arrowRight" xlink:href="#dirArrow" transform="rotate(90) translate(36 -43)" onmousedown="handlePan(1,0)">
                  <use xlink:href="#rim" fill="#404040">
                        <set attributeName="fill" to="#808080" begin="arrowRight.mouseover" end="arrowRight.mouseout"/>
                  </use>
                  <path fill="none" stroke="white" stroke-width="1.5" d="M0,-3.0v7 M-2.5,-0.5L0,-3.0L2.5,-0.5"/>
                </g>
                <g id="arrowDown" xlink:href="#dirArrow" transform="rotate(180) translate(-30 -48)" onmousedown="handlePan(0,1)">
                  <use xlink:href="#rim" fill="#404040">
                        <set attributeName="fill" to="#808080" begin="arrowDown.mouseover" end="arrowDown.mouseout"/>
                  </use>
                  <path fill="none" stroke="white" stroke-width="1.5" d="M0,-3.0v7 M-2.5,-0.5L0,-3.0L2.5,-0.5"/>
                </g>
                <g id="arrowLeft" xlink:href="#dirArrow" transform="rotate(270) translate(-36 17)" onmousedown="handlePan(-1,0)">
                  <use xlink:href="#rim" fill="#404040">
                        <set attributeName="fill" to="#808080" begin="arrowLeft.mouseover" end="arrowLeft.mouseout"/>
                  </use>
                  <path fill="none" stroke="white" stroke-width="1.5" d="M0,-3.0v7 M-2.5,-0.5L0,-3.0L2.5,-0.5"/>
                </g>
        </g>
        <svg viewBox="0 0 15 15" width="100%" height="30px" preserveAspectRatio="xMaxYMin meet">
         <g id="arrow_out" transform="scale(0.3 0.3)">
          <a xlink:href="dir_f24daea2522ffa8b6dc5fa9cdf5b8f5c_dep_org.svg" target="_base">
           <rect id="button" ry="5" rx="5" y="6" x="6" height="38" width="38"
                fill="#f2f5e9" fill-opacity="0.5" stroke="#606060" stroke-width="1.0"/>
           <path id="arrow"
             d="M 11.500037,31.436501 C 11.940474,20.09759 22.043105,11.32322 32.158766,21.979434 L 37.068811,17.246167 C 37.068811,17.246167 37.088388,32 37.088388,32 L 22.160133,31.978069 C 22.160133,31.978069 26.997745,27.140456 26.997745,27.140456 C 18.528582,18.264221 13.291696,25.230495 11.500037,31.436501 z"
             style="fill:#404040;"/>
          </a>
         </g>
        </svg>
</svg>
