<?xml version="1.0" encoding="UTF-8" standalone="no"?>
<!DOCTYPE svg PUBLIC "-//W3C//DTD SVG 1.1//EN"
 "http://www.w3.org/Graphics/SVG/1.1/DTD/svg11.dtd">
<!-- Generated by graphviz version 2.49.3 (20211027.1534)
 -->
<!-- Title: ee/libc/src Pages: 1 -->
<svg width="174pt" height="367pt"
 viewBox="0.00 0.00 173.98 367.00" xmlns="http://www.w3.org/2000/svg" xmlns:xlink="http://www.w3.org/1999/xlink">
<g id="graph0" class="graph" transform="scale(1 1) rotate(0) translate(4 363)">
<title>ee/libc/src</title>
<polygon fill="white" stroke="transparent" points="-4,4 -4,-363 169.98,-363 169.98,4 -4,4"/>
<g id="clust1" class="cluster">
<title>clusterdir_4bdd3f0b1709457e1be42b8162664eee</title>
<g id="a_clust1"><a xlink:href="dir_4bdd3f0b1709457e1be42b8162664eee.html" target="_top" xlink:title="libc">
<polygon fill="#ddddee" stroke="black" points="8,-208 8,-351 78,-351 78,-208 8,-208"/>
<text text-anchor="middle" x="43" y="-339" font-family="Helvetica,sans-Serif" font-size="10.00">libc</text>
</a>
</g>
</g>
<!-- dir_39d6953f1eb69dcf4512295f197273ef -->
<g id="node1" class="node">
<title>dir_39d6953f1eb69dcf4512295f197273ef</title>
<g id="a_node1"><a xlink:href="dir_39d6953f1eb69dcf4512295f197273ef.html" target="_top" xlink:title="include">
<polygon fill="none" stroke="black" points="70,-252 16,-252 16,-216 70,-216 70,-252"/>
<text text-anchor="middle" x="43" y="-231.5" font-family="Helvetica,sans-Serif" font-size="10.00">include</text>
</a>
</g>
</g>
<!-- dir_694ec83a64f58cbdefbefce65cd1011c -->
<g id="node4" class="node">
<title>dir_694ec83a64f58cbdefbefce65cd1011c</title>
<g id="a_node4"><a xlink:href="dir_694ec83a64f58cbdefbefce65cd1011c.html" target="_top" xlink:title="kernel">
<polygon fill="white" stroke="red" points="90,-180 36,-180 36,-144 90,-144 90,-180"/>
<text text-anchor="middle" x="63" y="-159.5" font-family="Helvetica,sans-Serif" font-size="10.00">kernel</text>
</a>
</g>
</g>
<!-- dir_39d6953f1eb69dcf4512295f197273ef&#45;&gt;dir_694ec83a64f58cbdefbefce65cd1011c -->
<g id="edge2" class="edge">
<title>dir_39d6953f1eb69dcf4512295f197273ef&#45;&gt;dir_694ec83a64f58cbdefbefce65cd1011c</title>
<path fill="none" stroke="black" d="M47.94,-215.7C50.17,-207.9 52.85,-198.51 55.33,-189.83"/>
<polygon fill="black" stroke="black" points="58.73,-190.68 58.11,-180.1 52,-188.76 58.73,-190.68"/>
<g id="a_edge2&#45;headlabel"><a xlink:href="dir_000240_000173.html" target="_top" xlink:title="1">
<text text-anchor="middle" x="60.47" y="-192.42" font-family="Helvetica,sans-Serif" font-size="10.00">1</text>
</a>
</g>
</g>
<!-- dir_98e6ef8179a6a3884f43ad475401c7a7 -->
<g id="node2" class="node">
<title>dir_98e6ef8179a6a3884f43ad475401c7a7</title>
<g id="a_node2"><a xlink:href="dir_98e6ef8179a6a3884f43ad475401c7a7.html" target="_top" xlink:title="src">
<polygon fill="#eeeeff" stroke="black" points="70,-324 16,-324 16,-288 70,-288 70,-324"/>
<text text-anchor="middle" x="43" y="-303.5" font-family="Helvetica,sans-Serif" font-size="10.00">src</text>
</a>
</g>
</g>
<!-- dir_98e6ef8179a6a3884f43ad475401c7a7&#45;&gt;dir_39d6953f1eb69dcf4512295f197273ef -->
<g id="edge6" class="edge">
<title>dir_98e6ef8179a6a3884f43ad475401c7a7&#45;&gt;dir_39d6953f1eb69dcf4512295f197273ef</title>
<path fill="none" stroke="black" d="M43,-287.7C43,-279.98 43,-270.71 43,-262.11"/>
<polygon fill="black" stroke="black" points="46.5,-262.1 43,-252.1 39.5,-262.1 46.5,-262.1"/>
<g id="a_edge6&#45;headlabel"><a xlink:href="dir_000241_000240.html" target="_top" xlink:title="1">
<text text-anchor="middle" x="49.34" y="-263.2" font-family="Helvetica,sans-Serif" font-size="10.00">1</text>
</a>
</g>
</g>
<!-- dir_0981ace215aa2029f526b70c145b9fbe -->
<g id="node3" class="node">
<title>dir_0981ace215aa2029f526b70c145b9fbe</title>
<g id="a_node3"><a xlink:href="dir_0981ace215aa2029f526b70c145b9fbe.html" target="_top" xlink:title="iop">
<polygon fill="white" stroke="red" points="154,-108 100,-108 100,-72 154,-72 154,-108"/>
<text text-anchor="middle" x="127" y="-87.5" font-family="Helvetica,sans-Serif" font-size="10.00">iop</text>
</a>
</g>
</g>
<!-- dir_98e6ef8179a6a3884f43ad475401c7a7&#45;&gt;dir_0981ace215aa2029f526b70c145b9fbe -->
<g id="edge5" class="edge">
<title>dir_98e6ef8179a6a3884f43ad475401c7a7&#45;&gt;dir_0981ace215aa2029f526b70c145b9fbe</title>
<path fill="none" stroke="black" d="M64.33,-287.97C74.83,-278.47 86.75,-265.79 94,-252 116.67,-208.89 123.78,-151.69 126,-118.35"/>
<polygon fill="black" stroke="black" points="129.52,-118.2 126.58,-108.02 122.53,-117.81 129.52,-118.2"/>
<g id="a_edge5&#45;headlabel"><a xlink:href="dir_000241_000011.html" target="_top" xlink:title="7">
<text text-anchor="middle" x="132.15" y="-119.45" font-family="Helvetica,sans-Serif" font-size="10.00">7</text>
</a>
</g>
</g>
<!-- dir_98e6ef8179a6a3884f43ad475401c7a7&#45;&gt;dir_694ec83a64f58cbdefbefce65cd1011c -->
<g id="edge7" class="edge">
<title>dir_98e6ef8179a6a3884f43ad475401c7a7&#45;&gt;dir_694ec83a64f58cbdefbefce65cd1011c</title>
<path fill="none" stroke="black" d="M58.61,-287.77C66.37,-278.03 74.95,-265.18 79,-252 85.32,-231.46 80.3,-207.44 74.27,-189.53"/>
<polygon fill="black" stroke="black" points="77.51,-188.2 70.78,-180.02 70.94,-190.61 77.51,-188.2"/>
<g id="a_edge7&#45;headlabel"><a xlink:href="dir_000241_000173.html" target="_top" xlink:title="5">
<text text-anchor="middle" x="81.41" y="-188.1" font-family="Helvetica,sans-Serif" font-size="10.00">5</text>
</a>
</g>
</g>
<!-- dir_bdd9a5d540de89e9fe90efdfc6973a4f -->
<g id="node5" class="node">
<title>dir_bdd9a5d540de89e9fe90efdfc6973a4f</title>
<g id="a_node5"><a xlink:href="dir_bdd9a5d540de89e9fe90efdfc6973a4f.html" target="_top" xlink:title="common">
<polygon fill="white" stroke="red" points="154,-36 100,-36 100,0 154,0 154,-36"/>
<text text-anchor="middle" x="127" y="-15.5" font-family="Helvetica,sans-Serif" font-size="10.00">common</text>
</a>
</g>
</g>
<!-- dir_98e6ef8179a6a3884f43ad475401c7a7&#45;&gt;dir_bdd9a5d540de89e9fe90efdfc6973a4f -->
<g id="edge8" class="edge">
<title>dir_98e6ef8179a6a3884f43ad475401c7a7&#45;&gt;dir_bdd9a5d540de89e9fe90efdfc6973a4f</title>
<path fill="none" stroke="black" d="M70.29,-290.87C85.67,-281.67 104.11,-268.34 116,-252 155.62,-197.57 152.42,-174.49 163,-108 165.51,-92.2 167.7,-87.29 163,-72 159.99,-62.22 154.49,-52.62 148.68,-44.33"/>
<polygon fill="black" stroke="black" points="151.41,-42.13 142.61,-36.23 145.81,-46.33 151.41,-42.13"/>
<g id="a_edge8&#45;headlabel"><a xlink:href="dir_000241_000000.html" target="_top" xlink:title="5">
<text text-anchor="middle" x="155.83" y="-40.8" font-family="Helvetica,sans-Serif" font-size="10.00">5</text>
</a>
</g>
</g>
<!-- dir_0981ace215aa2029f526b70c145b9fbe&#45;&gt;dir_bdd9a5d540de89e9fe90efdfc6973a4f -->
<g id="edge1" class="edge">
<title>dir_0981ace215aa2029f526b70c145b9fbe&#45;&gt;dir_bdd9a5d540de89e9fe90efdfc6973a4f</title>
<path fill="none" stroke="black" d="M121.08,-71.7C120.29,-63.98 120.06,-54.71 120.4,-46.11"/>
<polygon fill="black" stroke="black" points="123.9,-46.32 121.1,-36.1 116.92,-45.84 123.9,-46.32"/>
<g id="a_edge1&#45;headlabel"><a xlink:href="dir_000011_000000.html" target="_top" xlink:title="174">
<text text-anchor="middle" x="126.48" y="-47.61" font-family="Helvetica,sans-Serif" font-size="10.00">174</text>
</a>
</g>
</g>
<!-- dir_694ec83a64f58cbdefbefce65cd1011c&#45;&gt;dir_0981ace215aa2029f526b70c145b9fbe -->
<g id="edge4" class="edge">
<title>dir_694ec83a64f58cbdefbefce65cd1011c&#45;&gt;dir_0981ace215aa2029f526b70c145b9fbe</title>
<path fill="none" stroke="black" d="M78.82,-143.7C86.57,-135.22 96.04,-124.86 104.52,-115.58"/>
<polygon fill="black" stroke="black" points="107.2,-117.85 111.36,-108.1 102.03,-113.12 107.2,-117.85"/>
<g id="a_edge4&#45;headlabel"><a xlink:href="dir_000173_000011.html" target="_top" xlink:title="5">
<text text-anchor="middle" x="106.87" y="-119.92" font-family="Helvetica,sans-Serif" font-size="10.00">5</text>
</a>
</g>
</g>
<!-- dir_694ec83a64f58cbdefbefce65cd1011c&#45;&gt;dir_bdd9a5d540de89e9fe90efdfc6973a4f -->
<g id="edge3" class="edge">
<title>dir_694ec83a64f58cbdefbefce65cd1011c&#45;&gt;dir_bdd9a5d540de89e9fe90efdfc6973a4f</title>
<path fill="none" stroke="black" d="M60.17,-143.71C62.29,-125.35 70.5,-95.77 82,-72 86.58,-62.54 92.68,-52.84 99.01,-44.37"/>
<polygon fill="black" stroke="black" points="101.9,-46.37 105.37,-36.36 96.41,-42.02 101.9,-46.37"/>
<g id="a_edge3&#45;headlabel"><a xlink:href="dir_000173_000000.html" target="_top" xlink:title="23">
<text text-anchor="middle" x="101.88" y="-48.45" font-family="Helvetica,sans-Serif" font-size="10.00">23</text>
</a>
</g>
</g>
<!-- dir_bdd9a5d540de89e9fe90efdfc6973a4f&#45;&gt;dir_0981ace215aa2029f526b70c145b9fbe -->
<g id="edge9" class="edge">
<title>dir_bdd9a5d540de89e9fe90efdfc6973a4f&#45;&gt;dir_0981ace215aa2029f526b70c145b9fbe</title>
<path fill="none" stroke="black" d="M132.9,-36.1C133.7,-43.79 133.94,-53.05 133.6,-61.67"/>
<polygon fill="black" stroke="black" points="130.11,-61.48 132.92,-71.7 137.09,-61.96 130.11,-61.48"/>
<g id="a_edge9&#45;headlabel"><a xlink:href="dir_000000_000011.html" target="_top" xlink:title="20">
<text text-anchor="middle" x="127.52" y="-55.2" font-family="Helvetica,sans-Serif" font-size="10.00">20</text>
</a>
</g>
</g>
<!-- dir_bdd9a5d540de89e9fe90efdfc6973a4f&#45;&gt;dir_694ec83a64f58cbdefbefce65cd1011c -->
<g id="edge10" class="edge">
<title>dir_bdd9a5d540de89e9fe90efdfc6973a4f&#45;&gt;dir_694ec83a64f58cbdefbefce65cd1011c</title>
<path fill="none" stroke="black" d="M121.23,-36.36C114.92,-46.35 106.11,-59.38 100,-72 90.34,-91.96 83,-116.02 76.89,-134.09"/>
<polygon fill="black" stroke="black" points="73.53,-133.11 73.52,-143.71 80.14,-135.43 73.53,-133.11"/>
<g id="a_edge10&#45;headlabel"><a xlink:href="dir_000000_000173.html" target="_top" xlink:title="1">
<text text-anchor="middle" x="72.04" y="-126.28" font-family="Helvetica,sans-Serif" font-size="10.00">1</text>
</a>
</g>
</g>
</g>
</svg>
