<?xml version="1.0" encoding="UTF-8" standalone="no"?>
<!DOCTYPE svg PUBLIC "-//W3C//DTD SVG 1.1//EN"
 "http://www.w3.org/Graphics/SVG/1.1/DTD/svg11.dtd">
<!-- Generated by graphviz version 2.49.3 (20211027.1534)
 -->
<!-- Title: ee/libc Pages: 1 -->
<svg width="252pt" height="303pt"
 viewBox="0.00 0.00 251.79 303.00" xmlns="http://www.w3.org/2000/svg" xmlns:xlink="http://www.w3.org/1999/xlink">
<g id="graph0" class="graph" transform="scale(1 1) rotate(0) translate(4 299)">
<title>ee/libc</title>
<polygon fill="white" stroke="transparent" points="-4,4 -4,-299 247.79,-299 247.79,4 -4,4"/>
<g id="clust1" class="cluster">
<title>clusterdir_049738f1909e8dc3e45fe1f6b3faa109</title>
<g id="a_clust1"><a xlink:href="dir_049738f1909e8dc3e45fe1f6b3faa109.html" target="_top" xlink:title="ee">
<polygon fill="#ddddee" stroke="black" points="8,-64 8,-287 166,-287 166,-64 8,-64"/>
<text text-anchor="middle" x="87" y="-275" font-family="Helvetica,sans-Serif" font-size="10.00">ee</text>
</a>
</g>
</g>
<g id="clust2" class="cluster">
<title>clusterdir_4bdd3f0b1709457e1be42b8162664eee</title>
<g id="a_clust2"><a xlink:href="dir_4bdd3f0b1709457e1be42b8162664eee.html" target="_top">
<polygon fill="#eeeeff" stroke="black" points="16,-136 16,-260 158,-260 158,-136 16,-136"/>
</a>
</g>
</g>
<!-- dir_694ec83a64f58cbdefbefce65cd1011c -->
<g id="node1" class="node">
<title>dir_694ec83a64f58cbdefbefce65cd1011c</title>
<g id="a_node1"><a xlink:href="dir_694ec83a64f58cbdefbefce65cd1011c.html" target="_top" xlink:title="kernel">
<polygon fill="white" stroke="red" points="148,-108 94,-108 94,-72 148,-72 148,-108"/>
<text text-anchor="middle" x="121" y="-87.5" font-family="Helvetica,sans-Serif" font-size="10.00">kernel</text>
</a>
</g>
</g>
<!-- dir_0981ace215aa2029f526b70c145b9fbe -->
<g id="node5" class="node">
<title>dir_0981ace215aa2029f526b70c145b9fbe</title>
<g id="a_node5"><a xlink:href="dir_0981ace215aa2029f526b70c145b9fbe.html" target="_top" xlink:title="iop">
<polygon fill="white" stroke="red" points="228,-108 174,-108 174,-72 228,-72 228,-108"/>
<text text-anchor="middle" x="201" y="-87.5" font-family="Helvetica,sans-Serif" font-size="10.00">iop</text>
</a>
</g>
</g>
<!-- dir_694ec83a64f58cbdefbefce65cd1011c&#45;&gt;dir_0981ace215aa2029f526b70c145b9fbe -->
<g id="edge4" class="edge">
<title>dir_694ec83a64f58cbdefbefce65cd1011c&#45;&gt;dir_0981ace215aa2029f526b70c145b9fbe</title>
<path fill="none" stroke="black" d="M148.19,-90C153.25,-90 158.31,-90 163.38,-90"/>
<polygon fill="black" stroke="black" points="163.77,-93.5 173.77,-90 163.77,-86.5 163.77,-93.5"/>
<g id="a_edge4&#45;headlabel"><a xlink:href="dir_000173_000011.html" target="_top" xlink:title="5">
<text text-anchor="middle" x="160.17" y="-93.84" font-family="Helvetica,sans-Serif" font-size="10.00">5</text>
</a>
</g>
</g>
<!-- dir_bdd9a5d540de89e9fe90efdfc6973a4f -->
<g id="node6" class="node">
<title>dir_bdd9a5d540de89e9fe90efdfc6973a4f</title>
<g id="a_node6"><a xlink:href="dir_bdd9a5d540de89e9fe90efdfc6973a4f.html" target="_top" xlink:title="common">
<polygon fill="white" stroke="red" points="228,-36 174,-36 174,0 228,0 228,-36"/>
<text text-anchor="middle" x="201" y="-15.5" font-family="Helvetica,sans-Serif" font-size="10.00">common</text>
</a>
</g>
</g>
<!-- dir_694ec83a64f58cbdefbefce65cd1011c&#45;&gt;dir_bdd9a5d540de89e9fe90efdfc6973a4f -->
<g id="edge3" class="edge">
<title>dir_694ec83a64f58cbdefbefce65cd1011c&#45;&gt;dir_bdd9a5d540de89e9fe90efdfc6973a4f</title>
<path fill="none" stroke="black" d="M134.86,-71.7C144.03,-62.88 156.26,-52.03 167.76,-42.47"/>
<polygon fill="black" stroke="black" points="170.03,-45.14 175.56,-36.1 165.6,-39.72 170.03,-45.14"/>
<g id="a_edge3&#45;headlabel"><a xlink:href="dir_000173_000000.html" target="_top" xlink:title="23">
<text text-anchor="middle" x="169.04" y="-47.11" font-family="Helvetica,sans-Serif" font-size="10.00">23</text>
</a>
</g>
</g>
<!-- dir_4bdd3f0b1709457e1be42b8162664eee -->
<g id="node2" class="node">
<title>dir_4bdd3f0b1709457e1be42b8162664eee</title>
<text text-anchor="middle" x="123" y="-231.5" font-family="Helvetica,sans-Serif" font-size="10.00">libc</text>
</g>
<!-- dir_39d6953f1eb69dcf4512295f197273ef -->
<g id="node3" class="node">
<title>dir_39d6953f1eb69dcf4512295f197273ef</title>
<g id="a_node3"><a xlink:href="dir_39d6953f1eb69dcf4512295f197273ef.html" target="_top" xlink:title="include">
<polygon fill="white" stroke="black" points="82,-180 28,-180 28,-144 82,-144 82,-180"/>
<text text-anchor="middle" x="55" y="-159.5" font-family="Helvetica,sans-Serif" font-size="10.00">include</text>
</a>
</g>
</g>
<!-- dir_39d6953f1eb69dcf4512295f197273ef&#45;&gt;dir_694ec83a64f58cbdefbefce65cd1011c -->
<g id="edge2" class="edge">
<title>dir_39d6953f1eb69dcf4512295f197273ef&#45;&gt;dir_694ec83a64f58cbdefbefce65cd1011c</title>
<path fill="none" stroke="black" d="M71.31,-143.7C79.31,-135.22 89.07,-124.86 97.82,-115.58"/>
<polygon fill="black" stroke="black" points="100.56,-117.78 104.87,-108.1 95.47,-112.98 100.56,-117.78"/>
<g id="a_edge2&#45;headlabel"><a xlink:href="dir_000240_000173.html" target="_top" xlink:title="1">
<text text-anchor="middle" x="100.16" y="-119.84" font-family="Helvetica,sans-Serif" font-size="10.00">1</text>
</a>
</g>
</g>
<!-- dir_98e6ef8179a6a3884f43ad475401c7a7 -->
<g id="node4" class="node">
<title>dir_98e6ef8179a6a3884f43ad475401c7a7</title>
<g id="a_node4"><a xlink:href="dir_98e6ef8179a6a3884f43ad475401c7a7.html" target="_top" xlink:title="src">
<polygon fill="white" stroke="black" points="78,-252 24,-252 24,-216 78,-216 78,-252"/>
<text text-anchor="middle" x="51" y="-231.5" font-family="Helvetica,sans-Serif" font-size="10.00">src</text>
</a>
</g>
</g>
<!-- dir_98e6ef8179a6a3884f43ad475401c7a7&#45;&gt;dir_694ec83a64f58cbdefbefce65cd1011c -->
<g id="edge7" class="edge">
<title>dir_98e6ef8179a6a3884f43ad475401c7a7&#45;&gt;dir_694ec83a64f58cbdefbefce65cd1011c</title>
<path fill="none" stroke="black" d="M66.22,-215.82C74.42,-205.88 84.22,-192.84 91,-180 101.44,-160.23 109.3,-136.11 114.35,-117.97"/>
<polygon fill="black" stroke="black" points="117.8,-118.62 117,-108.06 111.04,-116.82 117.8,-118.62"/>
<g id="a_edge7&#45;headlabel"><a xlink:href="dir_000241_000173.html" target="_top" xlink:title="5">
<text text-anchor="middle" x="119.62" y="-120.33" font-family="Helvetica,sans-Serif" font-size="10.00">5</text>
</a>
</g>
</g>
<!-- dir_98e6ef8179a6a3884f43ad475401c7a7&#45;&gt;dir_39d6953f1eb69dcf4512295f197273ef -->
<g id="edge6" class="edge">
<title>dir_98e6ef8179a6a3884f43ad475401c7a7&#45;&gt;dir_39d6953f1eb69dcf4512295f197273ef</title>
<path fill="none" stroke="black" d="M51.99,-215.7C52.43,-207.98 52.96,-198.71 53.45,-190.11"/>
<polygon fill="black" stroke="black" points="56.95,-190.29 54.02,-180.1 49.96,-189.89 56.95,-190.29"/>
<g id="a_edge6&#45;headlabel"><a xlink:href="dir_000241_000240.html" target="_top" xlink:title="1">
<text text-anchor="middle" x="59.58" y="-191.54" font-family="Helvetica,sans-Serif" font-size="10.00">1</text>
</a>
</g>
</g>
<!-- dir_98e6ef8179a6a3884f43ad475401c7a7&#45;&gt;dir_0981ace215aa2029f526b70c145b9fbe -->
<g id="edge5" class="edge">
<title>dir_98e6ef8179a6a3884f43ad475401c7a7&#45;&gt;dir_0981ace215aa2029f526b70c145b9fbe</title>
<path fill="none" stroke="black" d="M78.11,-220.15C81.11,-218.74 84.12,-217.34 87,-216 122,-199.76 139.45,-208 166,-180 182.2,-162.92 191.19,-137.47 195.99,-118.15"/>
<polygon fill="black" stroke="black" points="199.46,-118.67 198.24,-108.15 192.63,-117.13 199.46,-118.67"/>
<g id="a_edge5&#45;headlabel"><a xlink:href="dir_000241_000011.html" target="_top" xlink:title="7">
<text text-anchor="middle" x="201.44" y="-120.3" font-family="Helvetica,sans-Serif" font-size="10.00">7</text>
</a>
</g>
</g>
<!-- dir_98e6ef8179a6a3884f43ad475401c7a7&#45;&gt;dir_bdd9a5d540de89e9fe90efdfc6973a4f -->
<g id="edge8" class="edge">
<title>dir_98e6ef8179a6a3884f43ad475401c7a7&#45;&gt;dir_bdd9a5d540de89e9fe90efdfc6973a4f</title>
<path fill="none" stroke="black" d="M78.38,-219.69C81.27,-218.4 84.18,-217.14 87,-216 132.71,-197.44 153.37,-210.68 192,-180 235.3,-145.61 255.3,-116.18 237,-64 234.5,-56.86 230.33,-50.01 225.7,-43.91"/>
<polygon fill="black" stroke="black" points="228.29,-41.55 219.22,-36.08 222.9,-46.01 228.29,-41.55"/>
<g id="a_edge8&#45;headlabel"><a xlink:href="dir_000241_000000.html" target="_top" xlink:title="5">
<text text-anchor="middle" x="232.77" y="-40" font-family="Helvetica,sans-Serif" font-size="10.00">5</text>
</a>
</g>
</g>
<!-- dir_0981ace215aa2029f526b70c145b9fbe&#45;&gt;dir_bdd9a5d540de89e9fe90efdfc6973a4f -->
<g id="edge1" class="edge">
<title>dir_0981ace215aa2029f526b70c145b9fbe&#45;&gt;dir_bdd9a5d540de89e9fe90efdfc6973a4f</title>
<path fill="none" stroke="black" d="M195.08,-71.7C194.29,-63.98 194.06,-54.71 194.4,-46.11"/>
<polygon fill="black" stroke="black" points="197.9,-46.32 195.1,-36.1 190.92,-45.84 197.9,-46.32"/>
<g id="a_edge1&#45;headlabel"><a xlink:href="dir_000011_000000.html" target="_top" xlink:title="174">
<text text-anchor="middle" x="200.48" y="-47.61" font-family="Helvetica,sans-Serif" font-size="10.00">174</text>
</a>
</g>
</g>
<!-- dir_bdd9a5d540de89e9fe90efdfc6973a4f&#45;&gt;dir_694ec83a64f58cbdefbefce65cd1011c -->
<g id="edge10" class="edge">
<title>dir_bdd9a5d540de89e9fe90efdfc6973a4f&#45;&gt;dir_694ec83a64f58cbdefbefce65cd1011c</title>
<path fill="none" stroke="black" d="M187.35,-36.1C178.23,-44.89 166.01,-55.73 154.5,-65.31"/>
<polygon fill="black" stroke="black" points="152.22,-62.66 146.69,-71.7 156.65,-68.08 152.22,-62.66"/>
<g id="a_edge10&#45;headlabel"><a xlink:href="dir_000000_000173.html" target="_top" xlink:title="1">
<text text-anchor="middle" x="153.2" y="-55.68" font-family="Helvetica,sans-Serif" font-size="10.00">1</text>
</a>
</g>
</g>
<!-- dir_bdd9a5d540de89e9fe90efdfc6973a4f&#45;&gt;dir_0981ace215aa2029f526b70c145b9fbe -->
<g id="edge9" class="edge">
<title>dir_bdd9a5d540de89e9fe90efdfc6973a4f&#45;&gt;dir_0981ace215aa2029f526b70c145b9fbe</title>
<path fill="none" stroke="black" d="M206.9,-36.1C207.7,-43.79 207.94,-53.05 207.6,-61.67"/>
<polygon fill="black" stroke="black" points="204.11,-61.48 206.92,-71.7 211.09,-61.96 204.11,-61.48"/>
<g id="a_edge9&#45;headlabel"><a xlink:href="dir_000000_000011.html" target="_top" xlink:title="20">
<text text-anchor="middle" x="201.52" y="-55.2" font-family="Helvetica,sans-Serif" font-size="10.00">20</text>
</a>
</g>
</g>
</g>
</svg>
