<?xml version="1.0" encoding="UTF-8" standalone="no"?>
<!DOCTYPE svg PUBLIC "-//W3C//DTD SVG 1.1//EN"
 "http://www.w3.org/Graphics/SVG/1.1/DTD/svg11.dtd">
<!-- Generated by graphviz version 2.49.3 (20211027.1534)
 -->
<!-- Title: ee/kernel/src/initsys.c Pages: 1 -->
<svg width="331pt" height="308pt"
 viewBox="0.00 0.00 331.10 308.00" xmlns="http://www.w3.org/2000/svg" xmlns:xlink="http://www.w3.org/1999/xlink">
<g id="graph0" class="graph" transform="scale(1 1) rotate(0) translate(4 304)">
<title>ee/kernel/src/initsys.c</title>
<polygon fill="white" stroke="transparent" points="-4,4 -4,-304 327.1,-304 327.1,4 -4,4"/>
<!-- Node1 -->
<g id="node1" class="node">
<title>Node1</title>
<g id="a_node1"><a xlink:title=" ">
<polygon fill="#bfbfbf" stroke="black" points="103.6,-280.5 103.6,-299.5 214.6,-299.5 214.6,-280.5 103.6,-280.5"/>
<text text-anchor="middle" x="159.1" y="-287.5" font-family="Helvetica,sans-Serif" font-size="10.00">ee/kernel/src/initsys.c</text>
</a>
</g>
</g>
<!-- Node2 -->
<g id="node2" class="node">
<title>Node2</title>
<g id="a_node2"><a xlink:href="kernel_8h.html" target="_top" xlink:title=" ">
<polygon fill="white" stroke="black" points="8.1,-168.5 8.1,-187.5 58.1,-187.5 58.1,-168.5 8.1,-168.5"/>
<text text-anchor="middle" x="33.1" y="-175.5" font-family="Helvetica,sans-Serif" font-size="10.00">kernel.h</text>
</a>
</g>
</g>
<!-- Node1&#45;&gt;Node2 -->
<g id="edge1" class="edge">
<title>Node1&#45;&gt;Node2</title>
<path fill="none" stroke="midnightblue" d="M149.21,-280.37C127.96,-261.81 77.67,-217.91 50.78,-194.44"/>
<polygon fill="midnightblue" stroke="midnightblue" points="52.78,-191.53 42.94,-187.59 48.17,-196.8 52.78,-191.53"/>
</g>
<!-- Node7 -->
<g id="node7" class="node">
<title>Node7</title>
<g id="a_node7"><a xlink:href="timer_8h.html" target="_top" xlink:title=" ">
<polygon fill="white" stroke="black" points="277.1,-56.5 277.1,-75.5 323.1,-75.5 323.1,-56.5 277.1,-56.5"/>
<text text-anchor="middle" x="300.1" y="-63.5" font-family="Helvetica,sans-Serif" font-size="10.00">timer.h</text>
</a>
</g>
</g>
<!-- Node1&#45;&gt;Node7 -->
<g id="edge6" class="edge">
<title>Node1&#45;&gt;Node7</title>
<path fill="none" stroke="midnightblue" d="M165.55,-280.46C172.3,-271.48 183.13,-256.88 192.1,-244 226.2,-195.04 235.79,-183.39 266.1,-132 275.29,-116.42 284.75,-98.12 291.35,-84.91"/>
<polygon fill="midnightblue" stroke="midnightblue" points="294.68,-86.08 295.97,-75.56 288.4,-82.98 294.68,-86.08"/>
</g>
<!-- Node8 -->
<g id="node8" class="node">
<title>Node8</title>
<g id="a_node8"><a xlink:href="string_8h_source.html" target="_top" xlink:title=" ">
<polygon fill="white" stroke="black" points="135.1,-224.5 135.1,-243.5 183.1,-243.5 183.1,-224.5 135.1,-224.5"/>
<text text-anchor="middle" x="159.1" y="-231.5" font-family="Helvetica,sans-Serif" font-size="10.00">string.h</text>
</a>
</g>
</g>
<!-- Node1&#45;&gt;Node8 -->
<g id="edge8" class="edge">
<title>Node1&#45;&gt;Node8</title>
<path fill="none" stroke="midnightblue" d="M159.1,-280.08C159.1,-273.01 159.1,-262.86 159.1,-253.99"/>
<polygon fill="midnightblue" stroke="midnightblue" points="162.6,-253.75 159.1,-243.75 155.6,-253.75 162.6,-253.75"/>
</g>
<!-- Node3 -->
<g id="node3" class="node">
<title>Node3</title>
<g id="a_node3"><a xlink:title=" ">
<polygon fill="white" stroke="#bfbfbf" points="32.6,-0.5 32.6,-19.5 83.6,-19.5 83.6,-0.5 32.6,-0.5"/>
<text text-anchor="middle" x="58.1" y="-7.5" font-family="Helvetica,sans-Serif" font-size="10.00">stddef.h</text>
</a>
</g>
</g>
<!-- Node2&#45;&gt;Node3 -->
<g id="edge2" class="edge">
<title>Node2&#45;&gt;Node3</title>
<path fill="none" stroke="midnightblue" d="M27.59,-168.4C15.29,-148.02 -11.97,-95.54 6.1,-56 11.88,-43.36 23.15,-32.91 33.73,-25.27"/>
<polygon fill="midnightblue" stroke="midnightblue" points="35.95,-28 42.32,-19.53 32.06,-22.18 35.95,-28"/>
</g>
<!-- Node4 -->
<g id="node4" class="node">
<title>Node4</title>
<g id="a_node4"><a xlink:title=" ">
<polygon fill="white" stroke="#bfbfbf" points="34.6,-112.5 34.6,-131.5 85.6,-131.5 85.6,-112.5 34.6,-112.5"/>
<text text-anchor="middle" x="60.1" y="-119.5" font-family="Helvetica,sans-Serif" font-size="10.00">stdarg.h</text>
</a>
</g>
</g>
<!-- Node2&#45;&gt;Node4 -->
<g id="edge3" class="edge">
<title>Node2&#45;&gt;Node4</title>
<path fill="none" stroke="midnightblue" d="M37.56,-168.08C41.25,-160.69 46.62,-149.95 51.19,-140.81"/>
<polygon fill="midnightblue" stroke="midnightblue" points="54.38,-142.26 55.72,-131.75 48.12,-139.13 54.38,-142.26"/>
</g>
<!-- Node5 -->
<g id="node5" class="node">
<title>Node5</title>
<g id="a_node5"><a xlink:href="sifdma_8h.html" target="_top" xlink:title=" ">
<polygon fill="white" stroke="black" points="15.6,-56.5 15.6,-75.5 68.6,-75.5 68.6,-56.5 15.6,-56.5"/>
<text text-anchor="middle" x="42.1" y="-63.5" font-family="Helvetica,sans-Serif" font-size="10.00">sifdma.h</text>
</a>
</g>
</g>
<!-- Node2&#45;&gt;Node5 -->
<g id="edge4" class="edge">
<title>Node2&#45;&gt;Node5</title>
<path fill="none" stroke="midnightblue" d="M30.31,-168.12C26.75,-155.56 21.47,-131.91 25.1,-112 26.79,-102.76 30.28,-92.95 33.65,-84.85"/>
<polygon fill="midnightblue" stroke="midnightblue" points="36.86,-86.25 37.73,-75.69 30.47,-83.4 36.86,-86.25"/>
</g>
<!-- Node6 -->
<g id="node6" class="node">
<title>Node6</title>
<g id="a_node6"><a xlink:href="tamtypes_8h.html" target="_top" xlink:title=" ">
<polygon fill="white" stroke="black" points="137.1,-0.5 137.1,-19.5 201.1,-19.5 201.1,-0.5 137.1,-0.5"/>
<text text-anchor="middle" x="169.1" y="-7.5" font-family="Helvetica,sans-Serif" font-size="10.00">tamtypes.h</text>
</a>
</g>
</g>
<!-- Node5&#45;&gt;Node6 -->
<g id="edge5" class="edge">
<title>Node5&#45;&gt;Node6</title>
<path fill="none" stroke="midnightblue" d="M62.22,-56.44C83.12,-47.56 116.04,-33.56 139.82,-23.45"/>
<polygon fill="midnightblue" stroke="midnightblue" points="141.24,-26.65 149.07,-19.52 138.5,-20.21 141.24,-26.65"/>
</g>
<!-- Node7&#45;&gt;Node6 -->
<g id="edge7" class="edge">
<title>Node7&#45;&gt;Node6</title>
<path fill="none" stroke="midnightblue" d="M279.34,-56.44C257.78,-47.56 223.84,-33.56 199.31,-23.45"/>
<polygon fill="midnightblue" stroke="midnightblue" points="200.34,-20.09 189.76,-19.52 197.67,-26.56 200.34,-20.09"/>
</g>
<!-- Node9 -->
<g id="node9" class="node">
<title>Node9</title>
<g id="a_node9"><a xlink:href="sysclib_8h.html" target="_top" xlink:title=" ">
<polygon fill="white" stroke="black" points="132.1,-168.5 132.1,-187.5 186.1,-187.5 186.1,-168.5 132.1,-168.5"/>
<text text-anchor="middle" x="159.1" y="-175.5" font-family="Helvetica,sans-Serif" font-size="10.00">sysclib.h</text>
</a>
</g>
</g>
<!-- Node8&#45;&gt;Node9 -->
<g id="edge9" class="edge">
<title>Node8&#45;&gt;Node9</title>
<path fill="none" stroke="midnightblue" d="M159.1,-224.08C159.1,-217.01 159.1,-206.86 159.1,-197.99"/>
<polygon fill="midnightblue" stroke="midnightblue" points="162.6,-197.75 159.1,-187.75 155.6,-197.75 162.6,-197.75"/>
</g>
<!-- Node9&#45;&gt;Node4 -->
<g id="edge15" class="edge">
<title>Node9&#45;&gt;Node4</title>
<path fill="none" stroke="midnightblue" d="M143.19,-168.32C127.46,-159.74 103.16,-146.49 84.89,-136.52"/>
<polygon fill="midnightblue" stroke="midnightblue" points="86.42,-133.37 75.97,-131.65 83.07,-139.52 86.42,-133.37"/>
</g>
<!-- Node10 -->
<g id="node10" class="node">
<title>Node10</title>
<g id="a_node10"><a xlink:href="types_8h_source.html" target="_top" xlink:title=" ">
<polygon fill="white" stroke="black" points="97.6,-56.5 97.6,-75.5 144.6,-75.5 144.6,-56.5 97.6,-56.5"/>
<text text-anchor="middle" x="121.1" y="-63.5" font-family="Helvetica,sans-Serif" font-size="10.00">types.h</text>
</a>
</g>
</g>
<!-- Node9&#45;&gt;Node10 -->
<g id="edge10" class="edge">
<title>Node9&#45;&gt;Node10</title>
<path fill="none" stroke="midnightblue" d="M152.98,-168.48C147,-159.74 138.09,-145.55 133.1,-132 127.57,-117.01 124.51,-99.1 122.86,-85.88"/>
<polygon fill="midnightblue" stroke="midnightblue" points="126.31,-85.23 121.76,-75.66 119.35,-85.98 126.31,-85.23"/>
</g>
<!-- Node11 -->
<g id="node11" class="node">
<title>Node11</title>
<g id="a_node11"><a xlink:href="irx_8h.html" target="_top" xlink:title=" ">
<polygon fill="white" stroke="black" points="142.1,-112.5 142.1,-131.5 176.1,-131.5 176.1,-112.5 142.1,-112.5"/>
<text text-anchor="middle" x="159.1" y="-119.5" font-family="Helvetica,sans-Serif" font-size="10.00">irx.h</text>
</a>
</g>
</g>
<!-- Node9&#45;&gt;Node11 -->
<g id="edge13" class="edge">
<title>Node9&#45;&gt;Node11</title>
<path fill="none" stroke="midnightblue" d="M159.1,-168.08C159.1,-161.01 159.1,-150.86 159.1,-141.99"/>
<polygon fill="midnightblue" stroke="midnightblue" points="162.6,-141.75 159.1,-131.75 155.6,-141.75 162.6,-141.75"/>
</g>
<!-- Node12 -->
<g id="node12" class="node">
<title>Node12</title>
<g id="a_node12"><a xlink:href="setjmp_8h.html" target="_top" xlink:title=" ">
<polygon fill="white" stroke="black" points="191.6,-56.5 191.6,-75.5 244.6,-75.5 244.6,-56.5 191.6,-56.5"/>
<text text-anchor="middle" x="218.1" y="-63.5" font-family="Helvetica,sans-Serif" font-size="10.00">setjmp.h</text>
</a>
</g>
</g>
<!-- Node9&#45;&gt;Node12 -->
<g id="edge16" class="edge">
<title>Node9&#45;&gt;Node12</title>
<path fill="none" stroke="midnightblue" d="M186.53,-171.77C208.21,-166.03 237.07,-154.48 251.1,-132 261.18,-115.84 248.01,-96.23 235.44,-82.79"/>
<polygon fill="midnightblue" stroke="midnightblue" points="237.84,-80.25 228.29,-75.68 232.91,-85.21 237.84,-80.25"/>
</g>
<!-- Node13 -->
<g id="node13" class="node">
<title>Node13</title>
<g id="a_node13"><a xlink:href="ctype_8h.html" target="_top" xlink:title=" ">
<polygon fill="white" stroke="black" points="194.6,-112.5 194.6,-131.5 241.6,-131.5 241.6,-112.5 194.6,-112.5"/>
<text text-anchor="middle" x="218.1" y="-119.5" font-family="Helvetica,sans-Serif" font-size="10.00">ctype.h</text>
</a>
</g>
</g>
<!-- Node9&#45;&gt;Node13 -->
<g id="edge18" class="edge">
<title>Node9&#45;&gt;Node13</title>
<path fill="none" stroke="midnightblue" d="M168.58,-168.32C177.3,-160.34 190.44,-148.31 201,-138.65"/>
<polygon fill="midnightblue" stroke="midnightblue" points="203.43,-141.17 208.45,-131.83 198.71,-136 203.43,-141.17"/>
</g>
<!-- Node10&#45;&gt;Node3 -->
<g id="edge11" class="edge">
<title>Node10&#45;&gt;Node3</title>
<path fill="none" stroke="midnightblue" d="M110.98,-56.32C101.57,-48.26 87.36,-36.08 76.03,-26.37"/>
<polygon fill="midnightblue" stroke="midnightblue" points="78.28,-23.68 68.41,-19.83 73.72,-29 78.28,-23.68"/>
</g>
<!-- Node10&#45;&gt;Node6 -->
<g id="edge12" class="edge">
<title>Node10&#45;&gt;Node6</title>
<path fill="none" stroke="midnightblue" d="M129.03,-56.08C135.95,-48.3 146.17,-36.8 154.55,-27.37"/>
<polygon fill="midnightblue" stroke="midnightblue" points="157.29,-29.55 161.32,-19.75 152.06,-24.9 157.29,-29.55"/>
</g>
<!-- Node11&#45;&gt;Node10 -->
<g id="edge14" class="edge">
<title>Node11&#45;&gt;Node10</title>
<path fill="none" stroke="midnightblue" d="M152.83,-112.08C147.46,-104.46 139.58,-93.26 133.02,-83.94"/>
<polygon fill="midnightblue" stroke="midnightblue" points="135.88,-81.91 127.26,-75.75 130.15,-85.94 135.88,-81.91"/>
</g>
<!-- Node12&#45;&gt;Node6 -->
<g id="edge17" class="edge">
<title>Node12&#45;&gt;Node6</title>
<path fill="none" stroke="midnightblue" d="M210.01,-56.08C202.95,-48.3 192.51,-36.8 183.95,-27.37"/>
<polygon fill="midnightblue" stroke="midnightblue" points="186.35,-24.8 177.04,-19.75 181.17,-29.51 186.35,-24.8"/>
</g>
</g>
</svg>
