<?xml version="1.0" encoding="UTF-8" standalone="no"?>
<!DOCTYPE svg PUBLIC "-//W3C//DTD SVG 1.1//EN"
 "http://www.w3.org/Graphics/SVG/1.1/DTD/svg11.dtd">
<!-- Generated by graphviz version 2.49.3 (20211027.1534)
 -->
<!-- Title: iop/kernel/include/ioman.h Pages: 1 -->
<svg width="4035pt" height="173pt"
 viewBox="0.00 0.00 4035.00 173.00" xmlns="http://www.w3.org/2000/svg" xmlns:xlink="http://www.w3.org/1999/xlink">
<g id="graph0" class="graph" transform="scale(1 1) rotate(0) translate(4 169)">
<title>iop/kernel/include/ioman.h</title>
<polygon fill="white" stroke="transparent" points="-4,4 -4,-169 4031,-169 4031,4 -4,4"/>
<!-- Node1 -->
<g id="node1" class="node">
<title>Node1</title>
<g id="a_node1"><a xlink:title=" ">
<polygon fill="#bfbfbf" stroke="black" points="1884.5,-134.5 1884.5,-164.5 1976.5,-164.5 1976.5,-134.5 1884.5,-134.5"/>
<text text-anchor="start" x="1892.5" y="-152.5" font-family="Helvetica,sans-Serif" font-size="10.00">iop/kernel/include</text>
<text text-anchor="middle" x="1930.5" y="-141.5" font-family="Helvetica,sans-Serif" font-size="10.00">/ioman.h</text>
</a>
</g>
</g>
<!-- Node2 -->
<g id="node2" class="node">
<title>Node2</title>
<g id="a_node2"><a xlink:href="common_2sbus_2src_2irx__imports_8h_source.html" target="_top" xlink:title=" ">
<polygon fill="white" stroke="black" points="0,-67.5 0,-97.5 107,-97.5 107,-67.5 0,-67.5"/>
<text text-anchor="start" x="8" y="-85.5" font-family="Helvetica,sans-Serif" font-size="10.00">common/sbus/src/irx</text>
<text text-anchor="middle" x="53.5" y="-74.5" font-family="Helvetica,sans-Serif" font-size="10.00">_imports.h</text>
</a>
</g>
</g>
<!-- Node1&#45;&gt;Node2 -->
<g id="edge1" class="edge">
<title>Node1&#45;&gt;Node2</title>
<path fill="none" stroke="midnightblue" d="M1873.88,-148.46C1606.4,-148.05 467.76,-143.62 115.5,-98 112.76,-97.65 109.96,-97.22 107.15,-96.75"/>
<polygon fill="midnightblue" stroke="midnightblue" points="1874.12,-151.96 1884.13,-148.48 1874.13,-144.96 1874.12,-151.96"/>
</g>
<!-- Node3 -->
<g id="node3" class="node">
<title>Node3</title>
<g id="a_node3"><a xlink:href="imgdrv_8c.html" target="_top" xlink:title=" ">
<polygon fill="white" stroke="black" points="125,-67.5 125,-97.5 244,-97.5 244,-67.5 125,-67.5"/>
<text text-anchor="start" x="133" y="-85.5" font-family="Helvetica,sans-Serif" font-size="10.00">ee/iopreboot/src/imgdrv</text>
<text text-anchor="middle" x="184.5" y="-74.5" font-family="Helvetica,sans-Serif" font-size="10.00">/src/imgdrv.c</text>
</a>
</g>
</g>
<!-- Node1&#45;&gt;Node3 -->
<g id="edge2" class="edge">
<title>Node1&#45;&gt;Node3</title>
<path fill="none" stroke="midnightblue" d="M1874.08,-148.17C1619.57,-146.45 576.78,-137.13 252.5,-98 249.74,-97.67 246.93,-97.28 244.1,-96.84"/>
<polygon fill="midnightblue" stroke="midnightblue" points="1874.18,-151.67 1884.2,-148.23 1874.23,-144.67 1874.18,-151.67"/>
</g>
<!-- Node4 -->
<g id="node4" class="node">
<title>Node4</title>
<g id="a_node4"><a xlink:href="ee_2iopreboot_2src_2imgdrv_2src_2irx__imports_8h_source.html" target="_top" xlink:title=" ">
<polygon fill="white" stroke="black" points="262,-67.5 262,-97.5 381,-97.5 381,-67.5 262,-67.5"/>
<text text-anchor="start" x="270" y="-85.5" font-family="Helvetica,sans-Serif" font-size="10.00">ee/iopreboot/src/imgdrv</text>
<text text-anchor="middle" x="321.5" y="-74.5" font-family="Helvetica,sans-Serif" font-size="10.00">/src/irx_imports.h</text>
</a>
</g>
</g>
<!-- Node1&#45;&gt;Node4 -->
<g id="edge3" class="edge">
<title>Node1&#45;&gt;Node4</title>
<path fill="none" stroke="midnightblue" d="M1874.08,-147.97C1632.76,-145.49 686.21,-133.64 390.5,-98 387.46,-97.63 384.36,-97.2 381.23,-96.72"/>
<polygon fill="midnightblue" stroke="midnightblue" points="1874.34,-151.47 1884.37,-148.07 1874.41,-144.47 1874.34,-151.47"/>
</g>
<!-- Node5 -->
<g id="node5" class="node">
<title>Node5</title>
<g id="a_node5"><a xlink:href="iop_2cdvd_2cdfs_2src_2irx__imports_8h_source.html" target="_top" xlink:title=" ">
<polygon fill="white" stroke="black" points="399.5,-67.5 399.5,-97.5 503.5,-97.5 503.5,-67.5 399.5,-67.5"/>
<text text-anchor="start" x="407.5" y="-85.5" font-family="Helvetica,sans-Serif" font-size="10.00">iop/cdvd/cdfs/src/irx</text>
<text text-anchor="middle" x="451.5" y="-74.5" font-family="Helvetica,sans-Serif" font-size="10.00">_imports.h</text>
</a>
</g>
</g>
<!-- Node1&#45;&gt;Node5 -->
<g id="edge4" class="edge">
<title>Node1&#45;&gt;Node5</title>
<path fill="none" stroke="midnightblue" d="M1874.06,-147.98C1644.78,-145.64 782.52,-134.53 512.5,-98 509.59,-97.61 506.61,-97.13 503.62,-96.6"/>
<polygon fill="midnightblue" stroke="midnightblue" points="1874.14,-151.48 1884.18,-148.08 1874.21,-144.48 1874.14,-151.48"/>
</g>
<!-- Node6 -->
<g id="node6" class="node">
<title>Node6</title>
<g id="a_node6"><a xlink:href="iop_2cdvd_2cdfs_2src_2main_8c_source.html" target="_top" xlink:title=" ">
<polygon fill="white" stroke="black" points="522,-73 522,-92 645,-92 645,-73 522,-73"/>
<text text-anchor="middle" x="583.5" y="-80" font-family="Helvetica,sans-Serif" font-size="10.00">iop/cdvd/cdfs/src/main.c</text>
</a>
</g>
</g>
<!-- Node1&#45;&gt;Node6 -->
<g id="edge5" class="edge">
<title>Node1&#45;&gt;Node6</title>
<path fill="none" stroke="midnightblue" d="M1874.18,-147.48C1659.95,-143.44 895.81,-127.22 654.5,-98 643.01,-96.61 630.61,-94.34 619.43,-92.01"/>
<polygon fill="midnightblue" stroke="midnightblue" points="1874.19,-150.99 1884.26,-147.67 1874.32,-143.99 1874.19,-150.99"/>
</g>
<!-- Node7 -->
<g id="node7" class="node">
<title>Node7</title>
<g id="a_node7"><a xlink:href="iop_2debug_2iop__sbusdbg_2src_2irx__imports_8h_source.html" target="_top" xlink:title=" ">
<polygon fill="white" stroke="black" points="663.5,-67.5 663.5,-97.5 779.5,-97.5 779.5,-67.5 663.5,-67.5"/>
<text text-anchor="start" x="671.5" y="-85.5" font-family="Helvetica,sans-Serif" font-size="10.00">iop/debug/iop_sbusdbg</text>
<text text-anchor="middle" x="721.5" y="-74.5" font-family="Helvetica,sans-Serif" font-size="10.00">/src/irx_imports.h</text>
</a>
</g>
</g>
<!-- Node1&#45;&gt;Node7 -->
<g id="edge6" class="edge">
<title>Node1&#45;&gt;Node7</title>
<path fill="none" stroke="midnightblue" d="M1874.25,-147.27C1674.83,-142.72 1002.16,-125.64 788.5,-98 785.55,-97.62 782.54,-97.17 779.5,-96.68"/>
<polygon fill="midnightblue" stroke="midnightblue" points="1874.42,-150.78 1884.49,-147.5 1874.58,-143.78 1874.42,-150.78"/>
</g>
<!-- Node8 -->
<g id="node8" class="node">
<title>Node8</title>
<g id="a_node8"><a xlink:href="sbus__dbg_8c_source.html" target="_top" xlink:title=" ">
<polygon fill="white" stroke="black" points="797.5,-67.5 797.5,-97.5 913.5,-97.5 913.5,-67.5 797.5,-67.5"/>
<text text-anchor="start" x="805.5" y="-85.5" font-family="Helvetica,sans-Serif" font-size="10.00">iop/debug/iop_sbusdbg</text>
<text text-anchor="middle" x="855.5" y="-74.5" font-family="Helvetica,sans-Serif" font-size="10.00">/src/sbus_dbg.c</text>
</a>
</g>
</g>
<!-- Node1&#45;&gt;Node8 -->
<g id="edge7" class="edge">
<title>Node1&#45;&gt;Node8</title>
<path fill="none" stroke="midnightblue" d="M1874.17,-148.89C1720.72,-149.25 1282.69,-145.68 922.5,-98 919.55,-97.61 916.54,-97.16 913.5,-96.66"/>
<polygon fill="midnightblue" stroke="midnightblue" points="1874.3,-152.39 1884.29,-148.86 1874.28,-145.39 1874.3,-152.39"/>
</g>
<!-- Node9 -->
<g id="node9" class="node">
<title>Node9</title>
<g id="a_node9"><a xlink:href="sbus__tty_8c_source.html" target="_top" xlink:title=" ">
<polygon fill="white" stroke="black" points="931.5,-67.5 931.5,-97.5 1047.5,-97.5 1047.5,-67.5 931.5,-67.5"/>
<text text-anchor="start" x="939.5" y="-85.5" font-family="Helvetica,sans-Serif" font-size="10.00">iop/debug/iop_sbusdbg</text>
<text text-anchor="middle" x="989.5" y="-74.5" font-family="Helvetica,sans-Serif" font-size="10.00">/src/sbus_tty.c</text>
</a>
</g>
</g>
<!-- Node1&#45;&gt;Node9 -->
<g id="edge8" class="edge">
<title>Node1&#45;&gt;Node9</title>
<path fill="none" stroke="midnightblue" d="M1874.29,-148.27C1735.04,-147.05 1363.2,-139.79 1056.5,-98 1053.55,-97.6 1050.54,-97.14 1047.51,-96.63"/>
<polygon fill="midnightblue" stroke="midnightblue" points="1874.27,-151.77 1884.3,-148.35 1874.33,-144.77 1874.27,-151.77"/>
</g>
<!-- Node10 -->
<g id="node10" class="node">
<title>Node10</title>
<g id="a_node10"><a xlink:href="iop_2debug_2iopdebug_2src_2irx__imports_8h_source.html" target="_top" xlink:title=" ">
<polygon fill="white" stroke="black" points="1066,-67.5 1066,-97.5 1167,-97.5 1167,-67.5 1066,-67.5"/>
<text text-anchor="start" x="1074" y="-85.5" font-family="Helvetica,sans-Serif" font-size="10.00">iop/debug/iopdebug</text>
<text text-anchor="middle" x="1116.5" y="-74.5" font-family="Helvetica,sans-Serif" font-size="10.00">/src/irx_imports.h</text>
</a>
</g>
</g>
<!-- Node1&#45;&gt;Node10 -->
<g id="edge9" class="edge">
<title>Node1&#45;&gt;Node10</title>
<path fill="none" stroke="midnightblue" d="M1874.05,-148.07C1748,-146.39 1434.35,-138.15 1175.5,-98 1172.79,-97.58 1170.02,-97.1 1167.24,-96.56"/>
<polygon fill="midnightblue" stroke="midnightblue" points="1874.19,-151.58 1884.23,-148.2 1874.28,-144.58 1874.19,-151.58"/>
</g>
<!-- Node11 -->
<g id="node11" class="node">
<title>Node11</title>
<g id="a_node11"><a xlink:href="iop_2dev9_2dev9_2src_2irx__imports_8h_source.html" target="_top" xlink:title=" ">
<polygon fill="white" stroke="black" points="1185,-67.5 1185,-97.5 1292,-97.5 1292,-67.5 1185,-67.5"/>
<text text-anchor="start" x="1193" y="-85.5" font-family="Helvetica,sans-Serif" font-size="10.00">iop/dev9/dev9/src/irx</text>
<text text-anchor="middle" x="1238.5" y="-74.5" font-family="Helvetica,sans-Serif" font-size="10.00">_imports.h</text>
</a>
</g>
</g>
<!-- Node1&#45;&gt;Node11 -->
<g id="edge10" class="edge">
<title>Node1&#45;&gt;Node11</title>
<path fill="none" stroke="midnightblue" d="M1874.12,-146.81C1763.52,-142.87 1510.55,-130.79 1300.5,-98 1297.77,-97.57 1294.98,-97.09 1292.17,-96.57"/>
<polygon fill="midnightblue" stroke="midnightblue" points="1874.26,-150.32 1884.38,-147.17 1874.5,-143.32 1874.26,-150.32"/>
</g>
<!-- Node12 -->
<g id="node12" class="node">
<title>Node12</title>
<g id="a_node12"><a xlink:href="iop_2fs_2bdmfs__fatfs_2src_2irx__imports_8h_source.html" target="_top" xlink:title=" ">
<polygon fill="white" stroke="black" points="1310,-67.5 1310,-97.5 1405,-97.5 1405,-67.5 1310,-67.5"/>
<text text-anchor="start" x="1318" y="-85.5" font-family="Helvetica,sans-Serif" font-size="10.00">iop/fs/bdmfs_fatfs</text>
<text text-anchor="middle" x="1357.5" y="-74.5" font-family="Helvetica,sans-Serif" font-size="10.00">/src/irx_imports.h</text>
</a>
</g>
</g>
<!-- Node1&#45;&gt;Node12 -->
<g id="edge11" class="edge">
<title>Node1&#45;&gt;Node12</title>
<path fill="none" stroke="midnightblue" d="M1874.17,-145.88C1778.75,-140.8 1579.5,-127.41 1413.5,-98 1410.73,-97.51 1407.9,-96.95 1405.05,-96.35"/>
<polygon fill="midnightblue" stroke="midnightblue" points="1874.01,-149.38 1884.18,-146.4 1874.37,-142.39 1874.01,-149.38"/>
</g>
<!-- Node13 -->
<g id="node13" class="node">
<title>Node13</title>
<g id="a_node13"><a xlink:href="iop_2fs_2bdmfs__vfat_2src_2irx__imports_8h_source.html" target="_top" xlink:title=" ">
<polygon fill="white" stroke="black" points="1423,-67.5 1423,-97.5 1532,-97.5 1532,-67.5 1423,-67.5"/>
<text text-anchor="start" x="1431" y="-85.5" font-family="Helvetica,sans-Serif" font-size="10.00">iop/fs/bdmfs_vfat/src</text>
<text text-anchor="middle" x="1477.5" y="-74.5" font-family="Helvetica,sans-Serif" font-size="10.00">/irx_imports.h</text>
</a>
</g>
</g>
<!-- Node1&#45;&gt;Node13 -->
<g id="edge12" class="edge">
<title>Node1&#45;&gt;Node13</title>
<path fill="none" stroke="midnightblue" d="M1874.05,-142.44C1799,-134.08 1662.35,-117.76 1546.5,-98 1541.79,-97.2 1536.92,-96.3 1532.04,-95.36"/>
<polygon fill="midnightblue" stroke="midnightblue" points="1873.9,-145.95 1884.22,-143.57 1874.67,-138.99 1873.9,-145.95"/>
</g>
<!-- Node14 -->
<g id="node14" class="node">
<title>Node14</title>
<g id="a_node14"><a xlink:href="ps2netfs_8c.html" target="_top" xlink:title=" ">
<polygon fill="white" stroke="black" points="1051.5,-6 1051.5,-25 1181.5,-25 1181.5,-6 1051.5,-6"/>
<text text-anchor="middle" x="1116.5" y="-13" font-family="Helvetica,sans-Serif" font-size="10.00">iop/fs/netfs/src/ps2netfs.c</text>
</a>
</g>
</g>
<!-- Node1&#45;&gt;Node14 -->
<g id="edge13" class="edge">
<title>Node1&#45;&gt;Node14</title>
<path fill="none" stroke="midnightblue" d="M1874.27,-149.32C1802.85,-148.39 1677.16,-140.13 1579.5,-98 1559.17,-89.23 1561,-75.36 1540.5,-67 1395.69,-7.97 1345.17,-54.06 1190.5,-31 1179.49,-29.36 1167.64,-27.21 1156.71,-25.07"/>
<polygon fill="midnightblue" stroke="midnightblue" points="1874.38,-152.82 1884.41,-149.4 1874.44,-145.82 1874.38,-152.82"/>
</g>
<!-- Node15 -->
<g id="node15" class="node">
<title>Node15</title>
<g id="a_node15"><a xlink:href="iop_2i_link_2_i_e_e_e1394__bd_2src_2irx__imports_8h_source.html" target="_top" xlink:title=" ">
<polygon fill="white" stroke="black" points="1813,-67.5 1813,-97.5 1920,-97.5 1920,-67.5 1813,-67.5"/>
<text text-anchor="start" x="1821" y="-85.5" font-family="Helvetica,sans-Serif" font-size="10.00">iop/iLink/IEEE1394</text>
<text text-anchor="middle" x="1866.5" y="-74.5" font-family="Helvetica,sans-Serif" font-size="10.00">_bd/src/irx_imports.h</text>
</a>
</g>
</g>
<!-- Node1&#45;&gt;Node15 -->
<g id="edge14" class="edge">
<title>Node1&#45;&gt;Node15</title>
<path fill="none" stroke="midnightblue" d="M1909.35,-127.02C1899.82,-117.34 1888.83,-106.17 1880.36,-97.58"/>
<polygon fill="midnightblue" stroke="midnightblue" points="1907.1,-129.73 1916.61,-134.4 1912.09,-124.81 1907.1,-129.73"/>
</g>
<!-- Node16 -->
<g id="node16" class="node">
<title>Node16</title>
<g id="a_node16"><a xlink:href="iop_2i_link_2_i_e_e_e1394__disk_2src_2irx__imports_8h_source.html" target="_top" xlink:title=" ">
<polygon fill="white" stroke="black" points="1938.5,-67.5 1938.5,-97.5 2052.5,-97.5 2052.5,-67.5 1938.5,-67.5"/>
<text text-anchor="start" x="1946.5" y="-85.5" font-family="Helvetica,sans-Serif" font-size="10.00">iop/iLink/IEEE1394</text>
<text text-anchor="middle" x="1995.5" y="-74.5" font-family="Helvetica,sans-Serif" font-size="10.00">_disk/src/irx_imports.h</text>
</a>
</g>
</g>
<!-- Node1&#45;&gt;Node16 -->
<g id="edge15" class="edge">
<title>Node1&#45;&gt;Node16</title>
<path fill="none" stroke="midnightblue" d="M1951.69,-127.31C1961.44,-117.56 1972.74,-106.26 1981.42,-97.58"/>
<polygon fill="midnightblue" stroke="midnightblue" points="1949.2,-124.85 1944.6,-134.4 1954.15,-129.8 1949.2,-124.85"/>
</g>
<!-- Node17 -->
<g id="node17" class="node">
<title>Node17</title>
<g id="a_node17"><a xlink:href="i_link_8c_source.html" target="_top" xlink:title=" ">
<polygon fill="white" stroke="black" points="2070.5,-67.5 2070.5,-97.5 2166.5,-97.5 2166.5,-67.5 2070.5,-67.5"/>
<text text-anchor="start" x="2078.5" y="-85.5" font-family="Helvetica,sans-Serif" font-size="10.00">iop/iLink/iLinkman</text>
<text text-anchor="middle" x="2118.5" y="-74.5" font-family="Helvetica,sans-Serif" font-size="10.00">/src/iLink.c</text>
</a>
</g>
</g>
<!-- Node1&#45;&gt;Node17 -->
<g id="edge16" class="edge">
<title>Node1&#45;&gt;Node17</title>
<path fill="none" stroke="midnightblue" d="M1980.85,-131.09C2011.2,-120.6 2049.35,-107.41 2077.79,-97.58"/>
<polygon fill="midnightblue" stroke="midnightblue" points="1979.6,-127.82 1971.29,-134.4 1981.89,-134.44 1979.6,-127.82"/>
</g>
<!-- Node18 -->
<g id="node18" class="node">
<title>Node18</title>
<g id="a_node18"><a xlink:href="iop_2i_link_2i_linkman_2src_2irx__imports_8h_source.html" target="_top" xlink:title=" ">
<polygon fill="white" stroke="black" points="2184.5,-67.5 2184.5,-97.5 2280.5,-97.5 2280.5,-67.5 2184.5,-67.5"/>
<text text-anchor="start" x="2192.5" y="-85.5" font-family="Helvetica,sans-Serif" font-size="10.00">iop/iLink/iLinkman</text>
<text text-anchor="middle" x="2232.5" y="-74.5" font-family="Helvetica,sans-Serif" font-size="10.00">/src/irx_imports.h</text>
</a>
</g>
</g>
<!-- Node1&#45;&gt;Node18 -->
<g id="edge17" class="edge">
<title>Node1&#45;&gt;Node18</title>
<path fill="none" stroke="midnightblue" d="M1986.61,-137.69C2036.38,-127.93 2110.96,-112.85 2175.5,-98 2178.39,-97.34 2181.35,-96.64 2184.34,-95.92"/>
<polygon fill="midnightblue" stroke="midnightblue" points="1985.84,-134.28 1976.7,-139.63 1987.18,-141.15 1985.84,-134.28"/>
</g>
<!-- Node19 -->
<g id="node19" class="node">
<title>Node19</title>
<g id="a_node19"><a xlink:href="iop_2memorycard_2mcman_2src_2irx__imports_8h_source.html" target="_top" xlink:title=" ">
<polygon fill="white" stroke="black" points="2299,-67.5 2299,-97.5 2420,-97.5 2420,-67.5 2299,-67.5"/>
<text text-anchor="start" x="2307" y="-85.5" font-family="Helvetica,sans-Serif" font-size="10.00">iop/memorycard/mcman</text>
<text text-anchor="middle" x="2359.5" y="-74.5" font-family="Helvetica,sans-Serif" font-size="10.00">/src/irx_imports.h</text>
</a>
</g>
</g>
<!-- Node1&#45;&gt;Node19 -->
<g id="edge18" class="edge">
<title>Node1&#45;&gt;Node19</title>
<path fill="none" stroke="midnightblue" d="M1986.59,-141.75C2057.39,-132.96 2182.82,-116.53 2289.5,-98 2292.56,-97.47 2295.68,-96.9 2298.84,-96.31"/>
<polygon fill="midnightblue" stroke="midnightblue" points="1986.05,-138.29 1976.55,-142.99 1986.91,-145.24 1986.05,-138.29"/>
</g>
<!-- Node20 -->
<g id="node20" class="node">
<title>Node20</title>
<g id="a_node20"><a xlink:href="mcman-internal_8h_source.html" target="_top" xlink:title=" ">
<polygon fill="white" stroke="black" points="2438,-67.5 2438,-97.5 2559,-97.5 2559,-67.5 2438,-67.5"/>
<text text-anchor="start" x="2446" y="-85.5" font-family="Helvetica,sans-Serif" font-size="10.00">iop/memorycard/mcman</text>
<text text-anchor="middle" x="2498.5" y="-74.5" font-family="Helvetica,sans-Serif" font-size="10.00">/src/mcman&#45;internal.h</text>
</a>
</g>
</g>
<!-- Node1&#45;&gt;Node20 -->
<g id="edge19" class="edge">
<title>Node1&#45;&gt;Node20</title>
<path fill="none" stroke="midnightblue" d="M1986.81,-144.76C2079.49,-138.17 2269.85,-122.78 2429.5,-98 2432.28,-97.57 2435.12,-97.1 2437.98,-96.6"/>
<polygon fill="midnightblue" stroke="midnightblue" points="1986.53,-141.27 1976.8,-145.47 1987.02,-148.25 1986.53,-141.27"/>
</g>
<!-- Node26 -->
<g id="node26" class="node">
<title>Node26</title>
<g id="a_node26"><a xlink:href="iop_2network_2smbman_2src_2irx__imports_8h_source.html" target="_top" xlink:title=" ">
<polygon fill="white" stroke="black" points="2577,-67.5 2577,-97.5 2684,-97.5 2684,-67.5 2577,-67.5"/>
<text text-anchor="start" x="2585" y="-85.5" font-family="Helvetica,sans-Serif" font-size="10.00">iop/network/smbman</text>
<text text-anchor="middle" x="2630.5" y="-74.5" font-family="Helvetica,sans-Serif" font-size="10.00">/src/irx_imports.h</text>
</a>
</g>
</g>
<!-- Node1&#45;&gt;Node26 -->
<g id="edge25" class="edge">
<title>Node1&#45;&gt;Node26</title>
<path fill="none" stroke="midnightblue" d="M1986.84,-146.89C2098.45,-143.08 2355.3,-131.17 2568.5,-98 2571.23,-97.58 2574.02,-97.09 2576.83,-96.57"/>
<polygon fill="midnightblue" stroke="midnightblue" points="1986.69,-143.39 1976.81,-147.23 1986.92,-150.39 1986.69,-143.39"/>
</g>
<!-- Node27 -->
<g id="node27" class="node">
<title>Node27</title>
<g id="a_node27"><a xlink:href="smb_8c_source.html" target="_top" xlink:title=" ">
<polygon fill="white" stroke="black" points="2702,-67.5 2702,-97.5 2809,-97.5 2809,-67.5 2702,-67.5"/>
<text text-anchor="start" x="2710" y="-85.5" font-family="Helvetica,sans-Serif" font-size="10.00">iop/network/smbman</text>
<text text-anchor="middle" x="2755.5" y="-74.5" font-family="Helvetica,sans-Serif" font-size="10.00">/src/smb.c</text>
</a>
</g>
</g>
<!-- Node1&#45;&gt;Node27 -->
<g id="edge26" class="edge">
<title>Node1&#45;&gt;Node27</title>
<path fill="none" stroke="midnightblue" d="M1987.05,-147.91C2114.06,-145.91 2431.36,-137.06 2693.5,-98 2696.23,-97.59 2699.02,-97.13 2701.84,-96.62"/>
<polygon fill="midnightblue" stroke="midnightblue" points="1986.74,-144.42 1976.79,-148.07 1986.85,-151.42 1986.74,-144.42"/>
</g>
<!-- Node28 -->
<g id="node28" class="node">
<title>Node28</title>
<g id="a_node28"><a xlink:href="iop_2network_2udptty_2src_2irx__imports_8h_source.html" target="_top" xlink:title=" ">
<polygon fill="white" stroke="black" points="2827.5,-67.5 2827.5,-97.5 2923.5,-97.5 2923.5,-67.5 2827.5,-67.5"/>
<text text-anchor="start" x="2835.5" y="-85.5" font-family="Helvetica,sans-Serif" font-size="10.00">iop/network/udptty</text>
<text text-anchor="middle" x="2875.5" y="-74.5" font-family="Helvetica,sans-Serif" font-size="10.00">/src/irx_imports.h</text>
</a>
</g>
</g>
<!-- Node1&#45;&gt;Node28 -->
<g id="edge27" class="edge">
<title>Node1&#45;&gt;Node28</title>
<path fill="none" stroke="midnightblue" d="M1986.7,-149.04C2127.61,-149.57 2506.95,-146.03 2818.5,-98 2821.43,-97.55 2824.42,-97.01 2827.43,-96.42"/>
<polygon fill="midnightblue" stroke="midnightblue" points="1986.59,-145.53 1976.58,-148.99 1986.56,-152.53 1986.59,-145.53"/>
</g>
<!-- Node29 -->
<g id="node29" class="node">
<title>Node29</title>
<g id="a_node29"><a xlink:href="udptty_8c_source.html" target="_top" xlink:title=" ">
<polygon fill="white" stroke="black" points="2941.5,-67.5 2941.5,-97.5 3037.5,-97.5 3037.5,-67.5 2941.5,-67.5"/>
<text text-anchor="start" x="2949.5" y="-85.5" font-family="Helvetica,sans-Serif" font-size="10.00">iop/network/udptty</text>
<text text-anchor="middle" x="2989.5" y="-74.5" font-family="Helvetica,sans-Serif" font-size="10.00">/src/udptty.c</text>
</a>
</g>
</g>
<!-- Node1&#45;&gt;Node29 -->
<g id="edge28" class="edge">
<title>Node1&#45;&gt;Node29</title>
<path fill="none" stroke="midnightblue" d="M1986.81,-147.14C2170.01,-142.46 2747.92,-125.85 2932.5,-98 2935.43,-97.56 2938.42,-97.03 2941.44,-96.44"/>
<polygon fill="midnightblue" stroke="midnightblue" points="1986.5,-143.64 1976.59,-147.39 1986.68,-150.64 1986.5,-143.64"/>
</g>
<!-- Node30 -->
<g id="node30" class="node">
<title>Node30</title>
<g id="a_node30"><a xlink:href="adpcm-stream_8c_source.html" target="_top" xlink:title=" ">
<polygon fill="white" stroke="black" points="3055.5,-67.5 3055.5,-97.5 3165.5,-97.5 3165.5,-67.5 3055.5,-67.5"/>
<text text-anchor="start" x="3063.5" y="-85.5" font-family="Helvetica,sans-Serif" font-size="10.00">iop/sound/ps2snd/src</text>
<text text-anchor="middle" x="3110.5" y="-74.5" font-family="Helvetica,sans-Serif" font-size="10.00">/adpcm&#45;stream.c</text>
</a>
</g>
</g>
<!-- Node1&#45;&gt;Node30 -->
<g id="edge29" class="edge">
<title>Node1&#45;&gt;Node30</title>
<path fill="none" stroke="midnightblue" d="M1986.81,-147.28C2183.36,-142.79 2838.31,-126.07 3046.5,-98 3049.44,-97.6 3052.43,-97.14 3055.46,-96.62"/>
<polygon fill="midnightblue" stroke="midnightblue" points="1986.62,-143.78 1976.7,-147.5 1986.78,-150.78 1986.62,-143.78"/>
</g>
<!-- Node31 -->
<g id="node31" class="node">
<title>Node31</title>
<g id="a_node31"><a xlink:href="iop_2sound_2ps2snd_2src_2irx__imports_8h_source.html" target="_top" xlink:title=" ">
<polygon fill="white" stroke="black" points="3183.5,-67.5 3183.5,-97.5 3293.5,-97.5 3293.5,-67.5 3183.5,-67.5"/>
<text text-anchor="start" x="3191.5" y="-85.5" font-family="Helvetica,sans-Serif" font-size="10.00">iop/sound/ps2snd/src</text>
<text text-anchor="middle" x="3238.5" y="-74.5" font-family="Helvetica,sans-Serif" font-size="10.00">/irx_imports.h</text>
</a>
</g>
</g>
<!-- Node1&#45;&gt;Node31 -->
<g id="edge30" class="edge">
<title>Node1&#45;&gt;Node31</title>
<path fill="none" stroke="midnightblue" d="M1986.8,-147.58C2197.6,-143.91 2940.07,-129.05 3174.5,-98 3177.44,-97.61 3180.44,-97.15 3183.46,-96.64"/>
<polygon fill="midnightblue" stroke="midnightblue" points="1986.52,-144.08 1976.59,-147.75 1986.64,-151.08 1986.52,-144.08"/>
</g>
<!-- Node32 -->
<g id="node32" class="node">
<title>Node32</title>
<g id="a_node32"><a xlink:href="iopmgr_8h.html" target="_top" xlink:title=" ">
<polygon fill="white" stroke="black" points="1588.5,-67.5 1588.5,-97.5 1718.5,-97.5 1718.5,-67.5 1588.5,-67.5"/>
<text text-anchor="start" x="1596.5" y="-85.5" font-family="Helvetica,sans-Serif" font-size="10.00">iop/system/iopmgr/include</text>
<text text-anchor="middle" x="1653.5" y="-74.5" font-family="Helvetica,sans-Serif" font-size="10.00">/iopmgr.h</text>
</a>
</g>
</g>
<!-- Node1&#45;&gt;Node32 -->
<g id="edge31" class="edge">
<title>Node1&#45;&gt;Node32</title>
<path fill="none" stroke="midnightblue" d="M1874.48,-135.35C1827.65,-124.37 1761.04,-108.74 1713.22,-97.51"/>
<polygon fill="midnightblue" stroke="midnightblue" points="1873.91,-138.82 1884.45,-137.69 1875.51,-132 1873.91,-138.82"/>
</g>
<!-- Node38 -->
<g id="node38" class="node">
<title>Node38</title>
<g id="a_node38"><a xlink:href="iop_2system_2iopmgr_2src_2slib_8c.html" target="_top" xlink:title=" ">
<polygon fill="white" stroke="black" points="1859,-0.5 1859,-30.5 1972,-30.5 1972,-0.5 1859,-0.5"/>
<text text-anchor="start" x="1867" y="-18.5" font-family="Helvetica,sans-Serif" font-size="10.00">iop/system/iopmgr/src</text>
<text text-anchor="middle" x="1915.5" y="-7.5" font-family="Helvetica,sans-Serif" font-size="10.00">/slib.c</text>
</a>
</g>
</g>
<!-- Node1&#45;&gt;Node38 -->
<g id="edge40" class="edge">
<title>Node1&#45;&gt;Node38</title>
<path fill="none" stroke="midnightblue" d="M1873.84,-146.73C1837.95,-142.3 1794.01,-130.07 1770.5,-98 1762.35,-86.89 1762.52,-78.23 1770.5,-67 1781.19,-51.95 1822.76,-38.41 1858.66,-29.14"/>
<polygon fill="midnightblue" stroke="midnightblue" points="1873.9,-150.25 1884.21,-147.82 1874.63,-143.29 1873.9,-150.25"/>
</g>
<!-- Node39 -->
<g id="node39" class="node">
<title>Node39</title>
<g id="a_node39"><a xlink:href="iop_2system_2iopmgr_2src_2smod_8c.html" target="_top" xlink:title=" ">
<polygon fill="white" stroke="black" points="1990,-0.5 1990,-30.5 2103,-30.5 2103,-0.5 1990,-0.5"/>
<text text-anchor="start" x="1998" y="-18.5" font-family="Helvetica,sans-Serif" font-size="10.00">iop/system/iopmgr/src</text>
<text text-anchor="middle" x="2046.5" y="-7.5" font-family="Helvetica,sans-Serif" font-size="10.00">/smod.c</text>
</a>
</g>
</g>
<!-- Node1&#45;&gt;Node39 -->
<g id="edge41" class="edge">
<title>Node1&#45;&gt;Node39</title>
<path fill="none" stroke="midnightblue" d="M1874.49,-135.05C1829.55,-121.59 1777.86,-98.37 1803.5,-67 1854.29,-4.84 1901.96,-47.61 1980.5,-31 1983.6,-30.34 1986.78,-29.67 1989.99,-28.98"/>
<polygon fill="midnightblue" stroke="midnightblue" points="1873.67,-138.45 1884.24,-137.85 1875.6,-131.72 1873.67,-138.45"/>
</g>
<!-- Node40 -->
<g id="node40" class="node">
<title>Node40</title>
<g id="a_node40"><a xlink:href="sio2man_8c.html" target="_top" xlink:title=" ">
<polygon fill="white" stroke="black" points="3311.5,-67.5 3311.5,-97.5 3415.5,-97.5 3415.5,-67.5 3311.5,-67.5"/>
<text text-anchor="start" x="3319.5" y="-85.5" font-family="Helvetica,sans-Serif" font-size="10.00">iop/system/sio2man</text>
<text text-anchor="middle" x="3363.5" y="-74.5" font-family="Helvetica,sans-Serif" font-size="10.00">/src/sio2man.c</text>
</a>
</g>
</g>
<!-- Node1&#45;&gt;Node40 -->
<g id="edge42" class="edge">
<title>Node1&#45;&gt;Node40</title>
<path fill="none" stroke="midnightblue" d="M1986.93,-147.9C2211.49,-145.29 3041.96,-133.41 3302.5,-98 3305.41,-97.6 3308.39,-97.13 3311.38,-96.6"/>
<polygon fill="midnightblue" stroke="midnightblue" points="1986.66,-144.4 1976.7,-148.02 1986.74,-151.4 1986.66,-144.4"/>
</g>
<!-- Node41 -->
<g id="node41" class="node">
<title>Node41</title>
<g id="a_node41"><a xlink:href="iop_2usb_2camera_2src_2irx__imports_8h_source.html" target="_top" xlink:title=" ">
<polygon fill="white" stroke="black" points="3433.5,-67.5 3433.5,-97.5 3533.5,-97.5 3533.5,-67.5 3433.5,-67.5"/>
<text text-anchor="start" x="3441.5" y="-85.5" font-family="Helvetica,sans-Serif" font-size="10.00">iop/usb/camera/src</text>
<text text-anchor="middle" x="3483.5" y="-74.5" font-family="Helvetica,sans-Serif" font-size="10.00">/irx_imports.h</text>
</a>
</g>
</g>
<!-- Node1&#45;&gt;Node41 -->
<g id="edge43" class="edge">
<title>Node1&#45;&gt;Node41</title>
<path fill="none" stroke="midnightblue" d="M1986.83,-148.16C2223.57,-146.47 3138.89,-137.49 3424.5,-98 3427.43,-97.6 3430.42,-97.11 3433.42,-96.56"/>
<polygon fill="midnightblue" stroke="midnightblue" points="1986.7,-144.66 1976.72,-148.23 1986.75,-151.66 1986.7,-144.66"/>
</g>
<!-- Node42 -->
<g id="node42" class="node">
<title>Node42</title>
<g id="a_node42"><a xlink:href="ps2cam_8c.html" target="_top" xlink:title=" ">
<polygon fill="white" stroke="black" points="3551.5,-67.5 3551.5,-97.5 3651.5,-97.5 3651.5,-67.5 3551.5,-67.5"/>
<text text-anchor="start" x="3559.5" y="-85.5" font-family="Helvetica,sans-Serif" font-size="10.00">iop/usb/camera/src</text>
<text text-anchor="middle" x="3601.5" y="-74.5" font-family="Helvetica,sans-Serif" font-size="10.00">/ps2cam.c</text>
</a>
</g>
</g>
<!-- Node1&#45;&gt;Node42 -->
<g id="edge44" class="edge">
<title>Node1&#45;&gt;Node42</title>
<path fill="none" stroke="midnightblue" d="M1986.73,-148.32C2234.75,-147.28 3232.44,-140.48 3542.5,-98 3545.43,-97.6 3548.42,-97.11 3551.43,-96.56"/>
<polygon fill="midnightblue" stroke="midnightblue" points="1986.49,-144.82 1976.51,-148.36 1986.52,-151.82 1986.49,-144.82"/>
</g>
<!-- Node43 -->
<g id="node43" class="node">
<title>Node43</title>
<g id="a_node43"><a xlink:href="iop_2usb_2keyboard_2src_2irx__imports_8h_source.html" target="_top" xlink:title=" ">
<polygon fill="white" stroke="black" points="3670,-67.5 3670,-97.5 3777,-97.5 3777,-67.5 3670,-67.5"/>
<text text-anchor="start" x="3678" y="-85.5" font-family="Helvetica,sans-Serif" font-size="10.00">iop/usb/keyboard/src</text>
<text text-anchor="middle" x="3723.5" y="-74.5" font-family="Helvetica,sans-Serif" font-size="10.00">/irx_imports.h</text>
</a>
</g>
</g>
<!-- Node1&#45;&gt;Node43 -->
<g id="edge45" class="edge">
<title>Node1&#45;&gt;Node43</title>
<path fill="none" stroke="midnightblue" d="M1986.97,-148.35C2246.41,-147.42 3325.76,-140.98 3660.5,-98 3663.51,-97.61 3666.58,-97.15 3669.67,-96.62"/>
<polygon fill="midnightblue" stroke="midnightblue" points="1986.64,-144.85 1976.65,-148.38 1986.67,-151.85 1986.64,-144.85"/>
</g>
<!-- Node44 -->
<g id="node44" class="node">
<title>Node44</title>
<g id="a_node44"><a xlink:href="ps2kbd_8c.html" target="_top" xlink:title=" ">
<polygon fill="white" stroke="black" points="3795,-67.5 3795,-97.5 3902,-97.5 3902,-67.5 3795,-67.5"/>
<text text-anchor="start" x="3803" y="-85.5" font-family="Helvetica,sans-Serif" font-size="10.00">iop/usb/keyboard/src</text>
<text text-anchor="middle" x="3848.5" y="-74.5" font-family="Helvetica,sans-Serif" font-size="10.00">/ps2kbd.c</text>
</a>
</g>
</g>
<!-- Node1&#45;&gt;Node44 -->
<g id="edge46" class="edge">
<title>Node1&#45;&gt;Node44</title>
<path fill="none" stroke="midnightblue" d="M1987.06,-148.5C2258.1,-148.29 3425.68,-144.61 3786.5,-98 3789.24,-97.65 3792.04,-97.22 3794.85,-96.75"/>
<polygon fill="midnightblue" stroke="midnightblue" points="1986.68,-145 1976.68,-148.51 1986.69,-152 1986.68,-145"/>
</g>
<!-- Node45 -->
<g id="node45" class="node">
<title>Node45</title>
<g id="a_node45"><a xlink:href="iop_2usb_2usbhdfsd_2src_2irx__imports_8h_source.html" target="_top" xlink:title=" ">
<polygon fill="white" stroke="black" points="3920,-67.5 3920,-97.5 4027,-97.5 4027,-67.5 3920,-67.5"/>
<text text-anchor="start" x="3928" y="-85.5" font-family="Helvetica,sans-Serif" font-size="10.00">iop/usb/usbhdfsd/src</text>
<text text-anchor="middle" x="3973.5" y="-74.5" font-family="Helvetica,sans-Serif" font-size="10.00">/irx_imports.h</text>
</a>
</g>
</g>
<!-- Node1&#45;&gt;Node45 -->
<g id="edge47" class="edge">
<title>Node1&#45;&gt;Node45</title>
<path fill="none" stroke="midnightblue" d="M1987.17,-148.62C2269.36,-148.96 3524.69,-147.63 3911.5,-98 3914.24,-97.65 3917.04,-97.23 3919.85,-96.75"/>
<polygon fill="midnightblue" stroke="midnightblue" points="1986.78,-145.12 1976.77,-148.6 1986.77,-152.12 1986.78,-145.12"/>
</g>
<!-- Node21 -->
<g id="node21" class="node">
<title>Node21</title>
<g id="a_node21"><a xlink:href="iop_2memorycard_2mcman_2src_2main_8c_source.html" target="_top" xlink:title=" ">
<polygon fill="white" stroke="black" points="2299,-0.5 2299,-30.5 2420,-30.5 2420,-0.5 2299,-0.5"/>
<text text-anchor="start" x="2307" y="-18.5" font-family="Helvetica,sans-Serif" font-size="10.00">iop/memorycard/mcman</text>
<text text-anchor="middle" x="2359.5" y="-7.5" font-family="Helvetica,sans-Serif" font-size="10.00">/src/main.c</text>
</a>
</g>
</g>
<!-- Node20&#45;&gt;Node21 -->
<g id="edge20" class="edge">
<title>Node20&#45;&gt;Node21</title>
<path fill="none" stroke="midnightblue" d="M2459.22,-63.13C2437.13,-52.8 2409.99,-40.11 2389.6,-30.58"/>
<polygon fill="midnightblue" stroke="midnightblue" points="2457.8,-66.33 2468.34,-67.4 2460.76,-59.99 2457.8,-66.33"/>
</g>
<!-- Node22 -->
<g id="node22" class="node">
<title>Node22</title>
<g id="a_node22"><a xlink:href="mcdev_8c_source.html" target="_top" xlink:title=" ">
<polygon fill="white" stroke="black" points="2438,-0.5 2438,-30.5 2559,-30.5 2559,-0.5 2438,-0.5"/>
<text text-anchor="start" x="2446" y="-18.5" font-family="Helvetica,sans-Serif" font-size="10.00">iop/memorycard/mcman</text>
<text text-anchor="middle" x="2498.5" y="-7.5" font-family="Helvetica,sans-Serif" font-size="10.00">/src/mcdev.c</text>
</a>
</g>
</g>
<!-- Node20&#45;&gt;Node22 -->
<g id="edge21" class="edge">
<title>Node20&#45;&gt;Node22</title>
<path fill="none" stroke="midnightblue" d="M2498.5,-57.11C2498.5,-48.15 2498.5,-38.32 2498.5,-30.58"/>
<polygon fill="midnightblue" stroke="midnightblue" points="2495,-57.4 2498.5,-67.4 2502,-57.4 2495,-57.4"/>
</g>
<!-- Node23 -->
<g id="node23" class="node">
<title>Node23</title>
<g id="a_node23"><a xlink:href="mcsio2_8c_source.html" target="_top" xlink:title=" ">
<polygon fill="white" stroke="black" points="2577,-0.5 2577,-30.5 2698,-30.5 2698,-0.5 2577,-0.5"/>
<text text-anchor="start" x="2585" y="-18.5" font-family="Helvetica,sans-Serif" font-size="10.00">iop/memorycard/mcman</text>
<text text-anchor="middle" x="2637.5" y="-7.5" font-family="Helvetica,sans-Serif" font-size="10.00">/src/mcsio2.c</text>
</a>
</g>
</g>
<!-- Node20&#45;&gt;Node23 -->
<g id="edge22" class="edge">
<title>Node20&#45;&gt;Node23</title>
<path fill="none" stroke="midnightblue" d="M2537.78,-63.13C2559.87,-52.8 2587.01,-40.11 2607.4,-30.58"/>
<polygon fill="midnightblue" stroke="midnightblue" points="2536.24,-59.99 2528.66,-67.4 2539.2,-66.33 2536.24,-59.99"/>
</g>
<!-- Node24 -->
<g id="node24" class="node">
<title>Node24</title>
<g id="a_node24"><a xlink:href="ps1mc__fio_8c_source.html" target="_top" xlink:title=" ">
<polygon fill="white" stroke="black" points="2716,-0.5 2716,-30.5 2837,-30.5 2837,-0.5 2716,-0.5"/>
<text text-anchor="start" x="2724" y="-18.5" font-family="Helvetica,sans-Serif" font-size="10.00">iop/memorycard/mcman</text>
<text text-anchor="middle" x="2776.5" y="-7.5" font-family="Helvetica,sans-Serif" font-size="10.00">/src/ps1mc_fio.c</text>
</a>
</g>
</g>
<!-- Node20&#45;&gt;Node24 -->
<g id="edge23" class="edge">
<title>Node20&#45;&gt;Node24</title>
<path fill="none" stroke="midnightblue" d="M2568.28,-65.19C2613.8,-54.54 2672.64,-40.78 2716.15,-30.61"/>
<polygon fill="midnightblue" stroke="midnightblue" points="2567.42,-61.79 2558.48,-67.48 2569.01,-68.61 2567.42,-61.79"/>
</g>
<!-- Node25 -->
<g id="node25" class="node">
<title>Node25</title>
<g id="a_node25"><a xlink:href="ps2mc__fio_8c_source.html" target="_top" xlink:title=" ">
<polygon fill="white" stroke="black" points="2160,-0.5 2160,-30.5 2281,-30.5 2281,-0.5 2160,-0.5"/>
<text text-anchor="start" x="2168" y="-18.5" font-family="Helvetica,sans-Serif" font-size="10.00">iop/memorycard/mcman</text>
<text text-anchor="middle" x="2220.5" y="-7.5" font-family="Helvetica,sans-Serif" font-size="10.00">/src/ps2mc_fio.c</text>
</a>
</g>
</g>
<!-- Node20&#45;&gt;Node25 -->
<g id="edge24" class="edge">
<title>Node20&#45;&gt;Node25</title>
<path fill="none" stroke="midnightblue" d="M2428.72,-65.19C2383.2,-54.54 2324.36,-40.78 2280.85,-30.61"/>
<polygon fill="midnightblue" stroke="midnightblue" points="2427.99,-68.61 2438.52,-67.48 2429.58,-61.79 2427.99,-68.61"/>
</g>
<!-- Node32&#45;&gt;Node14 -->
<g id="edge34" class="edge">
<title>Node32&#45;&gt;Node14</title>
<path fill="none" stroke="midnightblue" d="M1578.38,-67.55C1577.07,-67.36 1575.78,-67.18 1574.5,-67 1404.7,-43.5 1360.15,-55.51 1190.5,-31 1179.36,-29.39 1167.35,-27.23 1156.32,-25.06"/>
<polygon fill="midnightblue" stroke="midnightblue" points="1578.06,-71.04 1588.48,-69.1 1579.12,-64.12 1578.06,-71.04"/>
</g>
<!-- Node33 -->
<g id="node33" class="node">
<title>Node33</title>
<g id="a_node33"><a xlink:href="devscan_8c.html" target="_top" xlink:title=" ">
<polygon fill="white" stroke="black" points="1331,-6 1331,-25 1460,-25 1460,-6 1331,-6"/>
<text text-anchor="middle" x="1395.5" y="-13" font-family="Helvetica,sans-Serif" font-size="10.00">iop/fs/netfs/src/devscan.c</text>
</a>
</g>
</g>
<!-- Node32&#45;&gt;Node33 -->
<g id="edge32" class="edge">
<title>Node32&#45;&gt;Node33</title>
<path fill="none" stroke="midnightblue" d="M1587.97,-64.99C1537.41,-52.25 1469.52,-35.15 1429.35,-25.03"/>
<polygon fill="midnightblue" stroke="midnightblue" points="1587.28,-68.43 1597.84,-67.48 1588.99,-61.64 1587.28,-68.43"/>
</g>
<!-- Node34 -->
<g id="node34" class="node">
<title>Node34</title>
<g id="a_node34"><a xlink:href="ps2__fio_8c.html" target="_top" xlink:title=" ">
<polygon fill="white" stroke="black" points="1478,-0.5 1478,-30.5 1579,-30.5 1579,-0.5 1478,-0.5"/>
<text text-anchor="start" x="1486" y="-18.5" font-family="Helvetica,sans-Serif" font-size="10.00">iop/fs/netfs/src/ps2</text>
<text text-anchor="middle" x="1528.5" y="-7.5" font-family="Helvetica,sans-Serif" font-size="10.00">_fio.c</text>
</a>
</g>
</g>
<!-- Node32&#45;&gt;Node34 -->
<g id="edge33" class="edge">
<title>Node32&#45;&gt;Node34</title>
<path fill="none" stroke="midnightblue" d="M1617.37,-62.71C1597.66,-52.46 1573.66,-39.98 1555.57,-30.58"/>
<polygon fill="midnightblue" stroke="midnightblue" points="1615.89,-65.89 1626.38,-67.4 1619.12,-59.68 1615.89,-65.89"/>
</g>
<!-- Node35 -->
<g id="node35" class="node">
<title>Node35</title>
<g id="a_node35"><a xlink:href="commandline_8c.html" target="_top" xlink:title=" ">
<polygon fill="white" stroke="black" points="1597,-0.5 1597,-30.5 1710,-30.5 1710,-0.5 1597,-0.5"/>
<text text-anchor="start" x="1605" y="-18.5" font-family="Helvetica,sans-Serif" font-size="10.00">iop/system/iopmgr/src</text>
<text text-anchor="middle" x="1653.5" y="-7.5" font-family="Helvetica,sans-Serif" font-size="10.00">/commandline.c</text>
</a>
</g>
</g>
<!-- Node32&#45;&gt;Node35 -->
<g id="edge35" class="edge">
<title>Node32&#45;&gt;Node35</title>
<path fill="none" stroke="midnightblue" d="M1653.5,-57.11C1653.5,-48.15 1653.5,-38.32 1653.5,-30.58"/>
<polygon fill="midnightblue" stroke="midnightblue" points="1650,-57.4 1653.5,-67.4 1657,-57.4 1650,-57.4"/>
</g>
<!-- Node36 -->
<g id="node36" class="node">
<title>Node36</title>
<g id="a_node36"><a xlink:href="devices_8c.html" target="_top" xlink:title=" ">
<polygon fill="white" stroke="black" points="1728,-0.5 1728,-30.5 1841,-30.5 1841,-0.5 1728,-0.5"/>
<text text-anchor="start" x="1736" y="-18.5" font-family="Helvetica,sans-Serif" font-size="10.00">iop/system/iopmgr/src</text>
<text text-anchor="middle" x="1784.5" y="-7.5" font-family="Helvetica,sans-Serif" font-size="10.00">/devices.c</text>
</a>
</g>
</g>
<!-- Node32&#45;&gt;Node36 -->
<g id="edge36" class="edge">
<title>Node32&#45;&gt;Node36</title>
<path fill="none" stroke="midnightblue" d="M1691.08,-62.85C1711.79,-52.58 1737.09,-40.03 1756.13,-30.58"/>
<polygon fill="midnightblue" stroke="midnightblue" points="1689.33,-59.82 1681.93,-67.4 1692.44,-66.09 1689.33,-59.82"/>
</g>
<!-- Node37 -->
<g id="node37" class="node">
<title>Node37</title>
<g id="a_node37"><a xlink:href="iop_2system_2iopmgr_2src_2main_8c.html" target="_top" xlink:title=" ">
<polygon fill="white" stroke="black" points="1200,-0.5 1200,-30.5 1313,-30.5 1313,-0.5 1200,-0.5"/>
<text text-anchor="start" x="1208" y="-18.5" font-family="Helvetica,sans-Serif" font-size="10.00">iop/system/iopmgr/src</text>
<text text-anchor="middle" x="1256.5" y="-7.5" font-family="Helvetica,sans-Serif" font-size="10.00">/main.c</text>
</a>
</g>
</g>
<!-- Node32&#45;&gt;Node37 -->
<g id="edge37" class="edge">
<title>Node32&#45;&gt;Node37</title>
<path fill="none" stroke="midnightblue" d="M1578.36,-67.64C1577.07,-67.42 1575.78,-67.21 1574.5,-67 1462.4,-48.74 1433.23,-51.38 1321.5,-31 1318.77,-30.5 1315.98,-29.97 1313.17,-29.41"/>
<polygon fill="midnightblue" stroke="midnightblue" points="1577.99,-71.12 1588.44,-69.34 1579.16,-64.22 1577.99,-71.12"/>
</g>
<!-- Node32&#45;&gt;Node38 -->
<g id="edge38" class="edge">
<title>Node32&#45;&gt;Node38</title>
<path fill="none" stroke="midnightblue" d="M1719.8,-65.05C1762.63,-54.43 1817.79,-40.74 1858.62,-30.61"/>
<polygon fill="midnightblue" stroke="midnightblue" points="1718.89,-61.67 1710.03,-67.48 1720.58,-68.47 1718.89,-61.67"/>
</g>
<!-- Node32&#45;&gt;Node39 -->
<g id="edge39" class="edge">
<title>Node32&#45;&gt;Node39</title>
<path fill="none" stroke="midnightblue" d="M1728.5,-71.29C1794.93,-61.92 1894.43,-47.08 1980.5,-31 1983.5,-30.44 1986.57,-29.84 1989.66,-29.22"/>
<polygon fill="midnightblue" stroke="midnightblue" points="1727.96,-67.83 1718.54,-72.69 1728.93,-74.76 1727.96,-67.83"/>
</g>
</g>
</svg>
