<?xml version="1.0" encoding="UTF-8" standalone="no"?>
<!DOCTYPE svg PUBLIC "-//W3C//DTD SVG 1.1//EN"
 "http://www.w3.org/Graphics/SVG/1.1/DTD/svg11.dtd">
<!-- Generated by graphviz version 2.49.3 (20211027.1534)
 -->
<!-- Title: common/include/libcdvd&#45;common.h Pages: 1 -->
<!--zoomable 240 -->
<svg id="main" version="1.1" xmlns="http://www.w3.org/2000/svg" xmlns:xlink="http://www.w3.org/1999/xlink" xml:space="preserve" onload="init(evt)">
<style type="text/css"><![CDATA[
.edge:hover path { stroke: red; }
.edge:hover polygon { stroke: red; fill: red; }
]]></style>
<script type="text/javascript"><![CDATA[
var edges = document.getElementsByTagName('g');
if (edges && edges.length) {
  for (var i=0;i<edges.length;i++) {
    if (edges[i].id.substr(0,4)=='edge') {
      edges[i].setAttribute('class','edge');
    }
  }
}
]]></script>
        <defs>
                <circle id="rim" cx="0" cy="0" r="7"/>
                <circle id="rim2" cx="0" cy="0" r="3.5"/>
                <g id="zoomPlus">
                        <use xlink:href="#rim" fill="#404040">
                                <set attributeName="fill" to="#808080" begin="zoomplus.mouseover" end="zoomplus.mouseout"/>
                        </use>
                        <path d="M-4,0h8M0,-4v8" fill="none" stroke="white" stroke-width="1.5" pointer-events="none"/>
                </g>
                <g id="zoomMin">
                        <use xlink:href="#rim" fill="#404040">
                                <set attributeName="fill" to="#808080" begin="zoomminus.mouseover" end="zoomminus.mouseout"/>
                        </use>
                        <path d="M-4,0h8" fill="none" stroke="white" stroke-width="1.5" pointer-events="none"/>
                </g>
                <g id="dirArrow">
                        <path fill="none" stroke="white" stroke-width="1.5" d="M0,-3.0v7 M-2.5,-0.5L0,-3.0L2.5,-0.5"/>
                </g>
               <g id="resetDef">
                       <use xlink:href="#rim2" fill="#404040">
                               <set attributeName="fill" to="#808080" begin="reset.mouseover" end="reset.mouseout"/>
                       </use>
               </g>
        </defs>

<script type="text/javascript">
var viewWidth = 4018;
var viewHeight = 240;
var sectionId = 'dynsection-1';
</script>
<script xlink:href="svgpan.js"/>
<svg id="graph" class="graph">
<g id="viewport">
<title>common/include/libcdvd&#45;common.h</title>
<polygon fill="white" stroke="transparent" points="-4,4 -4,-236 4013.5,-236 4013.5,4 -4,4"/>
<!-- Node1 -->
<g id="node1" class="node">
<title>Node1</title>
<g id="a_node1"><a xlink:title=" ">
<polygon fill="#bfbfbf" stroke="black" points="1649,-201.5 1649,-231.5 1771,-231.5 1771,-201.5 1649,-201.5"/>
<text text-anchor="start" x="1657" y="-219.5" font-family="Helvetica,sans-Serif" font-size="10.00">common/include/libcdvd</text>
<text text-anchor="middle" x="1710" y="-208.5" font-family="Helvetica,sans-Serif" font-size="10.00">&#45;common.h</text>
</a>
</g>
</g>
<!-- Node2 -->
<g id="node2" class="node">
<title>Node2</title>
<g id="a_node2"><a xlink:href="libcdvd_8h.html" target="_top" xlink:title=" ">
<polygon fill="white" stroke="black" points="921.5,-134.5 921.5,-164.5 1022.5,-164.5 1022.5,-134.5 921.5,-134.5"/>
<text text-anchor="start" x="929.5" y="-152.5" font-family="Helvetica,sans-Serif" font-size="10.00">ee/rpc/cdvd/include</text>
<text text-anchor="middle" x="972" y="-141.5" font-family="Helvetica,sans-Serif" font-size="10.00">/libcdvd.h</text>
</a>
</g>
</g>
<!-- Node1&#45;&gt;Node2 -->
<g id="edge1" class="edge">
<title>Node1&#45;&gt;Node2</title>
<path fill="none" stroke="midnightblue" d="M1638.62,-209.21C1490.13,-196.13 1151.1,-166.27 1022.62,-154.96"/>
<polygon fill="midnightblue" stroke="midnightblue" points="1638.71,-212.73 1648.98,-210.13 1639.32,-205.76 1638.71,-212.73"/>
</g>
<!-- Node15 -->
<g id="node15" class="node">
<title>Node15</title>
<g id="a_node15"><a xlink:href="cdfs__iop_8c_source.html" target="_top" xlink:title=" ">
<polygon fill="white" stroke="black" points="1653.5,-134.5 1653.5,-164.5 1766.5,-164.5 1766.5,-134.5 1653.5,-134.5"/>
<text text-anchor="start" x="1661.5" y="-152.5" font-family="Helvetica,sans-Serif" font-size="10.00">iop/cdvd/cdfs/src/cdfs</text>
<text text-anchor="middle" x="1710" y="-141.5" font-family="Helvetica,sans-Serif" font-size="10.00">_iop.c</text>
</a>
</g>
</g>
<!-- Node1&#45;&gt;Node15 -->
<g id="edge15" class="edge">
<title>Node1&#45;&gt;Node15</title>
<path fill="none" stroke="midnightblue" d="M1710,-191.11C1710,-182.15 1710,-172.32 1710,-164.58"/>
<polygon fill="midnightblue" stroke="midnightblue" points="1706.5,-191.4 1710,-201.4 1713.5,-191.4 1706.5,-191.4"/>
</g>
<!-- Node16 -->
<g id="node16" class="node">
<title>Node16</title>
<g id="a_node16"><a xlink:href="cdvdman_8h.html" target="_top" xlink:title=" ">
<polygon fill="white" stroke="black" points="2458,-134.5 2458,-164.5 2550,-164.5 2550,-134.5 2458,-134.5"/>
<text text-anchor="start" x="2466" y="-152.5" font-family="Helvetica,sans-Serif" font-size="10.00">iop/kernel/include</text>
<text text-anchor="middle" x="2504" y="-141.5" font-family="Helvetica,sans-Serif" font-size="10.00">/cdvdman.h</text>
</a>
</g>
</g>
<!-- Node1&#45;&gt;Node16 -->
<g id="edge16" class="edge">
<title>Node1&#45;&gt;Node16</title>
<path fill="none" stroke="midnightblue" d="M1781.53,-209.64C1941.59,-196.54 2324.99,-165.15 2457.79,-154.28"/>
<polygon fill="midnightblue" stroke="midnightblue" points="1780.99,-206.18 1771.31,-210.48 1781.57,-213.15 1780.99,-206.18"/>
</g>
<!-- Node3 -->
<g id="node3" class="node">
<title>Node3</title>
<g id="a_node3"><a xlink:href="osd__config_8h.html" target="_top" xlink:title=" ">
<polygon fill="white" stroke="black" points="560.5,-67.5 560.5,-97.5 669.5,-97.5 669.5,-67.5 560.5,-67.5"/>
<text text-anchor="start" x="568.5" y="-85.5" font-family="Helvetica,sans-Serif" font-size="10.00">ee/kernel/include/osd</text>
<text text-anchor="middle" x="615" y="-74.5" font-family="Helvetica,sans-Serif" font-size="10.00">_config.h</text>
</a>
</g>
</g>
<!-- Node2&#45;&gt;Node3 -->
<g id="edge2" class="edge">
<title>Node2&#45;&gt;Node3</title>
<path fill="none" stroke="midnightblue" d="M911.13,-137.42C843.37,-125.08 734.85,-105.32 669.69,-93.46"/>
<polygon fill="midnightblue" stroke="midnightblue" points="910.76,-140.91 921.23,-139.26 912.02,-134.02 910.76,-140.91"/>
</g>
<!-- Node12 -->
<g id="node12" class="node">
<title>Node12</title>
<g id="a_node12"><a xlink:href="scmd_8c.html" target="_top" xlink:title=" ">
<polygon fill="white" stroke="black" points="1005.5,-6 1005.5,-25 1124.5,-25 1124.5,-6 1005.5,-6"/>
<text text-anchor="middle" x="1065" y="-13" font-family="Helvetica,sans-Serif" font-size="10.00">ee/rpc/cdvd/src/scmd.c</text>
</a>
</g>
</g>
<!-- Node2&#45;&gt;Node12 -->
<g id="edge14" class="edge">
<title>Node2&#45;&gt;Node12</title>
<path fill="none" stroke="midnightblue" d="M930.61,-129.16C918.52,-121.3 906.75,-110.97 900,-98 893.64,-85.78 891.81,-78.08 900,-67 907.86,-56.37 983.31,-36.39 1029.42,-25.01"/>
<polygon fill="midnightblue" stroke="midnightblue" points="929.04,-132.29 939.41,-134.44 932.64,-126.29 929.04,-132.29"/>
</g>
<!-- Node13 -->
<g id="node13" class="node">
<title>Node13</title>
<g id="a_node13"><a xlink:href="libcdvd_8c.html" target="_top" xlink:title=" ">
<polygon fill="white" stroke="black" points="909.5,-73 909.5,-92 1034.5,-92 1034.5,-73 909.5,-73"/>
<text text-anchor="middle" x="972" y="-80" font-family="Helvetica,sans-Serif" font-size="10.00">ee/rpc/cdvd/src/libcdvd.c</text>
</a>
</g>
</g>
<!-- Node2&#45;&gt;Node13 -->
<g id="edge12" class="edge">
<title>Node2&#45;&gt;Node13</title>
<path fill="none" stroke="midnightblue" d="M972,-124.25C972,-113.02 972,-100.38 972,-92.19"/>
<polygon fill="midnightblue" stroke="midnightblue" points="968.5,-124.4 972,-134.4 975.5,-124.4 968.5,-124.4"/>
</g>
<!-- Node14 -->
<g id="node14" class="node">
<title>Node14</title>
<g id="a_node14"><a xlink:href="ncmd_8c.html" target="_top" xlink:title=" ">
<polygon fill="white" stroke="black" points="1052.5,-73 1052.5,-92 1171.5,-92 1171.5,-73 1052.5,-73"/>
<text text-anchor="middle" x="1112" y="-80" font-family="Helvetica,sans-Serif" font-size="10.00">ee/rpc/cdvd/src/ncmd.c</text>
</a>
</g>
</g>
<!-- Node2&#45;&gt;Node14 -->
<g id="edge13" class="edge">
<title>Node2&#45;&gt;Node14</title>
<path fill="none" stroke="midnightblue" d="M1011.56,-130.13C1038.51,-117.62 1072.93,-101.64 1093.68,-92.01"/>
<polygon fill="midnightblue" stroke="midnightblue" points="1009.97,-127.01 1002.38,-134.4 1012.92,-133.36 1009.97,-127.01"/>
</g>
<!-- Node4 -->
<g id="node4" class="node">
<title>Node4</title>
<g id="a_node4"><a xlink:href="graph__mode_8c_source.html" target="_top" xlink:title=" ">
<polygon fill="white" stroke="black" points="0,-0.5 0,-30.5 98,-30.5 98,-0.5 0,-0.5"/>
<text text-anchor="start" x="8" y="-18.5" font-family="Helvetica,sans-Serif" font-size="10.00">ee/graph/src/graph</text>
<text text-anchor="middle" x="49" y="-7.5" font-family="Helvetica,sans-Serif" font-size="10.00">_mode.c</text>
</a>
</g>
</g>
<!-- Node3&#45;&gt;Node4 -->
<g id="edge3" class="edge">
<title>Node3&#45;&gt;Node4</title>
<path fill="none" stroke="midnightblue" d="M549.9,-78.08C452.86,-72.28 264.76,-58.41 107,-31 104.14,-30.5 101.21,-29.94 98.26,-29.33"/>
<polygon fill="midnightblue" stroke="midnightblue" points="549.95,-81.58 560.14,-78.68 550.36,-74.6 549.95,-81.58"/>
</g>
<!-- Node5 -->
<g id="node5" class="node">
<title>Node5</title>
<g id="a_node5"><a xlink:href="libosd_8c.html" target="_top" xlink:title=" ">
<polygon fill="white" stroke="black" points="116.5,-6 116.5,-25 225.5,-25 225.5,-6 116.5,-6"/>
<text text-anchor="middle" x="171" y="-13" font-family="Helvetica,sans-Serif" font-size="10.00">ee/kernel/src/libosd.c</text>
</a>
</g>
</g>
<!-- Node3&#45;&gt;Node5 -->
<g id="edge4" class="edge">
<title>Node3&#45;&gt;Node5</title>
<path fill="none" stroke="midnightblue" d="M550.12,-74.79C474.06,-66.49 344.37,-50.97 234,-31 224.72,-29.32 214.75,-27.18 205.54,-25.07"/>
<polygon fill="midnightblue" stroke="midnightblue" points="550.17,-78.32 560.49,-75.91 550.92,-71.36 550.17,-78.32"/>
</g>
<!-- Node6 -->
<g id="node6" class="node">
<title>Node6</title>
<g id="a_node6"><a xlink:href="libosd__common_8c.html" target="_top" xlink:title=" ">
<polygon fill="white" stroke="black" points="243.5,-0.5 243.5,-30.5 344.5,-30.5 344.5,-0.5 243.5,-0.5"/>
<text text-anchor="start" x="251.5" y="-18.5" font-family="Helvetica,sans-Serif" font-size="10.00">ee/kernel/src/libosd</text>
<text text-anchor="middle" x="294" y="-7.5" font-family="Helvetica,sans-Serif" font-size="10.00">_common.c</text>
</a>
</g>
</g>
<!-- Node3&#45;&gt;Node6 -->
<g id="edge5" class="edge">
<title>Node3&#45;&gt;Node6</title>
<path fill="none" stroke="midnightblue" d="M550.42,-69.99C497.28,-60.3 420.06,-45.69 353,-31 350.32,-30.41 347.58,-29.8 344.81,-29.16"/>
<polygon fill="midnightblue" stroke="midnightblue" points="549.93,-73.46 560.39,-71.81 551.18,-66.57 549.93,-73.46"/>
</g>
<!-- Node7 -->
<g id="node7" class="node">
<title>Node7</title>
<g id="a_node7"><a xlink:href="libosd__full_8c.html" target="_top" xlink:title=" ">
<polygon fill="white" stroke="black" points="362.5,-0.5 362.5,-30.5 463.5,-30.5 463.5,-0.5 362.5,-0.5"/>
<text text-anchor="start" x="370.5" y="-18.5" font-family="Helvetica,sans-Serif" font-size="10.00">ee/kernel/src/libosd</text>
<text text-anchor="middle" x="413" y="-7.5" font-family="Helvetica,sans-Serif" font-size="10.00">_full.c</text>
</a>
</g>
</g>
<!-- Node3&#45;&gt;Node7 -->
<g id="edge6" class="edge">
<title>Node3&#45;&gt;Node7</title>
<path fill="none" stroke="midnightblue" d="M561.32,-64.23C528.65,-53.71 487.43,-40.45 456.75,-30.58"/>
<polygon fill="midnightblue" stroke="midnightblue" points="560.58,-67.66 571.17,-67.4 562.72,-61 560.58,-67.66"/>
</g>
<!-- Node8 -->
<g id="node8" class="node">
<title>Node8</title>
<g id="a_node8"><a xlink:href="osd__config_8c.html" target="_top" xlink:title=" ">
<polygon fill="white" stroke="black" points="482,-6 482,-25 612,-25 612,-6 482,-6"/>
<text text-anchor="middle" x="547" y="-13" font-family="Helvetica,sans-Serif" font-size="10.00">ee/kernel/src/osd_config.c</text>
</a>
</g>
</g>
<!-- Node3&#45;&gt;Node8 -->
<g id="edge7" class="edge">
<title>Node3&#45;&gt;Node8</title>
<path fill="none" stroke="midnightblue" d="M592.86,-60.34C580.37,-48.4 565.45,-34.14 556.1,-25.19"/>
<polygon fill="midnightblue" stroke="midnightblue" points="590.6,-63.02 600.25,-67.4 595.43,-57.96 590.6,-63.02"/>
</g>
<!-- Node9 -->
<g id="node9" class="node">
<title>Node9</title>
<g id="a_node9"><a xlink:href="osd_8c_source.html" target="_top" xlink:title=" ">
<polygon fill="white" stroke="black" points="630.5,-0.5 630.5,-30.5 735.5,-30.5 735.5,-0.5 630.5,-0.5"/>
<text text-anchor="start" x="638.5" y="-18.5" font-family="Helvetica,sans-Serif" font-size="10.00">ee/kernel/src/osdsrc</text>
<text text-anchor="middle" x="683" y="-7.5" font-family="Helvetica,sans-Serif" font-size="10.00">/src/osd.c</text>
</a>
</g>
</g>
<!-- Node3&#45;&gt;Node9 -->
<g id="edge8" class="edge">
<title>Node3&#45;&gt;Node9</title>
<path fill="none" stroke="midnightblue" d="M637.17,-60.31C647.37,-50.56 659.19,-39.26 668.27,-30.58"/>
<polygon fill="midnightblue" stroke="midnightblue" points="634.57,-57.96 629.75,-67.4 639.4,-63.02 634.57,-57.96"/>
</g>
<!-- Node10 -->
<g id="node10" class="node">
<title>Node10</title>
<g id="a_node10"><a xlink:href="osdsrc_8c_source.html" target="_top" xlink:title=" ">
<polygon fill="white" stroke="black" points="753.5,-0.5 753.5,-30.5 858.5,-30.5 858.5,-0.5 753.5,-0.5"/>
<text text-anchor="start" x="761.5" y="-18.5" font-family="Helvetica,sans-Serif" font-size="10.00">ee/kernel/src/osdsrc</text>
<text text-anchor="middle" x="806" y="-7.5" font-family="Helvetica,sans-Serif" font-size="10.00">/src/osdsrc.c</text>
</a>
</g>
</g>
<!-- Node3&#45;&gt;Node10 -->
<g id="edge9" class="edge">
<title>Node3&#45;&gt;Node10</title>
<path fill="none" stroke="midnightblue" d="M666.15,-64.09C696.99,-53.6 735.75,-40.41 764.64,-30.58"/>
<polygon fill="midnightblue" stroke="midnightblue" points="664.78,-60.86 656.44,-67.4 667.04,-67.49 664.78,-60.86"/>
</g>
<!-- Node11 -->
<g id="node11" class="node">
<title>Node11</title>
<g id="a_node11"><a xlink:href="timezone_8c.html" target="_top" xlink:title=" ">
<polygon fill="white" stroke="black" points="876.5,-6 876.5,-25 987.5,-25 987.5,-6 876.5,-6"/>
<text text-anchor="middle" x="932" y="-13" font-family="Helvetica,sans-Serif" font-size="10.00">ee/libc/src/timezone.c</text>
</a>
</g>
</g>
<!-- Node3&#45;&gt;Node11 -->
<g id="edge10" class="edge">
<title>Node3&#45;&gt;Node11</title>
<path fill="none" stroke="midnightblue" d="M679.53,-68.97C730.48,-58.98 803.36,-44.47 867,-31 875.82,-29.13 885.3,-27.06 894.22,-25.07"/>
<polygon fill="midnightblue" stroke="midnightblue" points="678.78,-65.55 669.64,-70.91 680.12,-72.42 678.78,-65.55"/>
</g>
<!-- Node3&#45;&gt;Node12 -->
<g id="edge11" class="edge">
<title>Node3&#45;&gt;Node12</title>
<path fill="none" stroke="midnightblue" d="M680.14,-74.38C756.18,-65.72 885.6,-49.89 996,-31 1006.01,-29.29 1016.79,-27.16 1026.78,-25.07"/>
<polygon fill="midnightblue" stroke="midnightblue" points="679.31,-70.95 669.77,-75.55 680.1,-77.91 679.31,-70.95"/>
</g>
<!-- Node17 -->
<g id="node17" class="node">
<title>Node17</title>
<g id="a_node17"><a xlink:href="common_2sbus_2src_2irx__imports_8h_source.html" target="_top" xlink:title=" ">
<polygon fill="white" stroke="black" points="1189.5,-67.5 1189.5,-97.5 1296.5,-97.5 1296.5,-67.5 1189.5,-67.5"/>
<text text-anchor="start" x="1197.5" y="-85.5" font-family="Helvetica,sans-Serif" font-size="10.00">common/sbus/src/irx</text>
<text text-anchor="middle" x="1243" y="-74.5" font-family="Helvetica,sans-Serif" font-size="10.00">_imports.h</text>
</a>
</g>
</g>
<!-- Node16&#45;&gt;Node17 -->
<g id="edge17" class="edge">
<title>Node16&#45;&gt;Node17</title>
<path fill="none" stroke="midnightblue" d="M2447.4,-147.5C2241.24,-143.63 1530.83,-128.35 1306,-98 1303,-97.59 1299.93,-97.11 1296.84,-96.58"/>
<polygon fill="midnightblue" stroke="midnightblue" points="2447.63,-151 2457.69,-147.69 2447.76,-144 2447.63,-151"/>
</g>
<!-- Node18 -->
<g id="node18" class="node">
<title>Node18</title>
<g id="a_node18"><a xlink:href="iop_2cdvd_2cdfs_2src_2irx__imports_8h_source.html" target="_top" xlink:title=" ">
<polygon fill="white" stroke="black" points="1315,-67.5 1315,-97.5 1419,-97.5 1419,-67.5 1315,-67.5"/>
<text text-anchor="start" x="1323" y="-85.5" font-family="Helvetica,sans-Serif" font-size="10.00">iop/cdvd/cdfs/src/irx</text>
<text text-anchor="middle" x="1367" y="-74.5" font-family="Helvetica,sans-Serif" font-size="10.00">_imports.h</text>
</a>
</g>
</g>
<!-- Node16&#45;&gt;Node18 -->
<g id="edge18" class="edge">
<title>Node16&#45;&gt;Node18</title>
<path fill="none" stroke="midnightblue" d="M2447.79,-147.25C2255.95,-142.75 1627.9,-126.2 1428,-98 1425.09,-97.59 1422.11,-97.1 1419.12,-96.56"/>
<polygon fill="midnightblue" stroke="midnightblue" points="2447.85,-150.75 2457.93,-147.48 2448.01,-143.75 2447.85,-150.75"/>
</g>
<!-- Node19 -->
<g id="node19" class="node">
<title>Node19</title>
<g id="a_node19"><a xlink:href="iop_2debug_2iop__sbusdbg_2src_2irx__imports_8h_source.html" target="_top" xlink:title=" ">
<polygon fill="white" stroke="black" points="1437,-67.5 1437,-97.5 1553,-97.5 1553,-67.5 1437,-67.5"/>
<text text-anchor="start" x="1445" y="-85.5" font-family="Helvetica,sans-Serif" font-size="10.00">iop/debug/iop_sbusdbg</text>
<text text-anchor="middle" x="1495" y="-74.5" font-family="Helvetica,sans-Serif" font-size="10.00">/src/irx_imports.h</text>
</a>
</g>
</g>
<!-- Node16&#45;&gt;Node19 -->
<g id="edge19" class="edge">
<title>Node16&#45;&gt;Node19</title>
<path fill="none" stroke="midnightblue" d="M2447.58,-148.6C2300.88,-148.2 1895.68,-142.76 1562,-98 1559.05,-97.6 1556.04,-97.15 1553,-96.65"/>
<polygon fill="midnightblue" stroke="midnightblue" points="2447.68,-152.1 2457.69,-148.62 2447.69,-145.1 2447.68,-152.1"/>
</g>
<!-- Node20 -->
<g id="node20" class="node">
<title>Node20</title>
<g id="a_node20"><a xlink:href="iop_2debug_2iopdebug_2src_2irx__imports_8h_source.html" target="_top" xlink:title=" ">
<polygon fill="white" stroke="black" points="1571.5,-67.5 1571.5,-97.5 1672.5,-97.5 1672.5,-67.5 1571.5,-67.5"/>
<text text-anchor="start" x="1579.5" y="-85.5" font-family="Helvetica,sans-Serif" font-size="10.00">iop/debug/iopdebug</text>
<text text-anchor="middle" x="1622" y="-74.5" font-family="Helvetica,sans-Serif" font-size="10.00">/src/irx_imports.h</text>
</a>
</g>
</g>
<!-- Node16&#45;&gt;Node20 -->
<g id="edge20" class="edge">
<title>Node16&#45;&gt;Node20</title>
<path fill="none" stroke="midnightblue" d="M2447.73,-148.52C2313.97,-147.81 1966.85,-141.53 1681,-98 1678.29,-97.59 1675.52,-97.11 1672.73,-96.58"/>
<polygon fill="midnightblue" stroke="midnightblue" points="2447.72,-152.02 2457.74,-148.56 2447.76,-145.02 2447.72,-152.02"/>
</g>
<!-- Node21 -->
<g id="node21" class="node">
<title>Node21</title>
<g id="a_node21"><a xlink:href="diskio_8c_source.html" target="_top" xlink:title=" ">
<polygon fill="white" stroke="black" points="1690.5,-67.5 1690.5,-97.5 1785.5,-97.5 1785.5,-67.5 1690.5,-67.5"/>
<text text-anchor="start" x="1698.5" y="-85.5" font-family="Helvetica,sans-Serif" font-size="10.00">iop/fs/bdmfs_fatfs</text>
<text text-anchor="middle" x="1738" y="-74.5" font-family="Helvetica,sans-Serif" font-size="10.00">/src/diskio.c</text>
</a>
</g>
</g>
<!-- Node16&#45;&gt;Node21 -->
<g id="edge21" class="edge">
<title>Node16&#45;&gt;Node21</title>
<path fill="none" stroke="midnightblue" d="M2447.88,-147.97C2327.36,-146.09 2035.15,-137.46 1794,-98 1791.22,-97.55 1788.39,-97.02 1785.53,-96.44"/>
<polygon fill="midnightblue" stroke="midnightblue" points="2447.93,-151.48 2457.98,-148.12 2448.03,-144.48 2447.93,-151.48"/>
</g>
<!-- Node22 -->
<g id="node22" class="node">
<title>Node22</title>
<g id="a_node22"><a xlink:href="iop_2fs_2bdmfs__fatfs_2src_2irx__imports_8h_source.html" target="_top" xlink:title=" ">
<polygon fill="white" stroke="black" points="1803.5,-67.5 1803.5,-97.5 1898.5,-97.5 1898.5,-67.5 1803.5,-67.5"/>
<text text-anchor="start" x="1811.5" y="-85.5" font-family="Helvetica,sans-Serif" font-size="10.00">iop/fs/bdmfs_fatfs</text>
<text text-anchor="middle" x="1851" y="-74.5" font-family="Helvetica,sans-Serif" font-size="10.00">/src/irx_imports.h</text>
</a>
</g>
</g>
<!-- Node16&#45;&gt;Node22 -->
<g id="edge22" class="edge">
<title>Node16&#45;&gt;Node22</title>
<path fill="none" stroke="midnightblue" d="M2447.8,-146.91C2341.5,-143.2 2103.98,-131.58 1907,-98 1904.23,-97.53 1901.39,-96.98 1898.54,-96.39"/>
<polygon fill="midnightblue" stroke="midnightblue" points="2447.87,-150.41 2457.98,-147.25 2448.1,-143.42 2447.87,-150.41"/>
</g>
<!-- Node23 -->
<g id="node23" class="node">
<title>Node23</title>
<g id="a_node23"><a xlink:href="iop_2fs_2bdmfs__fatfs_2src_2main_8c_source.html" target="_top" xlink:title=" ">
<polygon fill="white" stroke="black" points="1916.5,-67.5 1916.5,-97.5 2011.5,-97.5 2011.5,-67.5 1916.5,-67.5"/>
<text text-anchor="start" x="1924.5" y="-85.5" font-family="Helvetica,sans-Serif" font-size="10.00">iop/fs/bdmfs_fatfs</text>
<text text-anchor="middle" x="1964" y="-74.5" font-family="Helvetica,sans-Serif" font-size="10.00">/src/main.c</text>
</a>
</g>
</g>
<!-- Node16&#45;&gt;Node23 -->
<g id="edge23" class="edge">
<title>Node16&#45;&gt;Node23</title>
<path fill="none" stroke="midnightblue" d="M2447.92,-145.38C2357.35,-139.72 2173.5,-125.72 2020,-98 2017.23,-97.5 2014.4,-96.94 2011.55,-96.33"/>
<polygon fill="midnightblue" stroke="midnightblue" points="2447.77,-148.87 2457.97,-145.99 2448.2,-141.89 2447.77,-148.87"/>
</g>
<!-- Node24 -->
<g id="node24" class="node">
<title>Node24</title>
<g id="a_node24"><a xlink:href="fs_2bdmfs__vfat_2src_2fat__write_8c_source.html" target="_top" xlink:title=" ">
<polygon fill="white" stroke="black" points="2029.5,-67.5 2029.5,-97.5 2138.5,-97.5 2138.5,-67.5 2029.5,-67.5"/>
<text text-anchor="start" x="2037.5" y="-85.5" font-family="Helvetica,sans-Serif" font-size="10.00">iop/fs/bdmfs_vfat/src</text>
<text text-anchor="middle" x="2084" y="-74.5" font-family="Helvetica,sans-Serif" font-size="10.00">/fat_write.c</text>
</a>
</g>
</g>
<!-- Node16&#45;&gt;Node24 -->
<g id="edge24" class="edge">
<title>Node16&#45;&gt;Node24</title>
<path fill="none" stroke="midnightblue" d="M2447.86,-142.07C2377.34,-133.64 2252.74,-117.61 2147,-98 2144.24,-97.49 2141.42,-96.94 2138.58,-96.36"/>
<polygon fill="midnightblue" stroke="midnightblue" points="2447.52,-145.55 2457.87,-143.26 2448.35,-138.6 2447.52,-145.55"/>
</g>
<!-- Node25 -->
<g id="node25" class="node">
<title>Node25</title>
<g id="a_node25"><a xlink:href="iop_2fs_2bdmfs__vfat_2src_2irx__imports_8h_source.html" target="_top" xlink:title=" ">
<polygon fill="white" stroke="black" points="2156.5,-67.5 2156.5,-97.5 2265.5,-97.5 2265.5,-67.5 2156.5,-67.5"/>
<text text-anchor="start" x="2164.5" y="-85.5" font-family="Helvetica,sans-Serif" font-size="10.00">iop/fs/bdmfs_vfat/src</text>
<text text-anchor="middle" x="2211" y="-74.5" font-family="Helvetica,sans-Serif" font-size="10.00">/irx_imports.h</text>
</a>
</g>
</g>
<!-- Node16&#45;&gt;Node25 -->
<g id="edge25" class="edge">
<title>Node16&#45;&gt;Node25</title>
<path fill="none" stroke="midnightblue" d="M2448.07,-136.26C2401.7,-126.09 2334.04,-111.2 2275,-98 2272,-97.33 2268.92,-96.64 2265.81,-95.94"/>
<polygon fill="midnightblue" stroke="midnightblue" points="2447.41,-139.7 2457.93,-138.42 2448.91,-132.86 2447.41,-139.7"/>
</g>
<!-- Node26 -->
<g id="node26" class="node">
<title>Node26</title>
<g id="a_node26"><a xlink:href="iop_2hdd_2apa_2src_2irx__imports_8h_source.html" target="_top" xlink:title=" ">
<polygon fill="white" stroke="black" points="2284,-67.5 2284,-97.5 2380,-97.5 2380,-67.5 2284,-67.5"/>
<text text-anchor="start" x="2292" y="-85.5" font-family="Helvetica,sans-Serif" font-size="10.00">iop/hdd/apa/src/irx</text>
<text text-anchor="middle" x="2332" y="-74.5" font-family="Helvetica,sans-Serif" font-size="10.00">_imports.h</text>
</a>
</g>
</g>
<!-- Node16&#45;&gt;Node26 -->
<g id="edge26" class="edge">
<title>Node16&#45;&gt;Node26</title>
<path fill="none" stroke="midnightblue" d="M2457.21,-130.82C2429.57,-120.37 2395.04,-107.32 2369.25,-97.58"/>
<polygon fill="midnightblue" stroke="midnightblue" points="2456.09,-134.13 2466.68,-134.4 2458.56,-127.59 2456.09,-134.13"/>
</g>
<!-- Node27 -->
<g id="node27" class="node">
<title>Node27</title>
<g id="a_node27"><a xlink:href="iop_2hdd_2pfs_2src_2irx__imports_8h_source.html" target="_top" xlink:title=" ">
<polygon fill="white" stroke="black" points="2398,-67.5 2398,-97.5 2492,-97.5 2492,-67.5 2398,-67.5"/>
<text text-anchor="start" x="2406" y="-85.5" font-family="Helvetica,sans-Serif" font-size="10.00">iop/hdd/pfs/src/irx</text>
<text text-anchor="middle" x="2445" y="-74.5" font-family="Helvetica,sans-Serif" font-size="10.00">_imports.h</text>
</a>
</g>
</g>
<!-- Node16&#45;&gt;Node27 -->
<g id="edge27" class="edge">
<title>Node16&#45;&gt;Node27</title>
<path fill="none" stroke="midnightblue" d="M2484.25,-126.74C2475.52,-117.12 2465.5,-106.09 2457.78,-97.58"/>
<polygon fill="midnightblue" stroke="midnightblue" points="2481.89,-129.34 2491.2,-134.4 2487.07,-124.64 2481.89,-129.34"/>
</g>
<!-- Node28 -->
<g id="node28" class="node">
<title>Node28</title>
<g id="a_node28"><a xlink:href="iop_2i_link_2_i_e_e_e1394__bd_2src_2irx__imports_8h_source.html" target="_top" xlink:title=" ">
<polygon fill="white" stroke="black" points="2510.5,-67.5 2510.5,-97.5 2617.5,-97.5 2617.5,-67.5 2510.5,-67.5"/>
<text text-anchor="start" x="2518.5" y="-85.5" font-family="Helvetica,sans-Serif" font-size="10.00">iop/iLink/IEEE1394</text>
<text text-anchor="middle" x="2564" y="-74.5" font-family="Helvetica,sans-Serif" font-size="10.00">_bd/src/irx_imports.h</text>
</a>
</g>
</g>
<!-- Node16&#45;&gt;Node28 -->
<g id="edge28" class="edge">
<title>Node16&#45;&gt;Node28</title>
<path fill="none" stroke="midnightblue" d="M2523.82,-127.02C2532.76,-117.34 2543.07,-106.17 2551.01,-97.58"/>
<polygon fill="midnightblue" stroke="midnightblue" points="2521.23,-124.67 2517.02,-134.4 2526.37,-129.42 2521.23,-124.67"/>
</g>
<!-- Node29 -->
<g id="node29" class="node">
<title>Node29</title>
<g id="a_node29"><a xlink:href="i_link_2_i_e_e_e1394__disk_2src_2fat__write_8c_source.html" target="_top" xlink:title=" ">
<polygon fill="white" stroke="black" points="2636,-67.5 2636,-97.5 2740,-97.5 2740,-67.5 2636,-67.5"/>
<text text-anchor="start" x="2644" y="-85.5" font-family="Helvetica,sans-Serif" font-size="10.00">iop/iLink/IEEE1394</text>
<text text-anchor="middle" x="2688" y="-74.5" font-family="Helvetica,sans-Serif" font-size="10.00">_disk/src/fat_write.c</text>
</a>
</g>
</g>
<!-- Node16&#45;&gt;Node29 -->
<g id="edge29" class="edge">
<title>Node16&#45;&gt;Node29</title>
<path fill="none" stroke="midnightblue" d="M2553.67,-130.96C2583.3,-120.48 2620.44,-107.37 2648.15,-97.58"/>
<polygon fill="midnightblue" stroke="midnightblue" points="2552.19,-127.76 2543.93,-134.4 2554.52,-134.37 2552.19,-127.76"/>
</g>
<!-- Node30 -->
<g id="node30" class="node">
<title>Node30</title>
<g id="a_node30"><a xlink:href="iop_2i_link_2_i_e_e_e1394__disk_2src_2irx__imports_8h_source.html" target="_top" xlink:title=" ">
<polygon fill="white" stroke="black" points="2758,-67.5 2758,-97.5 2872,-97.5 2872,-67.5 2758,-67.5"/>
<text text-anchor="start" x="2766" y="-85.5" font-family="Helvetica,sans-Serif" font-size="10.00">iop/iLink/IEEE1394</text>
<text text-anchor="middle" x="2815" y="-74.5" font-family="Helvetica,sans-Serif" font-size="10.00">_disk/src/irx_imports.h</text>
</a>
</g>
</g>
<!-- Node16&#45;&gt;Node30 -->
<g id="edge30" class="edge">
<title>Node16&#45;&gt;Node30</title>
<path fill="none" stroke="midnightblue" d="M2560,-137.17C2609.69,-127.07 2684.23,-111.79 2749,-98 2751.87,-97.39 2754.81,-96.76 2757.77,-96.12"/>
<polygon fill="midnightblue" stroke="midnightblue" points="2559.2,-133.76 2550.1,-139.18 2560.59,-140.62 2559.2,-133.76"/>
</g>
<!-- Node31 -->
<g id="node31" class="node">
<title>Node31</title>
<g id="a_node31"><a xlink:href="i_link__internal_8c_source.html" target="_top" xlink:title=" ">
<polygon fill="white" stroke="black" points="2890.5,-67.5 2890.5,-97.5 2991.5,-97.5 2991.5,-67.5 2890.5,-67.5"/>
<text text-anchor="start" x="2898.5" y="-85.5" font-family="Helvetica,sans-Serif" font-size="10.00">iop/iLink/iLinkman</text>
<text text-anchor="middle" x="2941" y="-74.5" font-family="Helvetica,sans-Serif" font-size="10.00">/src/iLink_internal.c</text>
</a>
</g>
</g>
<!-- Node16&#45;&gt;Node31 -->
<g id="edge31" class="edge">
<title>Node16&#45;&gt;Node31</title>
<path fill="none" stroke="midnightblue" d="M2560.11,-142.83C2634.02,-134.93 2767.87,-119.19 2881,-98 2884.05,-97.43 2887.19,-96.8 2890.34,-96.13"/>
<polygon fill="midnightblue" stroke="midnightblue" points="2559.67,-139.35 2550.09,-143.89 2560.4,-146.32 2559.67,-139.35"/>
</g>
<!-- Node32 -->
<g id="node32" class="node">
<title>Node32</title>
<g id="a_node32"><a xlink:href="iop_2i_link_2i_linkman_2src_2irx__imports_8h_source.html" target="_top" xlink:title=" ">
<polygon fill="white" stroke="black" points="3010,-67.5 3010,-97.5 3106,-97.5 3106,-67.5 3010,-67.5"/>
<text text-anchor="start" x="3018" y="-85.5" font-family="Helvetica,sans-Serif" font-size="10.00">iop/iLink/iLinkman</text>
<text text-anchor="middle" x="3058" y="-74.5" font-family="Helvetica,sans-Serif" font-size="10.00">/src/irx_imports.h</text>
</a>
</g>
</g>
<!-- Node16&#45;&gt;Node32 -->
<g id="edge32" class="edge">
<title>Node16&#45;&gt;Node32</title>
<path fill="none" stroke="midnightblue" d="M2560.36,-145.4C2652.75,-139.74 2841.96,-125.65 3000,-98 3003.17,-97.45 3006.42,-96.81 3009.69,-96.13"/>
<polygon fill="midnightblue" stroke="midnightblue" points="2559.89,-141.92 2550.12,-146.02 2560.31,-148.91 2559.89,-141.92"/>
</g>
<!-- Node33 -->
<g id="node33" class="node">
<title>Node33</title>
<g id="a_node33"><a xlink:href="iop_2memorycard_2mcman_2src_2irx__imports_8h_source.html" target="_top" xlink:title=" ">
<polygon fill="white" stroke="black" points="3124.5,-67.5 3124.5,-97.5 3245.5,-97.5 3245.5,-67.5 3124.5,-67.5"/>
<text text-anchor="start" x="3132.5" y="-85.5" font-family="Helvetica,sans-Serif" font-size="10.00">iop/memorycard/mcman</text>
<text text-anchor="middle" x="3185" y="-74.5" font-family="Helvetica,sans-Serif" font-size="10.00">/src/irx_imports.h</text>
</a>
</g>
</g>
<!-- Node16&#45;&gt;Node33 -->
<g id="edge33" class="edge">
<title>Node16&#45;&gt;Node33</title>
<path fill="none" stroke="midnightblue" d="M2560.22,-146.15C2668.21,-141.12 2911.91,-127.32 3115,-98 3118.07,-97.56 3121.21,-97.06 3124.37,-96.53"/>
<polygon fill="midnightblue" stroke="midnightblue" points="2560.03,-142.65 2550.2,-146.6 2560.35,-149.64 2560.03,-142.65"/>
</g>
<!-- Node34 -->
<g id="node34" class="node">
<title>Node34</title>
<g id="a_node34"><a xlink:href="mcman-internal_8h_source.html" target="_top" xlink:title=" ">
<polygon fill="white" stroke="black" points="3263.5,-67.5 3263.5,-97.5 3384.5,-97.5 3384.5,-67.5 3263.5,-67.5"/>
<text text-anchor="start" x="3271.5" y="-85.5" font-family="Helvetica,sans-Serif" font-size="10.00">iop/memorycard/mcman</text>
<text text-anchor="middle" x="3324" y="-74.5" font-family="Helvetica,sans-Serif" font-size="10.00">/src/mcman&#45;internal.h</text>
</a>
</g>
</g>
<!-- Node16&#45;&gt;Node34 -->
<g id="edge34" class="edge">
<title>Node16&#45;&gt;Node34</title>
<path fill="none" stroke="midnightblue" d="M2560.52,-147.4C2686.01,-144.36 2997.2,-133.58 3255,-98 3257.67,-97.63 3260.39,-97.22 3263.13,-96.77"/>
<polygon fill="midnightblue" stroke="midnightblue" points="2560.29,-143.9 2550.38,-147.64 2560.46,-150.9 2560.29,-143.9"/>
</g>
<!-- Node40 -->
<g id="node40" class="node">
<title>Node40</title>
<g id="a_node40"><a xlink:href="cdrom_8c.html" target="_top" xlink:title=" ">
<polygon fill="white" stroke="black" points="3402.5,-67.5 3402.5,-97.5 3509.5,-97.5 3509.5,-67.5 3402.5,-67.5"/>
<text text-anchor="start" x="3410.5" y="-85.5" font-family="Helvetica,sans-Serif" font-size="10.00">iop/sound/audsrv/src</text>
<text text-anchor="middle" x="3456" y="-74.5" font-family="Helvetica,sans-Serif" font-size="10.00">/cdrom.c</text>
</a>
</g>
</g>
<!-- Node16&#45;&gt;Node40 -->
<g id="edge40" class="edge">
<title>Node16&#45;&gt;Node40</title>
<path fill="none" stroke="midnightblue" d="M2560.27,-148.67C2701.37,-148.38 3081.3,-143.09 3394,-98 3396.74,-97.61 3399.53,-97.15 3402.34,-96.65"/>
<polygon fill="midnightblue" stroke="midnightblue" points="2560.13,-145.17 2550.13,-148.69 2560.14,-152.17 2560.13,-145.17"/>
</g>
<!-- Node41 -->
<g id="node41" class="node">
<title>Node41</title>
<g id="a_node41"><a xlink:href="iop_2sound_2audsrv_2src_2irx__imports_8h_source.html" target="_top" xlink:title=" ">
<polygon fill="white" stroke="black" points="3527.5,-67.5 3527.5,-97.5 3634.5,-97.5 3634.5,-67.5 3527.5,-67.5"/>
<text text-anchor="start" x="3535.5" y="-85.5" font-family="Helvetica,sans-Serif" font-size="10.00">iop/sound/audsrv/src</text>
<text text-anchor="middle" x="3581" y="-74.5" font-family="Helvetica,sans-Serif" font-size="10.00">/irx_imports.h</text>
</a>
</g>
</g>
<!-- Node16&#45;&gt;Node41 -->
<g id="edge41" class="edge">
<title>Node16&#45;&gt;Node41</title>
<path fill="none" stroke="midnightblue" d="M2560.22,-149.24C2714.35,-150.5 3156.29,-149.01 3519,-98 3521.74,-97.62 3524.53,-97.17 3527.34,-96.67"/>
<polygon fill="midnightblue" stroke="midnightblue" points="2560.09,-145.74 2550.05,-149.15 2560.02,-152.74 2560.09,-145.74"/>
</g>
<!-- Node42 -->
<g id="node42" class="node">
<title>Node42</title>
<g id="a_node42"><a xlink:href="api_8c_source.html" target="_top" xlink:title=" ">
<polygon fill="white" stroke="black" points="3652.5,-67.5 3652.5,-97.5 3759.5,-97.5 3759.5,-67.5 3652.5,-67.5"/>
<text text-anchor="start" x="3660.5" y="-85.5" font-family="Helvetica,sans-Serif" font-size="10.00">iop/usb/usbhdfsd/src</text>
<text text-anchor="middle" x="3706" y="-74.5" font-family="Helvetica,sans-Serif" font-size="10.00">/api.c</text>
</a>
</g>
</g>
<!-- Node16&#45;&gt;Node42 -->
<g id="edge42" class="edge">
<title>Node16&#45;&gt;Node42</title>
<path fill="none" stroke="midnightblue" d="M2560.51,-147.38C2760.05,-143.23 3431.07,-127.36 3644,-98 3646.74,-97.62 3649.53,-97.18 3652.35,-96.69"/>
<polygon fill="midnightblue" stroke="midnightblue" points="2560.18,-143.89 2550.25,-147.6 2560.32,-150.89 2560.18,-143.89"/>
</g>
<!-- Node43 -->
<g id="node43" class="node">
<title>Node43</title>
<g id="a_node43"><a xlink:href="usb_2usbhdfsd_2src_2fat__write_8c_source.html" target="_top" xlink:title=" ">
<polygon fill="white" stroke="black" points="3777.5,-67.5 3777.5,-97.5 3884.5,-97.5 3884.5,-67.5 3777.5,-67.5"/>
<text text-anchor="start" x="3785.5" y="-85.5" font-family="Helvetica,sans-Serif" font-size="10.00">iop/usb/usbhdfsd/src</text>
<text text-anchor="middle" x="3831" y="-74.5" font-family="Helvetica,sans-Serif" font-size="10.00">/fat_write.c</text>
</a>
</g>
</g>
<!-- Node16&#45;&gt;Node43 -->
<g id="edge43" class="edge">
<title>Node16&#45;&gt;Node43</title>
<path fill="none" stroke="midnightblue" d="M2560.22,-147.67C2773.19,-144.33 3530.34,-130.37 3769,-98 3771.74,-97.63 3774.53,-97.19 3777.35,-96.7"/>
<polygon fill="midnightblue" stroke="midnightblue" points="2560.14,-144.18 2550.2,-147.83 2560.25,-151.17 2560.14,-144.18"/>
</g>
<!-- Node44 -->
<g id="node44" class="node">
<title>Node44</title>
<g id="a_node44"><a xlink:href="iop_2usb_2usbhdfsd_2src_2irx__imports_8h_source.html" target="_top" xlink:title=" ">
<polygon fill="white" stroke="black" points="3902.5,-67.5 3902.5,-97.5 4009.5,-97.5 4009.5,-67.5 3902.5,-67.5"/>
<text text-anchor="start" x="3910.5" y="-85.5" font-family="Helvetica,sans-Serif" font-size="10.00">iop/usb/usbhdfsd/src</text>
<text text-anchor="middle" x="3956" y="-74.5" font-family="Helvetica,sans-Serif" font-size="10.00">/irx_imports.h</text>
</a>
</g>
</g>
<!-- Node16&#45;&gt;Node44 -->
<g id="edge44" class="edge">
<title>Node16&#45;&gt;Node44</title>
<path fill="none" stroke="midnightblue" d="M2560.41,-147.91C2786.78,-145.3 3629.68,-133.37 3894,-98 3896.74,-97.63 3899.53,-97.2 3902.35,-96.72"/>
<polygon fill="midnightblue" stroke="midnightblue" points="2560.06,-144.41 2550.1,-148.02 2560.14,-151.41 2560.06,-144.41"/>
</g>
<!-- Node35 -->
<g id="node35" class="node">
<title>Node35</title>
<g id="a_node35"><a xlink:href="iop_2memorycard_2mcman_2src_2main_8c_source.html" target="_top" xlink:title=" ">
<polygon fill="white" stroke="black" points="2985.5,-0.5 2985.5,-30.5 3106.5,-30.5 3106.5,-0.5 2985.5,-0.5"/>
<text text-anchor="start" x="2993.5" y="-18.5" font-family="Helvetica,sans-Serif" font-size="10.00">iop/memorycard/mcman</text>
<text text-anchor="middle" x="3046" y="-7.5" font-family="Helvetica,sans-Serif" font-size="10.00">/src/main.c</text>
</a>
</g>
</g>
<!-- Node34&#45;&gt;Node35 -->
<g id="edge35" class="edge">
<title>Node34&#45;&gt;Node35</title>
<path fill="none" stroke="midnightblue" d="M3254.22,-65.19C3208.7,-54.54 3149.86,-40.78 3106.35,-30.61"/>
<polygon fill="midnightblue" stroke="midnightblue" points="3253.49,-68.61 3264.02,-67.48 3255.08,-61.79 3253.49,-68.61"/>
</g>
<!-- Node36 -->
<g id="node36" class="node">
<title>Node36</title>
<g id="a_node36"><a xlink:href="mcdev_8c_source.html" target="_top" xlink:title=" ">
<polygon fill="white" stroke="black" points="3124.5,-0.5 3124.5,-30.5 3245.5,-30.5 3245.5,-0.5 3124.5,-0.5"/>
<text text-anchor="start" x="3132.5" y="-18.5" font-family="Helvetica,sans-Serif" font-size="10.00">iop/memorycard/mcman</text>
<text text-anchor="middle" x="3185" y="-7.5" font-family="Helvetica,sans-Serif" font-size="10.00">/src/mcdev.c</text>
</a>
</g>
</g>
<!-- Node34&#45;&gt;Node36 -->
<g id="edge36" class="edge">
<title>Node34&#45;&gt;Node36</title>
<path fill="none" stroke="midnightblue" d="M3284.72,-63.13C3262.63,-52.8 3235.49,-40.11 3215.1,-30.58"/>
<polygon fill="midnightblue" stroke="midnightblue" points="3283.3,-66.33 3293.84,-67.4 3286.26,-59.99 3283.3,-66.33"/>
</g>
<!-- Node37 -->
<g id="node37" class="node">
<title>Node37</title>
<g id="a_node37"><a xlink:href="mcsio2_8c_source.html" target="_top" xlink:title=" ">
<polygon fill="white" stroke="black" points="3263.5,-0.5 3263.5,-30.5 3384.5,-30.5 3384.5,-0.5 3263.5,-0.5"/>
<text text-anchor="start" x="3271.5" y="-18.5" font-family="Helvetica,sans-Serif" font-size="10.00">iop/memorycard/mcman</text>
<text text-anchor="middle" x="3324" y="-7.5" font-family="Helvetica,sans-Serif" font-size="10.00">/src/mcsio2.c</text>
</a>
</g>
</g>
<!-- Node34&#45;&gt;Node37 -->
<g id="edge37" class="edge">
<title>Node34&#45;&gt;Node37</title>
<path fill="none" stroke="midnightblue" d="M3324,-57.11C3324,-48.15 3324,-38.32 3324,-30.58"/>
<polygon fill="midnightblue" stroke="midnightblue" points="3320.5,-57.4 3324,-67.4 3327.5,-57.4 3320.5,-57.4"/>
</g>
<!-- Node38 -->
<g id="node38" class="node">
<title>Node38</title>
<g id="a_node38"><a xlink:href="ps1mc__fio_8c_source.html" target="_top" xlink:title=" ">
<polygon fill="white" stroke="black" points="3402.5,-0.5 3402.5,-30.5 3523.5,-30.5 3523.5,-0.5 3402.5,-0.5"/>
<text text-anchor="start" x="3410.5" y="-18.5" font-family="Helvetica,sans-Serif" font-size="10.00">iop/memorycard/mcman</text>
<text text-anchor="middle" x="3463" y="-7.5" font-family="Helvetica,sans-Serif" font-size="10.00">/src/ps1mc_fio.c</text>
</a>
</g>
</g>
<!-- Node34&#45;&gt;Node38 -->
<g id="edge38" class="edge">
<title>Node34&#45;&gt;Node38</title>
<path fill="none" stroke="midnightblue" d="M3363.28,-63.13C3385.37,-52.8 3412.51,-40.11 3432.9,-30.58"/>
<polygon fill="midnightblue" stroke="midnightblue" points="3361.74,-59.99 3354.16,-67.4 3364.7,-66.33 3361.74,-59.99"/>
</g>
<!-- Node39 -->
<g id="node39" class="node">
<title>Node39</title>
<g id="a_node39"><a xlink:href="ps2mc__fio_8c_source.html" target="_top" xlink:title=" ">
<polygon fill="white" stroke="black" points="3541.5,-0.5 3541.5,-30.5 3662.5,-30.5 3662.5,-0.5 3541.5,-0.5"/>
<text text-anchor="start" x="3549.5" y="-18.5" font-family="Helvetica,sans-Serif" font-size="10.00">iop/memorycard/mcman</text>
<text text-anchor="middle" x="3602" y="-7.5" font-family="Helvetica,sans-Serif" font-size="10.00">/src/ps2mc_fio.c</text>
</a>
</g>
</g>
<!-- Node34&#45;&gt;Node39 -->
<g id="edge39" class="edge">
<title>Node34&#45;&gt;Node39</title>
<path fill="none" stroke="midnightblue" d="M3393.78,-65.19C3439.3,-54.54 3498.14,-40.78 3541.65,-30.61"/>
<polygon fill="midnightblue" stroke="midnightblue" points="3392.92,-61.79 3383.98,-67.48 3394.51,-68.61 3392.92,-61.79"/>
</g>
</g>
</svg>
        <g id="navigator" transform="translate(0 0)" fill="#404254">
                <rect fill="#f2f5e9" fill-opacity="0.5" stroke="#606060" stroke-width=".5" x="0" y="0" width="60" height="60"/>
                <use id="zoomplus" xlink:href="#zoomPlus" x="17" y="9" onmousedown="handleZoom(evt,'in')"/>
                <use id="zoomminus" xlink:href="#zoomMin" x="42" y="9" onmousedown="handleZoom(evt,'out')"/>
                <use id="reset" xlink:href="#resetDef" x="30" y="36" onmousedown="handleReset()"/>
                <g id="arrowUp" xlink:href="#dirArrow" transform="translate(30 24)" onmousedown="handlePan(0,-1)">
                  <use xlink:href="#rim" fill="#404040">
                        <set attributeName="fill" to="#808080" begin="arrowUp.mouseover" end="arrowUp.mouseout"/>
                  </use>
                  <path fill="none" stroke="white" stroke-width="1.5" d="M0,-3.0v7 M-2.5,-0.5L0,-3.0L2.5,-0.5"/>
                </g>
                <g id="arrowRight" xlink:href="#dirArrow" transform="rotate(90) translate(36 -43)" onmousedown="handlePan(1,0)">
                  <use xlink:href="#rim" fill="#404040">
                        <set attributeName="fill" to="#808080" begin="arrowRight.mouseover" end="arrowRight.mouseout"/>
                  </use>
                  <path fill="none" stroke="white" stroke-width="1.5" d="M0,-3.0v7 M-2.5,-0.5L0,-3.0L2.5,-0.5"/>
                </g>
                <g id="arrowDown" xlink:href="#dirArrow" transform="rotate(180) translate(-30 -48)" onmousedown="handlePan(0,1)">
                  <use xlink:href="#rim" fill="#404040">
                        <set attributeName="fill" to="#808080" begin="arrowDown.mouseover" end="arrowDown.mouseout"/>
                  </use>
                  <path fill="none" stroke="white" stroke-width="1.5" d="M0,-3.0v7 M-2.5,-0.5L0,-3.0L2.5,-0.5"/>
                </g>
                <g id="arrowLeft" xlink:href="#dirArrow" transform="rotate(270) translate(-36 17)" onmousedown="handlePan(-1,0)">
                  <use xlink:href="#rim" fill="#404040">
                        <set attributeName="fill" to="#808080" begin="arrowLeft.mouseover" end="arrowLeft.mouseout"/>
                  </use>
                  <path fill="none" stroke="white" stroke-width="1.5" d="M0,-3.0v7 M-2.5,-0.5L0,-3.0L2.5,-0.5"/>
                </g>
        </g>
        <svg viewBox="0 0 15 15" width="100%" height="30px" preserveAspectRatio="xMaxYMin meet">
         <g id="arrow_out" transform="scale(0.3 0.3)">
          <a xlink:href="libcdvd-common_8h__dep__incl_org.svg" target="_base">
           <rect id="button" ry="5" rx="5" y="6" x="6" height="38" width="38"
                fill="#f2f5e9" fill-opacity="0.5" stroke="#606060" stroke-width="1.0"/>
           <path id="arrow"
             d="M 11.500037,31.436501 C 11.940474,20.09759 22.043105,11.32322 32.158766,21.979434 L 37.068811,17.246167 C 37.068811,17.246167 37.088388,32 37.088388,32 L 22.160133,31.978069 C 22.160133,31.978069 26.997745,27.140456 26.997745,27.140456 C 18.528582,18.264221 13.291696,25.230495 11.500037,31.436501 z"
             style="fill:#404040;"/>
          </a>
         </g>
        </svg>
</svg>
