<?xml version="1.0" encoding="UTF-8" standalone="no"?>
<!DOCTYPE svg PUBLIC "-//W3C//DTD SVG 1.1//EN"
 "http://www.w3.org/Graphics/SVG/1.1/DTD/svg11.dtd">
<!-- Generated by graphviz version 2.49.3 (20211027.1534)
 -->
<!-- Title: ee/kernel/include/timer.h Pages: 1 -->
<svg width="720pt" height="162pt"
 viewBox="0.00 0.00 719.50 162.00" xmlns="http://www.w3.org/2000/svg" xmlns:xlink="http://www.w3.org/1999/xlink">
<g id="graph0" class="graph" transform="scale(1 1) rotate(0) translate(4 158)">
<title>ee/kernel/include/timer.h</title>
<polygon fill="white" stroke="transparent" points="-4,4 -4,-158 715.5,-158 715.5,4 -4,4"/>
<!-- Node1 -->
<g id="node1" class="node">
<title>Node1</title>
<g id="a_node1"><a xlink:title=" ">
<polygon fill="#bfbfbf" stroke="black" points="178.5,-134.5 178.5,-153.5 300.5,-153.5 300.5,-134.5 178.5,-134.5"/>
<text text-anchor="middle" x="239.5" y="-141.5" font-family="Helvetica,sans-Serif" font-size="10.00">ee/kernel/include/timer.h</text>
</a>
</g>
</g>
<!-- Node2 -->
<g id="node2" class="node">
<title>Node2</title>
<g id="a_node2"><a xlink:href="initsys_8c.html" target="_top" xlink:title=" ">
<polygon fill="white" stroke="black" points="0,-73 0,-92 111,-92 111,-73 0,-73"/>
<text text-anchor="middle" x="55.5" y="-80" font-family="Helvetica,sans-Serif" font-size="10.00">ee/kernel/src/initsys.c</text>
</a>
</g>
</g>
<!-- Node1&#45;&gt;Node2 -->
<g id="edge1" class="edge">
<title>Node1&#45;&gt;Node2</title>
<path fill="none" stroke="midnightblue" d="M203.57,-131.38C167.8,-119.82 113.76,-102.34 81.81,-92.01"/>
<polygon fill="midnightblue" stroke="midnightblue" points="202.55,-134.73 213.14,-134.48 204.7,-128.07 202.55,-134.73"/>
</g>
<!-- Node3 -->
<g id="node3" class="node">
<title>Node3</title>
<g id="a_node3"><a xlink:href="srcfile_2src_2alarm_8c_source.html" target="_top" xlink:title=" ">
<polygon fill="white" stroke="black" points="129,-67.5 129,-97.5 230,-97.5 230,-67.5 129,-67.5"/>
<text text-anchor="start" x="137" y="-85.5" font-family="Helvetica,sans-Serif" font-size="10.00">ee/kernel/src/srcfile</text>
<text text-anchor="middle" x="179.5" y="-74.5" font-family="Helvetica,sans-Serif" font-size="10.00">/src/alarm.c</text>
</a>
</g>
</g>
<!-- Node1&#45;&gt;Node3 -->
<g id="edge2" class="edge">
<title>Node1&#45;&gt;Node3</title>
<path fill="none" stroke="midnightblue" d="M223.74,-127.37C214.4,-118.11 202.68,-106.48 193.64,-97.52"/>
<polygon fill="midnightblue" stroke="midnightblue" points="221.34,-129.92 230.9,-134.48 226.27,-124.95 221.34,-129.92"/>
</g>
<!-- Node4 -->
<g id="node4" class="node">
<title>Node4</title>
<g id="a_node4"><a xlink:href="timer_8c.html" target="_top" xlink:title=" ">
<polygon fill="white" stroke="black" points="248,-73 248,-92 353,-92 353,-73 248,-73"/>
<text text-anchor="middle" x="300.5" y="-80" font-family="Helvetica,sans-Serif" font-size="10.00">ee/kernel/src/timer.c</text>
</a>
</g>
</g>
<!-- Node1&#45;&gt;Node4 -->
<g id="edge3" class="edge">
<title>Node1&#45;&gt;Node4</title>
<path fill="none" stroke="midnightblue" d="M255.57,-127.32C267.16,-116.02 282.36,-101.19 291.78,-92.01"/>
<polygon fill="midnightblue" stroke="midnightblue" points="252.95,-124.99 248.24,-134.48 257.84,-130 252.95,-124.99"/>
</g>
<!-- Node5 -->
<g id="node5" class="node">
<title>Node5</title>
<g id="a_node5"><a xlink:href="ps2sdkapi_8h_source.html" target="_top" xlink:title=" ">
<polygon fill="white" stroke="black" points="371.5,-73 371.5,-92 505.5,-92 505.5,-73 371.5,-73"/>
<text text-anchor="middle" x="438.5" y="-80" font-family="Helvetica,sans-Serif" font-size="10.00">ee/libc/include/ps2sdkapi.h</text>
</a>
</g>
</g>
<!-- Node1&#45;&gt;Node5 -->
<g id="edge4" class="edge">
<title>Node1&#45;&gt;Node5</title>
<path fill="none" stroke="midnightblue" d="M277.87,-131.53C316.54,-119.96 375.34,-102.38 410.04,-92.01"/>
<polygon fill="midnightblue" stroke="midnightblue" points="276.59,-128.26 268.01,-134.48 278.6,-134.96 276.59,-128.26"/>
</g>
<!-- Node6 -->
<g id="node6" class="node">
<title>Node6</title>
<g id="a_node6"><a xlink:href="osd__config_8c.html" target="_top" xlink:title=" ">
<polygon fill="white" stroke="black" points="108.5,-6 108.5,-25 238.5,-25 238.5,-6 108.5,-6"/>
<text text-anchor="middle" x="173.5" y="-13" font-family="Helvetica,sans-Serif" font-size="10.00">ee/kernel/src/osd_config.c</text>
</a>
</g>
</g>
<!-- Node5&#45;&gt;Node6 -->
<g id="edge5" class="edge">
<title>Node5&#45;&gt;Node6</title>
<path fill="none" stroke="midnightblue" d="M393.59,-70.48C341.32,-57.66 256.1,-36.76 208.49,-25.08"/>
<polygon fill="midnightblue" stroke="midnightblue" points="393.04,-73.95 403.58,-72.94 394.71,-67.15 393.04,-73.95"/>
</g>
<!-- Node7 -->
<g id="node7" class="node">
<title>Node7</title>
<g id="a_node7"><a xlink:href="ps2sdkapi_8c_source.html" target="_top" xlink:title=" ">
<polygon fill="white" stroke="black" points="256.5,-6 256.5,-25 372.5,-25 372.5,-6 256.5,-6"/>
<text text-anchor="middle" x="314.5" y="-13" font-family="Helvetica,sans-Serif" font-size="10.00">ee/libc/src/ps2sdkapi.c</text>
</a>
</g>
</g>
<!-- Node5&#45;&gt;Node7 -->
<g id="edge6" class="edge">
<title>Node5&#45;&gt;Node7</title>
<path fill="none" stroke="midnightblue" d="M412.94,-68.1C388.39,-55.23 352.01,-36.16 331.03,-25.17"/>
<polygon fill="midnightblue" stroke="midnightblue" points="411.55,-71.33 422.03,-72.87 414.8,-65.13 411.55,-71.33"/>
</g>
<!-- Node8 -->
<g id="node8" class="node">
<title>Node8</title>
<g id="a_node8"><a xlink:href="sleep_8c.html" target="_top" xlink:title=" ">
<polygon fill="white" stroke="black" points="391,-6 391,-25 486,-25 486,-6 391,-6"/>
<text text-anchor="middle" x="438.5" y="-13" font-family="Helvetica,sans-Serif" font-size="10.00">ee/libc/src/sleep.c</text>
</a>
</g>
</g>
<!-- Node5&#45;&gt;Node8 -->
<g id="edge7" class="edge">
<title>Node5&#45;&gt;Node8</title>
<path fill="none" stroke="midnightblue" d="M438.5,-62.54C438.5,-50.17 438.5,-34.62 438.5,-25.13"/>
<polygon fill="midnightblue" stroke="midnightblue" points="435,-62.73 438.5,-72.73 442,-62.73 435,-62.73"/>
</g>
<!-- Node9 -->
<g id="node9" class="node">
<title>Node9</title>
<g id="a_node9"><a xlink:href="file_xio__rpc_8c.html" target="_top" xlink:title=" ">
<polygon fill="white" stroke="black" points="504,-0.5 504,-30.5 591,-30.5 591,-0.5 504,-0.5"/>
<text text-anchor="start" x="512" y="-18.5" font-family="Helvetica,sans-Serif" font-size="10.00">ee/rpc/filexio/src</text>
<text text-anchor="middle" x="547.5" y="-7.5" font-family="Helvetica,sans-Serif" font-size="10.00">/fileXio_rpc.c</text>
</a>
</g>
</g>
<!-- Node5&#45;&gt;Node9 -->
<g id="edge8" class="edge">
<title>Node5&#45;&gt;Node9</title>
<path fill="none" stroke="midnightblue" d="M461.8,-67.6C480.11,-56.69 505.49,-41.55 523.87,-30.59"/>
<polygon fill="midnightblue" stroke="midnightblue" points="460,-64.61 453.2,-72.73 463.58,-70.62 460,-64.61"/>
</g>
<!-- Node10 -->
<g id="node10" class="node">
<title>Node10</title>
<g id="a_node10"><a xlink:href="libkbd_8c.html" target="_top" xlink:title=" ">
<polygon fill="white" stroke="black" points="609.5,-0.5 609.5,-30.5 711.5,-30.5 711.5,-0.5 609.5,-0.5"/>
<text text-anchor="start" x="617.5" y="-18.5" font-family="Helvetica,sans-Serif" font-size="10.00">ee/rpc/keyboard/src</text>
<text text-anchor="middle" x="660.5" y="-7.5" font-family="Helvetica,sans-Serif" font-size="10.00">/libkbd.c</text>
</a>
</g>
</g>
<!-- Node5&#45;&gt;Node10 -->
<g id="edge9" class="edge">
<title>Node5&#45;&gt;Node10</title>
<path fill="none" stroke="midnightblue" d="M477.58,-70.06C515.22,-59.04 572.23,-42.34 612.59,-30.53"/>
<polygon fill="midnightblue" stroke="midnightblue" points="476.59,-66.7 467.98,-72.87 478.56,-73.42 476.59,-66.7"/>
</g>
</g>
</svg>
